<svg xmlns="http://www.w3.org/2000/svg" xmlns:xlink="http://www.w3.org/1999/xlink" width="50" zoomAndPan="magnify" viewBox="0 0 37.5 37.499999" height="50" preserveAspectRatio="xMidYMid meet" version="1.0"><defs><clipPath id="09630d356d"><path d="M 1.804688 2 L 16 2 L 16 34 L 1.804688 34 Z M 1.804688 2 " clip-rule="nonzero"/></clipPath></defs><path fill="#ffffff" d="M 15.261719 9.039062 C 15.261719 10.644531 16.566406 11.949219 18.171875 11.949219 C 19.78125 11.949219 21.082031 10.644531 21.082031 9.039062 C 21.082031 9.03125 21.082031 9.023438 21.082031 9.015625 L 15.261719 9.015625 C 15.261719 9.023438 15.261719 9.03125 15.261719 9.039062 Z M 15.261719 9.039062 " fill-opacity="1" fill-rule="nonzero"/><path fill="#ffffff" d="M 28.164062 26.121094 L 26 25.773438 L 25.796875 25.949219 L 34.085938 34.074219 L 34.785156 33.578125 L 29.542969 25.183594 Z M 28.164062 26.121094 " fill-opacity="1" fill-rule="nonzero"/><path fill="#ffffff" d="M 24.832031 23.320312 L 26.082031 25.476562 L 28.09375 25.800781 L 29.601562 24.773438 L 27.78125 21.878906 L 27.328125 22.101562 C 27.316406 22.082031 27.304688 22.0625 27.292969 22.046875 L 27.164062 21.839844 L 23.238281 15.589844 L 25.769531 16.445312 C 25.875 16.480469 25.984375 16.5 26.097656 16.5 C 26.113281 16.5 26.132812 16.496094 26.148438 16.496094 L 29.710938 16.328125 L 29.019531 17.136719 C 28.839844 17.351562 28.867188 17.671875 29.078125 17.851562 C 29.292969 18.035156 29.613281 18.007812 29.792969 17.792969 L 31.097656 16.261719 L 31.613281 16.238281 C 32.183594 16.210938 32.625 15.726562 32.597656 15.15625 C 32.589844 14.976562 32.535156 14.8125 32.449219 14.671875 L 34.101562 12.726562 L 33.472656 12.191406 L 33.097656 11.875 L 33.46875 11.4375 L 34.472656 12.289062 L 34.851562 11.84375 C 35.167969 11.472656 34.667969 10.527344 34.105469 10.046875 C 33.542969 9.566406 33.125 9.734375 32.808594 10.109375 L 32.429688 10.554688 L 32.699219 10.78125 L 32.320312 11.222656 C 32.011719 11.015625 31.589844 11.066406 31.34375 11.359375 C 31.097656 11.648438 31.113281 12.070312 31.367188 12.34375 L 30.902344 12.890625 C 30.722656 13.105469 30.75 13.421875 30.960938 13.605469 C 31.175781 13.785156 31.496094 13.761719 31.675781 13.546875 L 32.136719 13.007812 L 32.367188 13.203125 L 31.542969 14.171875 C 31.535156 14.171875 31.523438 14.171875 31.515625 14.171875 L 26.242188 14.421875 L 23.25 13.410156 L 25.597656 12.027344 C 25.792969 11.914062 25.945312 11.738281 26.03125 11.53125 L 27.597656 7.71875 L 28.457031 8.089844 L 29.421875 5.835938 L 28.40625 5.398438 L 28.199219 5.882812 C 28.152344 5.53125 27.925781 5.210938 27.570312 5.0625 C 27.179688 4.902344 26.753906 5 26.464844 5.269531 L 26.402344 5.226562 L 26.613281 4.730469 L 26.355469 4.617188 L 26.492188 4.296875 L 26.316406 4.222656 L 26.414062 3.996094 L 26.285156 3.941406 L 26.707031 2.957031 L 26.433594 2.839844 L 27.609375 0.0898438 L 27.402344 0 L 26.226562 2.75 L 25.941406 2.628906 L 25.519531 3.613281 L 25.390625 3.558594 L 25.292969 3.785156 L 25.121094 3.710938 L 23.960938 6.417969 C 23.796875 6.796875 23.972656 7.234375 24.351562 7.398438 C 24.730469 7.558594 25.171875 7.382812 25.332031 7.003906 L 25.578125 6.425781 L 25.914062 6.371094 L 24.246094 10.421875 L 21.132812 12.257812 C 21.070312 12.183594 20.976562 12.144531 20.878906 12.164062 C 20.769531 12.1875 20.695312 12.269531 20.675781 12.371094 C 20.667969 12.402344 20.667969 12.4375 20.675781 12.46875 L 21.460938 16.308594 C 21.484375 16.421875 21.578125 16.5 21.6875 16.511719 L 21.839844 17.132812 L 21.839844 17.253906 L 25.292969 22.753906 L 25.457031 23.011719 Z M 31.75 11.660156 C 31.894531 11.488281 32.152344 11.46875 32.320312 11.613281 C 32.492188 11.757812 32.511719 12.015625 32.367188 12.183594 C 32.222656 12.355469 31.96875 12.375 31.796875 12.230469 C 31.625 12.085938 31.605469 11.832031 31.75 11.660156 Z M 24.417969 6.824219 L 24.273438 6.765625 L 24.867188 5.378906 L 25.011719 5.441406 Z M 24.792969 6.984375 L 24.648438 6.921875 L 25.242188 5.535156 L 25.386719 5.597656 Z M 27.59375 22.539062 L 27.960938 23.125 L 25.929688 24.195312 L 25.550781 23.539062 L 25.792969 23.417969 C 25.976562 23.558594 26.195312 23.632812 26.417969 23.632812 C 26.609375 23.632812 26.796875 23.578125 26.96875 23.472656 C 27.277344 23.277344 27.449219 22.949219 27.453125 22.609375 Z M 27.59375 22.539062 " fill-opacity="1" fill-rule="nonzero"/><g clip-path="url(#09630d356d)"><path fill="#ffffff" d="M 14.65625 16.511719 C 14.765625 16.5 14.859375 16.421875 14.882812 16.308594 L 15.667969 12.46875 C 15.675781 12.4375 15.675781 12.402344 15.667969 12.371094 C 15.652344 12.269531 15.574219 12.1875 15.46875 12.164062 C 15.367188 12.144531 15.273438 12.183594 15.214844 12.257812 L 12.097656 10.421875 L 10.28125 6.003906 L 10.785156 5.628906 C 11.265625 5.902344 11.878906 5.886719 12.347656 5.535156 C 12.820312 5.1875 13.015625 4.605469 12.890625 4.066406 L 12.175781 4.597656 C 11.917969 4.789062 11.554688 4.734375 11.367188 4.480469 C 11.175781 4.222656 11.230469 3.859375 11.484375 3.667969 L 12.203125 3.136719 C 11.722656 2.867188 11.109375 2.882812 10.640625 3.234375 C 10.167969 3.582031 9.972656 4.164062 10.097656 4.699219 L 9.589844 5.078125 C 9.339844 4.964844 9.046875 4.953125 8.777344 5.0625 C 8.332031 5.246094 8.085938 5.699219 8.144531 6.148438 L 7.304688 6.773438 C 7.046875 6.960938 6.996094 7.324219 7.183594 7.582031 C 7.375 7.839844 7.738281 7.890625 7.996094 7.699219 L 8.566406 7.277344 L 10.316406 11.53125 C 10.402344 11.738281 10.554688 11.914062 10.746094 12.027344 L 13.097656 13.410156 L 10.101562 14.421875 L 5.34375 14.195312 L 4.417969 12.875 L 5.40625 12.179688 L 5.144531 11.800781 L 3.644531 11.773438 L 3.378906 11.394531 L 2.601562 11.9375 L 2.824219 12.253906 L 1.835938 12.949219 L 2.652344 14.113281 L 3.640625 13.417969 L 4.265625 14.308594 C 3.972656 14.480469 3.765625 14.789062 3.75 15.15625 C 3.722656 15.726562 4.160156 16.210938 4.734375 16.238281 L 5.652344 16.28125 L 6.761719 17.867188 L 7.539062 17.320312 L 6.847656 16.339844 L 10.199219 16.496094 C 10.214844 16.496094 10.230469 16.5 10.246094 16.5 C 10.359375 16.5 10.46875 16.480469 10.578125 16.445312 L 13.105469 15.589844 L 9.050781 22.046875 C 8.988281 22.144531 8.945312 22.253906 8.917969 22.363281 L 8.308594 22.242188 L 7.164062 24 L 7.296875 24.023438 L 3.539062 29.796875 C 3.511719 29.839844 2.988281 30.714844 3.457031 31.488281 C 3.851562 32.136719 4.820312 33.554688 4.863281 33.617188 L 5.289062 33.324219 C 5.285156 33.320312 5.214844 33.21875 5.109375 33.058594 L 10.574219 24.660156 L 10.726562 24.6875 L 11.871094 22.933594 L 11.039062 22.769531 L 14.503906 17.253906 L 14.503906 17.132812 Z M 4.976562 32.863281 C 4.648438 32.375 4.148438 31.628906 3.902344 31.222656 C 3.59375 30.714844 3.972656 30.078125 3.976562 30.070312 L 7.84375 24.132812 L 10.34375 24.613281 Z M 10.65625 23.796875 L 8.253906 23.332031 L 8.628906 22.753906 L 8.914062 22.808594 C 8.972656 23.074219 9.128906 23.316406 9.375 23.472656 C 9.546875 23.578125 9.738281 23.632812 9.925781 23.632812 C 10.261719 23.632812 10.585938 23.46875 10.785156 23.171875 L 11.03125 23.21875 Z M 10.65625 23.796875 " fill-opacity="1" fill-rule="nonzero"/></g><path fill="#ffffff" d="M 18.398438 21.609375 L 18.398438 20.3125 L 21.546875 20.3125 L 21.546875 19.667969 L 18.398438 19.667969 L 18.398438 18.332031 L 21.546875 18.332031 L 21.546875 17.683594 L 18.398438 17.683594 L 18.398438 15.949219 C 18.886719 15.53125 19.269531 13.875 19.457031 12.902344 C 19.472656 12.824219 19.5 12.753906 19.53125 12.6875 L 16.8125 12.6875 C 16.84375 12.753906 16.871094 12.824219 16.886719 12.902344 C 17.074219 13.875 17.457031 15.53125 17.945312 15.949219 L 17.945312 17.683594 L 14.796875 17.683594 L 14.796875 18.332031 L 17.945312 18.332031 L 17.945312 19.667969 L 14.796875 19.667969 L 14.796875 20.3125 L 17.945312 20.3125 L 17.945312 21.609375 L 14.476562 21.609375 C 14.335938 21.609375 14.21875 21.722656 14.21875 21.867188 C 14.21875 22.007812 14.335938 22.125 14.476562 22.125 L 14.636719 22.125 L 13.570312 35.210938 C 13.5 36.09375 14.15625 36.863281 15.035156 36.9375 C 15.914062 37.007812 16.6875 36.351562 16.757812 35.472656 L 17.734375 23.53125 L 18.613281 23.53125 L 19.585938 35.472656 C 19.65625 36.351562 20.429688 37.007812 21.308594 36.9375 C 22.191406 36.863281 22.847656 36.09375 22.773438 35.210938 L 21.707031 22.125 L 21.867188 22.125 C 22.007812 22.125 22.125 22.007812 22.125 21.867188 C 22.125 21.722656 22.007812 21.609375 21.867188 21.609375 Z M 18.398438 21.609375 " fill-opacity="1" fill-rule="nonzero"/><path fill="#ffffff" d="M 21.605469 8.300781 C 21.605469 8.085938 21.433594 7.910156 21.214844 7.910156 L 21.164062 7.910156 C 21.136719 6.914062 20.625 6.042969 19.859375 5.515625 L 19.859375 5.753906 C 19.859375 5.925781 19.71875 6.066406 19.550781 6.066406 C 19.378906 6.066406 19.242188 5.925781 19.242188 5.753906 L 19.242188 5.195312 C 19 5.101562 18.746094 5.039062 18.480469 5.011719 L 18.480469 5.753906 C 18.480469 5.925781 18.34375 6.066406 18.171875 6.066406 C 18 6.066406 17.863281 5.925781 17.863281 5.753906 L 17.863281 5.011719 C 17.597656 5.039062 17.34375 5.101562 17.105469 5.195312 L 17.105469 5.753906 C 17.105469 5.925781 16.964844 6.066406 16.796875 6.066406 C 16.625 6.066406 16.484375 5.925781 16.484375 5.753906 L 16.484375 5.519531 C 15.71875 6.042969 15.207031 6.914062 15.183594 7.910156 L 15.128906 7.910156 C 14.914062 7.910156 14.738281 8.085938 14.738281 8.300781 C 14.738281 8.515625 14.914062 8.691406 15.128906 8.691406 L 21.214844 8.691406 C 21.433594 8.691406 21.605469 8.515625 21.605469 8.300781 Z M 21.605469 8.300781 " fill-opacity="1" fill-rule="nonzero"/></svg>