<svg xmlns="http://www.w3.org/2000/svg" xmlns:xlink="http://www.w3.org/1999/xlink" width="50" zoomAndPan="magnify" viewBox="0 0 37.5 37.499999" height="50" preserveAspectRatio="xMidYMid meet" version="1.0"><defs><clipPath id="1cf2d8541b"><path d="M 3.375 12 L 30 12 L 30 37 L 3.375 37 Z M 3.375 12 " clip-rule="nonzero"/></clipPath><clipPath id="1e85e2a4d3"><path d="M 21 14 L 33.722656 14 L 33.722656 30 L 21 30 Z M 21 14 " clip-rule="nonzero"/></clipPath></defs><g clip-path="url(#1cf2d8541b)"><path fill="#ffffff" d="M 16.425781 36.992188 C 12.835938 36.992188 9.175781 35.941406 6.667969 33.828125 C 4.515625 32.011719 3.375 29.570312 3.375 26.765625 C 3.375 23.9375 4.5 22.496094 5.90625 20.632812 C 6.503906 19.847656 7.410156 18.914062 8.375 17.929688 C 10.066406 16.195312 11.984375 14.21875 12.820312 12.445312 C 12.886719 12.296875 13.042969 12.203125 13.207031 12.203125 L 19.703125 12.203125 C 19.867188 12.203125 20.019531 12.296875 20.09375 12.445312 C 20.785156 13.929688 22.222656 15.527344 23.667969 17.035156 C 23.871094 17.242188 23.808594 17.589844 23.550781 17.71875 C 23.171875 17.90625 22.796875 18.082031 22.425781 18.242188 L 22.425781 22.816406 C 22.425781 25.421875 24.683594 28.136719 27.597656 29.046875 C 27.945312 28.9375 28.296875 28.800781 28.632812 28.632812 C 28.960938 28.472656 29.332031 28.777344 29.238281 29.132812 C 27.867188 34.566406 21.902344 36.992188 16.425781 36.992188 Z M 13.476562 13.0625 C 12.539062 14.898438 10.660156 16.828125 8.988281 18.535156 C 8.027344 19.523438 7.148438 20.421875 6.5625 21.195312 C 5.164062 23.039062 4.242188 24.257812 4.242188 26.765625 C 4.242188 32.65625 9.636719 35.417969 14.257812 36 C 17.328125 36.382812 20.5625 35.929688 23.117188 34.765625 C 24.894531 33.949219 27.125 32.441406 28.136719 29.785156 C 27.996094 29.832031 27.855469 29.878906 27.722656 29.917969 C 27.636719 29.941406 27.554688 29.941406 27.472656 29.917969 C 24.101562 28.917969 21.5625 25.871094 21.5625 22.824219 L 21.5625 17.960938 C 21.5625 17.785156 21.667969 17.628906 21.828125 17.5625 C 22.09375 17.449219 22.363281 17.328125 22.636719 17.199219 C 21.355469 15.851562 20.136719 14.4375 19.433594 13.0625 Z M 13.476562 13.0625 " fill-opacity="1" fill-rule="evenodd"/></g><path fill="#ffffff" d="M 19.152344 9.914062 L 14.007812 9.914062 C 13.878906 9.914062 13.753906 9.855469 13.671875 9.75 C 13.359375 9.363281 12.945312 8.996094 12.507812 8.605469 C 11.167969 7.402344 9.492188 5.90625 11.054688 3.398438 C 11.457031 2.746094 11.960938 2.375 12.554688 2.296875 C 13.609375 2.160156 14.613281 2.953125 15.546875 3.828125 C 16.46875 4.691406 16.796875 4.691406 16.875 4.671875 C 17.082031 4.621094 17.28125 3.992188 17.449219 3.492188 C 17.773438 2.496094 18.222656 1.128906 19.492188 0.421875 C 20.214844 0.0117188 21.035156 0.0664062 21.734375 0.558594 C 22.921875 1.402344 23.519531 3.292969 23.191406 5.160156 C 22.886719 6.875 20.507812 8.464844 19.492188 9.75 C 19.40625 9.855469 19.285156 9.914062 19.152344 9.914062 Z M 14.210938 9.050781 L 18.945312 9.050781 C 19.9375 7.890625 22.113281 6.289062 22.335938 5.007812 C 22.765625 2.589844 21.320312 0.386719 19.910156 1.175781 C 18.042969 2.214844 18.484375 5.15625 17.085938 5.511719 C 16.53125 5.652344 15.894531 5.335938 14.957031 4.460938 C 14.46875 4.003906 13.457031 3.050781 12.667969 3.152344 C 12.339844 3.199219 12.054688 3.429688 11.785156 3.855469 C 10.234375 6.347656 12.773438 7.398438 14.210938 9.050781 Z M 14.210938 9.050781 " fill-opacity="1" fill-rule="evenodd"/><path fill="#ffffff" d="M 20.707031 13.0625 L 12.207031 13.0625 C 11.097656 13.0625 10.199219 12.167969 10.199219 11.058594 C 10.199219 9.949219 11.097656 9.050781 12.207031 9.050781 L 20.707031 9.050781 C 21.8125 9.050781 22.714844 9.949219 22.714844 11.058594 C 22.714844 12.167969 21.8125 13.0625 20.707031 13.0625 Z M 12.207031 9.914062 C 11.578125 9.914062 11.0625 10.425781 11.0625 11.058594 C 11.0625 11.691406 11.578125 12.203125 12.207031 12.203125 L 20.707031 12.203125 C 21.335938 12.203125 21.847656 11.691406 21.847656 11.058594 C 21.847656 10.425781 21.335938 9.914062 20.707031 9.914062 Z M 12.207031 9.914062 " fill-opacity="1" fill-rule="evenodd"/><path fill="#ffffff" d="M 16.457031 31.296875 C 16.21875 31.296875 16.023438 31.105469 16.023438 30.867188 L 16.023438 29.34375 C 16.023438 29.105469 16.21875 28.90625 16.457031 28.90625 C 16.695312 28.90625 16.890625 29.105469 16.890625 29.34375 L 16.890625 30.867188 C 16.890625 31.105469 16.695312 31.296875 16.457031 31.296875 Z M 16.457031 21.964844 C 16.21875 21.964844 16.023438 21.765625 16.023438 21.527344 L 16.023438 20.003906 C 16.023438 19.765625 16.21875 19.574219 16.457031 19.574219 C 16.695312 19.574219 16.890625 19.765625 16.890625 20.003906 L 16.890625 21.527344 C 16.890625 21.765625 16.695312 21.964844 16.457031 21.964844 Z M 16.457031 21.964844 " fill-opacity="1" fill-rule="evenodd"/><path fill="#ffffff" d="M 16.390625 29.777344 C 15.402344 29.777344 14.390625 29.453125 13.894531 28.773438 C 13.804688 28.644531 13.726562 28.503906 13.660156 28.347656 C 13.5625 28.128906 13.664062 27.875 13.882812 27.785156 C 14.101562 27.683594 14.355469 27.789062 14.453125 28.007812 C 14.496094 28.105469 14.539062 28.191406 14.597656 28.265625 C 15.164062 29.046875 17.085938 29.101562 17.859375 28.539062 C 18.652344 27.964844 18.621094 26.789062 17.710938 26.351562 C 17.351562 26.183594 16.644531 25.980469 16.097656 25.78125 C 15.78125 25.675781 15.027344 25.394531 14.824219 25.296875 C 14.148438 24.96875 13.695312 24.335938 13.632812 23.605469 C 13.5625 22.839844 13.902344 22.097656 14.546875 21.632812 C 15.679688 20.8125 18.144531 20.894531 19.019531 22.097656 C 19.105469 22.226562 19.191406 22.367188 19.253906 22.523438 C 19.351562 22.742188 19.246094 22.996094 19.03125 23.085938 C 18.8125 23.179688 18.558594 23.082031 18.464844 22.863281 C 18.417969 22.765625 18.371094 22.679688 18.320312 22.605469 C 17.75 21.824219 15.832031 21.769531 15.054688 22.332031 C 14.265625 22.90625 14.292969 24.082031 15.199219 24.519531 C 15.472656 24.648438 16.367188 24.964844 16.742188 25.089844 C 17.355469 25.289062 17.796875 25.433594 18.085938 25.574219 C 18.769531 25.902344 19.214844 26.527344 19.285156 27.265625 C 19.351562 28.03125 19.007812 28.769531 18.367188 29.234375 C 17.878906 29.59375 17.136719 29.777344 16.390625 29.777344 Z M 16.390625 29.777344 " fill-opacity="1" fill-rule="evenodd"/><path fill="#ffffff" d="M 16.457031 33.652344 C 11.929688 33.652344 8.242188 29.964844 8.242188 25.433594 C 8.242188 20.90625 11.929688 17.21875 16.457031 17.21875 C 18.671875 17.21875 20.75 18.089844 22.304688 19.667969 C 22.472656 19.839844 22.472656 20.113281 22.300781 20.277344 C 22.128906 20.445312 21.855469 20.445312 21.6875 20.273438 C 20.292969 18.863281 18.4375 18.085938 16.453125 18.085938 C 12.40625 18.085938 9.109375 21.382812 9.109375 25.433594 C 9.109375 29.488281 12.40625 32.785156 16.453125 32.785156 C 19.839844 32.785156 22.769531 30.492188 23.589844 27.214844 C 23.648438 26.980469 23.878906 26.839844 24.113281 26.898438 C 24.34375 26.953125 24.480469 27.191406 24.425781 27.421875 C 23.519531 31.089844 20.238281 33.652344 16.457031 33.652344 Z M 16.457031 33.652344 " fill-opacity="1" fill-rule="evenodd"/><g clip-path="url(#1e85e2a4d3)"><path fill="#ffffff" d="M 27.597656 29.933594 C 27.554688 29.933594 27.515625 29.929688 27.472656 29.914062 C 24.101562 28.917969 21.5625 25.871094 21.5625 22.816406 L 21.5625 17.957031 C 21.5625 17.785156 21.667969 17.628906 21.828125 17.5625 C 23.589844 16.804688 25.953125 15.558594 27.300781 14.292969 C 27.46875 14.136719 27.726562 14.136719 27.890625 14.292969 C 29.238281 15.558594 31.601562 16.8125 33.367188 17.5625 C 33.527344 17.628906 33.628906 17.785156 33.628906 17.957031 L 33.628906 22.816406 C 33.628906 25.871094 31.089844 28.917969 27.722656 29.914062 C 27.679688 29.929688 27.636719 29.933594 27.597656 29.933594 Z M 22.429688 18.242188 L 22.429688 22.824219 C 22.429688 25.421875 24.6875 28.136719 27.597656 29.054688 C 30.503906 28.136719 32.765625 25.421875 32.765625 22.824219 L 32.765625 18.242188 C 31.089844 17.503906 28.980469 16.371094 27.597656 15.183594 C 26.214844 16.371094 24.101562 17.503906 22.429688 18.242188 Z M 22.429688 18.242188 " fill-opacity="1" fill-rule="evenodd"/></g><path fill="#ffffff" d="M 27.597656 28.011719 C 27.550781 28.011719 27.503906 28.007812 27.460938 27.992188 C 25.207031 27.253906 23.15625 25.074219 23.15625 22.710938 L 23.15625 19.089844 C 23.15625 18.921875 23.253906 18.765625 23.410156 18.699219 C 24.320312 18.289062 26.042969 17.449219 27.320312 16.402344 C 27.484375 16.273438 27.710938 16.273438 27.871094 16.402344 C 29.144531 17.449219 30.871094 18.289062 31.78125 18.699219 C 31.933594 18.765625 32.039062 18.921875 32.039062 19.089844 L 32.039062 22.710938 C 32.039062 25.078125 29.996094 27.238281 27.730469 27.992188 C 27.691406 28.007812 27.644531 28.011719 27.597656 28.011719 Z M 24.019531 19.371094 L 24.019531 22.710938 C 24.019531 23.605469 24.410156 24.558594 25.121094 25.398438 C 25.773438 26.175781 26.648438 26.78125 27.597656 27.125 C 28.539062 26.78125 29.414062 26.175781 30.074219 25.398438 C 30.785156 24.558594 31.171875 23.605469 31.171875 22.710938 L 31.171875 19.371094 C 30.25 18.945312 28.792969 18.207031 27.597656 17.289062 C 26.398438 18.207031 24.9375 18.945312 24.019531 19.371094 Z M 24.019531 19.371094 " fill-opacity="1" fill-rule="evenodd"/><path fill="#ffffff" d="M 26.136719 24.207031 C 25.949219 24.207031 25.78125 24.089844 25.726562 23.90625 L 25.175781 22.179688 C 25.105469 21.953125 25.226562 21.707031 25.457031 21.636719 C 25.683594 21.5625 25.929688 21.6875 26 21.917969 L 26.359375 23.050781 L 29.457031 20.59375 C 29.644531 20.445312 29.914062 20.476562 30.0625 20.660156 C 30.207031 20.847656 30.179688 21.125 29.992188 21.269531 L 26.40625 24.113281 C 26.328125 24.175781 26.234375 24.207031 26.136719 24.207031 Z M 26.136719 24.207031 " fill-opacity="1" fill-rule="evenodd"/></svg>