<svg xmlns="http://www.w3.org/2000/svg" xmlns:xlink="http://www.w3.org/1999/xlink" width="50" zoomAndPan="magnify" viewBox="0 0 37.5 37.499999" height="50" preserveAspectRatio="xMidYMid meet" version="1.0"><defs><clipPath id="7a37f3b9ca"><path d="M 0.277344 0 L 36.542969 0 L 36.542969 37.007812 L 0.277344 37.007812 Z M 0.277344 0 " clip-rule="nonzero"/></clipPath></defs><path fill="#ffffff" d="M 14.746094 6.359375 C 15.0625 6.359375 15.324219 6.101562 15.324219 5.78125 L 15.324219 5.203125 C 15.324219 4.882812 15.0625 4.625 14.746094 4.625 C 14.425781 4.625 14.167969 4.882812 14.167969 5.203125 L 14.167969 5.78125 C 14.167969 6.101562 14.425781 6.359375 14.746094 6.359375 Z M 14.746094 6.359375 " fill-opacity="1" fill-rule="nonzero"/><path fill="#ffffff" d="M 14.746094 22.550781 C 14.425781 22.550781 14.167969 22.808594 14.167969 23.128906 L 14.167969 23.707031 C 14.167969 24.027344 14.425781 24.285156 14.746094 24.285156 C 15.0625 24.285156 15.324219 24.027344 15.324219 23.707031 L 15.324219 23.128906 C 15.324219 22.808594 15.0625 22.550781 14.746094 22.550781 Z M 14.746094 22.550781 " fill-opacity="1" fill-rule="nonzero"/><path fill="#ffffff" d="M 6.070312 13.878906 L 5.492188 13.878906 C 5.171875 13.878906 4.914062 14.136719 4.914062 14.457031 C 4.914062 14.773438 5.171875 15.035156 5.492188 15.035156 L 6.070312 15.035156 C 6.390625 15.035156 6.648438 14.773438 6.648438 14.457031 C 6.648438 14.136719 6.390625 13.878906 6.070312 13.878906 Z M 6.070312 13.878906 " fill-opacity="1" fill-rule="nonzero"/><path fill="#ffffff" d="M 8.613281 7.503906 C 8.386719 7.277344 8.019531 7.277344 7.792969 7.503906 C 7.570312 7.730469 7.566406 8.097656 7.792969 8.324219 L 8.203125 8.730469 C 8.316406 8.84375 8.464844 8.902344 8.613281 8.902344 C 8.761719 8.902344 8.90625 8.84375 9.019531 8.730469 C 9.246094 8.503906 9.246094 8.140625 9.019531 7.914062 Z M 8.613281 7.503906 " fill-opacity="1" fill-rule="nonzero"/><path fill="#ffffff" d="M 8.203125 20.179688 L 7.792969 20.589844 C 7.566406 20.816406 7.566406 21.179688 7.792969 21.40625 C 7.90625 21.519531 8.054688 21.574219 8.203125 21.574219 C 8.351562 21.574219 8.5 21.519531 8.613281 21.40625 L 9.019531 20.996094 C 9.246094 20.773438 9.246094 20.40625 9.019531 20.179688 C 8.792969 19.953125 8.429688 19.953125 8.203125 20.179688 Z M 8.203125 20.179688 " fill-opacity="1" fill-rule="nonzero"/><path fill="#ffffff" d="M 20.878906 7.503906 L 20.46875 7.914062 C 20.242188 8.140625 20.242188 8.503906 20.46875 8.730469 C 20.582031 8.84375 20.730469 8.902344 20.878906 8.902344 C 21.027344 8.902344 21.171875 8.84375 21.285156 8.730469 L 21.695312 8.324219 C 21.921875 8.097656 21.921875 7.730469 21.695312 7.503906 C 21.46875 7.28125 21.105469 7.277344 20.878906 7.503906 Z M 20.878906 7.503906 " fill-opacity="1" fill-rule="nonzero"/><path fill="#ffffff" d="M 21.285156 20.179688 C 21.0625 19.953125 20.695312 19.953125 20.46875 20.179688 C 20.242188 20.40625 20.242188 20.773438 20.46875 20.996094 L 20.878906 21.40625 C 20.992188 21.519531 21.136719 21.574219 21.285156 21.574219 C 21.433594 21.574219 21.582031 21.519531 21.695312 21.40625 C 21.921875 21.179688 21.921875 20.8125 21.695312 20.589844 Z M 21.285156 20.179688 " fill-opacity="1" fill-rule="nonzero"/><path fill="#ffffff" d="M 19.371094 13.878906 L 14.984375 13.878906 L 11.105469 10 C 10.878906 9.773438 10.515625 9.773438 10.289062 10 C 10.0625 10.226562 10.0625 10.589844 10.289062 10.816406 L 14.335938 14.863281 C 14.445312 14.972656 14.589844 15.035156 14.746094 15.035156 L 19.371094 15.035156 C 19.691406 15.035156 19.949219 14.773438 19.949219 14.457031 C 19.949219 14.136719 19.691406 13.878906 19.371094 13.878906 Z M 19.371094 13.878906 " fill-opacity="1" fill-rule="nonzero"/><path fill="#ffffff" d="M 31.160156 20.769531 C 31.632812 20.769531 32.015625 20.386719 32.015625 19.914062 C 32.015625 19.441406 31.632812 19.058594 31.160156 19.058594 C 30.691406 19.058594 30.304688 19.441406 30.304688 19.914062 C 30.304688 20.386719 30.691406 20.769531 31.160156 20.769531 Z M 31.160156 19.613281 C 31.328125 19.613281 31.460938 19.746094 31.460938 19.914062 C 31.460938 20.078125 31.328125 20.214844 31.160156 20.214844 C 30.996094 20.214844 30.859375 20.078125 30.859375 19.914062 C 30.859375 19.746094 30.996094 19.613281 31.160156 19.613281 Z M 31.160156 19.613281 " fill-opacity="1" fill-rule="nonzero"/><path fill="#ffffff" d="M 28.136719 19.914062 C 28.136719 19.441406 27.753906 19.058594 27.28125 19.058594 C 26.808594 19.058594 26.425781 19.441406 26.425781 19.914062 C 26.425781 20.386719 26.808594 20.769531 27.28125 20.769531 C 27.753906 20.769531 28.136719 20.386719 28.136719 19.914062 Z M 26.980469 19.914062 C 26.980469 19.746094 27.117188 19.613281 27.28125 19.613281 C 27.449219 19.613281 27.582031 19.746094 27.582031 19.914062 C 27.582031 20.078125 27.449219 20.214844 27.28125 20.214844 C 27.117188 20.214844 26.980469 20.078125 26.980469 19.914062 Z M 26.980469 19.914062 " fill-opacity="1" fill-rule="nonzero"/><g clip-path="url(#7a37f3b9ca)"><path fill="#ffffff" d="M 34.792969 26.738281 L 31.511719 25.71875 L 31.511719 25.300781 C 32.984375 24.53125 34.023438 23.054688 34.171875 21.324219 L 34.328125 21.324219 C 34.773438 21.324219 35.195312 21.152344 35.527344 20.832031 C 35.84375 20.511719 36.019531 20.089844 36.019531 19.636719 C 36.019531 18.707031 35.261719 17.949219 34.328125 17.949219 L 34.226562 17.949219 L 34.234375 17.417969 L 34.234375 16.675781 C 34.234375 14.613281 32.617188 12.902344 30.558594 12.78125 L 29.089844 12.695312 C 28.210938 5.535156 22.007812 0 14.746094 0 C 6.773438 0 0.289062 6.484375 0.289062 14.457031 C 0.289062 22.425781 6.773438 28.910156 14.746094 28.910156 C 18.863281 28.910156 22.730469 27.179688 25.46875 24.140625 C 25.867188 24.601562 26.347656 24.988281 26.886719 25.277344 L 26.886719 25.894531 L 24.1875 26.742188 C 23.035156 27.101562 22.261719 28.152344 22.261719 29.355469 L 22.261719 36.429688 C 22.261719 36.746094 22.519531 37.007812 22.839844 37.007812 L 36.140625 37.007812 C 36.457031 37.007812 36.71875 36.746094 36.71875 36.429688 L 36.71875 29.359375 C 36.71875 28.152344 35.941406 27.097656 34.792969 26.738281 Z M 34.214844 19.105469 L 34.328125 19.105469 C 34.621094 19.105469 34.863281 19.34375 34.863281 19.636719 C 34.863281 19.78125 34.804688 19.914062 34.714844 20.007812 C 34.605469 20.113281 34.46875 20.167969 34.328125 20.167969 L 34.199219 20.167969 Z M 14.746094 27.753906 C 7.410156 27.753906 1.445312 21.789062 1.445312 14.457031 C 1.445312 7.121094 7.410156 1.15625 14.746094 1.15625 C 21.355469 1.15625 27 6.144531 27.902344 12.625 L 26.929688 12.566406 C 26.859375 12.5625 26.792969 12.566406 26.726562 12.566406 C 25.808594 6.683594 20.765625 2.3125 14.746094 2.3125 C 8.050781 2.3125 2.601562 7.761719 2.601562 14.457031 C 2.601562 21.152344 8.050781 26.597656 14.746094 26.597656 C 18.542969 26.597656 22.0625 24.847656 24.347656 21.871094 C 24.4375 22.320312 24.59375 22.75 24.796875 23.148438 C 22.269531 26.078125 18.628906 27.753906 14.746094 27.753906 Z M 23.703125 19.636719 C 23.703125 19.34375 23.9375 19.109375 24.230469 19.105469 L 24.242188 20.167969 L 24.234375 20.167969 C 23.941406 20.167969 23.703125 19.929688 23.703125 19.636719 Z M 24.726562 13.445312 C 24.15625 14.054688 23.886719 14.875 23.992188 15.703125 L 24.210938 17.453125 L 24.210938 17.953125 C 23.292969 17.964844 22.546875 18.714844 22.546875 19.636719 C 22.546875 20.289062 22.921875 20.847656 23.464844 21.128906 C 21.398438 23.84375 18.199219 25.441406 14.746094 25.441406 C 8.6875 25.441406 3.757812 20.511719 3.757812 14.457031 C 3.757812 8.398438 8.6875 3.46875 14.746094 3.46875 C 20.21875 3.46875 24.800781 7.460938 25.597656 12.820312 C 25.273438 12.96875 24.976562 13.179688 24.726562 13.445312 Z M 25.363281 17.347656 L 25.136719 15.558594 C 25.078125 15.074219 25.234375 14.59375 25.570312 14.234375 C 25.878906 13.902344 26.308594 13.71875 26.761719 13.71875 C 26.796875 13.71875 26.828125 13.71875 26.859375 13.71875 L 30.492188 13.933594 C 31.941406 14.019531 33.078125 15.222656 33.078125 16.675781 L 33.070312 17.394531 L 30.613281 17.394531 L 30.054688 16.554688 C 29.863281 16.269531 29.5625 16.089844 29.222656 16.054688 C 28.878906 16.023438 28.550781 16.140625 28.308594 16.378906 C 28.269531 16.421875 28.234375 16.46875 28.207031 16.519531 L 27.742188 17.394531 L 25.363281 17.394531 C 25.363281 17.378906 25.363281 17.363281 25.363281 17.347656 Z M 25.40625 20.886719 L 25.378906 18.550781 L 28.089844 18.550781 C 28.304688 18.550781 28.5 18.433594 28.601562 18.246094 L 29.128906 17.25 L 29.824219 18.296875 C 29.933594 18.457031 30.113281 18.550781 30.304688 18.550781 L 33.058594 18.550781 L 33.035156 20.894531 C 33.035156 22.996094 31.324219 24.707031 29.222656 24.707031 C 27.117188 24.707031 25.40625 22.996094 25.40625 20.886719 Z M 30.355469 25.726562 L 30.355469 26.40625 L 29.480469 26.992188 C 29.3125 27.105469 29.089844 27.105469 28.921875 26.992188 L 28.042969 26.40625 L 28.042969 25.714844 C 28.421875 25.808594 28.816406 25.863281 29.222656 25.863281 C 29.613281 25.863281 29.992188 25.8125 30.355469 25.726562 Z M 35.5625 35.851562 L 33.828125 35.851562 L 33.828125 31.222656 C 33.828125 30.90625 33.566406 30.644531 33.25 30.644531 C 32.929688 30.644531 32.667969 30.90625 32.667969 31.222656 L 32.667969 35.851562 L 26.308594 35.851562 L 26.308594 31.222656 C 26.308594 30.90625 26.050781 30.644531 25.730469 30.644531 C 25.410156 30.644531 25.152344 30.90625 25.152344 31.222656 L 25.152344 35.851562 L 23.417969 35.851562 L 23.417969 29.355469 C 23.417969 29.21875 23.441406 29.082031 23.476562 28.953125 L 24.804688 29.953125 C 24.910156 30.03125 25.03125 30.066406 25.152344 30.066406 C 25.328125 30.066406 25.5 29.988281 25.617188 29.835938 C 25.808594 29.582031 25.753906 29.21875 25.5 29.027344 L 24.164062 28.023438 C 24.277344 27.949219 24.398438 27.886719 24.535156 27.84375 L 27.011719 27.066406 C 27.050781 27.117188 27.09375 27.160156 27.144531 27.195312 L 28.277344 27.953125 C 28.558594 28.140625 28.878906 28.234375 29.199219 28.234375 C 29.519531 28.234375 29.84375 28.140625 30.125 27.953125 L 31.257812 27.195312 C 31.359375 27.125 31.429688 27.027344 31.472656 26.917969 L 34.445312 27.84375 C 34.496094 27.859375 34.539062 27.882812 34.585938 27.898438 L 33.414062 29.082031 C 33.191406 29.308594 33.191406 29.675781 33.417969 29.902344 C 33.53125 30.011719 33.679688 30.066406 33.828125 30.066406 C 33.976562 30.066406 34.125 30.011719 34.238281 29.894531 L 35.417969 28.703125 C 35.507812 28.90625 35.5625 29.125 35.5625 29.359375 Z M 35.5625 35.851562 " fill-opacity="1" fill-rule="nonzero"/></g><path fill="#ffffff" d="M 31.113281 22.652344 C 31.007812 22.351562 30.675781 22.191406 30.375 22.300781 C 29.082031 22.757812 28.121094 22.355469 28.070312 22.335938 C 27.777344 22.203125 27.4375 22.332031 27.304688 22.621094 C 27.175781 22.914062 27.300781 23.253906 27.59375 23.386719 C 27.628906 23.40625 28.230469 23.671875 29.140625 23.671875 C 29.609375 23.671875 30.164062 23.601562 30.761719 23.390625 C 31.0625 23.28125 31.21875 22.953125 31.113281 22.652344 Z M 31.113281 22.652344 " fill-opacity="1" fill-rule="nonzero"/></svg>