<svg xmlns="http://www.w3.org/2000/svg" xmlns:xlink="http://www.w3.org/1999/xlink" width="50" zoomAndPan="magnify" viewBox="0 0 37.5 37.499999" height="50" preserveAspectRatio="xMidYMid meet" version="1.0"><defs><clipPath id="57c806af6f"><path d="M 2 14 L 37 14 L 37 35.15625 L 2 35.15625 Z M 2 14 " clip-rule="nonzero"/></clipPath><clipPath id="5b35acee32"><path d="M 4 1.851562 L 8 1.851562 L 8 10 L 4 10 Z M 4 1.851562 " clip-rule="nonzero"/></clipPath><clipPath id="50fee8512d"><path d="M 0.179688 14 L 14 14 L 14 30 L 0.179688 30 Z M 0.179688 14 " clip-rule="nonzero"/></clipPath><clipPath id="d7942ccb45"><path d="M 7 1.851562 L 21 1.851562 L 21 19 L 7 19 Z M 7 1.851562 " clip-rule="nonzero"/></clipPath></defs><g clip-path="url(#57c806af6f)"><path fill="#ffffff" d="M 19.097656 14.253906 C 18.1875 15.054688 17.097656 15.644531 15.890625 15.957031 L 15.890625 32.539062 L 3.484375 32.539062 C 2.761719 32.539062 2.175781 33.125 2.175781 33.847656 C 2.175781 34.566406 2.761719 35.152344 3.484375 35.152344 L 35.480469 35.152344 C 36.203125 35.152344 36.789062 34.566406 36.789062 33.847656 L 36.789062 14.253906 Z M 20.460938 22.746094 C 20.460938 19.5 23.09375 16.867188 26.339844 16.867188 C 29.585938 16.867188 32.21875 19.5 32.21875 22.746094 C 32.21875 25.992188 29.585938 28.621094 26.339844 28.621094 C 23.09375 28.621094 20.460938 25.992188 20.460938 22.746094 Z M 33.851562 31.886719 L 31.890625 31.886719 C 31.347656 31.886719 30.910156 31.449219 30.910156 30.90625 C 30.910156 30.367188 31.351562 29.929688 31.890625 29.929688 L 33.851562 29.929688 C 34.390625 29.929688 34.828125 30.367188 34.828125 30.90625 C 34.828125 31.449219 34.390625 31.886719 33.851562 31.886719 Z M 33.851562 31.886719 " fill-opacity="1" fill-rule="nonzero"/></g><path fill="#ffffff" d="M 20.285156 12.949219 L 36.789062 12.949219 L 36.789062 8.378906 C 36.789062 7.65625 36.203125 7.070312 35.480469 7.070312 L 21.648438 7.070312 C 21.722656 7.496094 21.769531 7.929688 21.769531 8.378906 C 21.769531 10.085938 21.214844 11.660156 20.285156 12.949219 Z M 31.890625 9.03125 C 32.433594 9.03125 32.871094 9.46875 32.871094 10.011719 C 32.871094 10.550781 32.429688 10.988281 31.890625 10.988281 C 31.351562 10.988281 30.910156 10.550781 30.910156 10.011719 C 30.910156 9.46875 31.351562 9.03125 31.890625 9.03125 Z M 27.972656 9.03125 C 28.511719 9.03125 28.953125 9.46875 28.953125 10.011719 C 28.953125 10.550781 28.511719 10.988281 27.972656 10.988281 C 27.433594 10.988281 26.992188 10.550781 26.992188 10.011719 C 26.992188 9.46875 27.433594 9.03125 27.972656 9.03125 Z M 24.054688 9.03125 C 24.59375 9.03125 25.035156 9.46875 25.035156 10.011719 C 25.035156 10.550781 24.59375 10.988281 24.054688 10.988281 C 23.515625 10.988281 23.074219 10.550781 23.074219 10.011719 C 23.074219 9.46875 23.515625 9.03125 24.054688 9.03125 Z M 24.054688 9.03125 " fill-opacity="1" fill-rule="nonzero"/><g clip-path="url(#5b35acee32)"><path fill="#ffffff" d="M 5.117188 9.683594 C 4.574219 9.683594 4.136719 9.246094 4.136719 8.703125 C 4.136719 6.078125 4.136719 4.488281 5.605469 2.285156 C 5.800781 1.992188 6.09375 1.847656 6.421875 1.847656 C 6.996094 1.847656 7.402344 2.316406 7.402344 2.828125 C 7.402344 3.007812 7.351562 3.199219 7.238281 3.371094 C 6.09375 5.082031 6.09375 6.144531 6.09375 8.703125 C 6.09375 9.246094 5.65625 9.683594 5.117188 9.683594 Z M 5.117188 9.683594 " fill-opacity="1" fill-rule="nonzero"/></g><path fill="#ffffff" d="M 28.300781 26.011719 C 27.933594 26.011719 27.644531 25.710938 27.644531 25.355469 C 27.644531 25.164062 27.730469 24.96875 27.898438 24.84375 C 28.429688 24.425781 28.796875 23.867188 28.976562 23.222656 C 29.066406 22.894531 29.335938 22.742188 29.605469 22.746094 C 29.933594 22.746094 30.257812 22.980469 30.257812 23.398438 C 30.257812 23.914062 29.648438 25.136719 28.699219 25.871094 C 28.582031 25.964844 28.441406 26.011719 28.300781 26.011719 Z M 28.300781 26.011719 " fill-opacity="1" fill-rule="nonzero"/><g clip-path="url(#50fee8512d)"><path fill="#ffffff" d="M 1.128906 23.441406 L 0.21875 24.050781 L 0.21875 29.4375 L 6.699219 26.882812 C 11.46875 25.046875 12.613281 20.976562 12.613281 20.976562 C 12.613281 20.976562 13.277344 18.921875 13.277344 17.839844 C 13.277344 17.304688 12.84375 16.867188 12.304688 16.867188 C 12.089844 16.867188 11.878906 16.9375 11.710938 17.070312 C 8.089844 19.859375 7.957031 20.140625 7.304688 20.132812 C 6.566406 20.125 6.089844 19.480469 6.09375 18.824219 C 6.097656 18.652344 6.132812 18.542969 6.210938 18.375 C 6.808594 17.117188 7.402344 15.820312 7.402344 15.265625 C 7.402344 14.710938 6.984375 14.253906 6.421875 14.253906 C 6.082031 14.253906 5.726562 14.457031 5.441406 14.910156 C 4.167969 16.925781 3.03125 18.867188 2.410156 21.570312 C 2.234375 22.332031 1.78125 23.007812 1.128906 23.445312 Z M 1.128906 23.441406 " fill-opacity="1" fill-rule="nonzero"/></g><g clip-path="url(#d7942ccb45)"><path fill="#ffffff" d="M 13.929688 14.910156 C 17.539062 14.910156 20.460938 11.984375 20.460938 8.378906 C 20.460938 6.472656 19.640625 4.765625 18.339844 3.570312 L 15.34375 8.757812 L 12.515625 7.125 L 15.457031 2.035156 C 14.964844 1.917969 14.457031 1.847656 13.929688 1.847656 C 10.324219 1.847656 7.402344 4.773438 7.402344 8.378906 C 7.402344 10.304688 8.242188 12.03125 9.570312 13.226562 L 7.789062 18.117188 L 8.097656 18.230469 C 8.296875 18.078125 8.515625 17.90625 8.757812 17.71875 C 9.292969 17.292969 9.992188 16.746094 10.910156 16.035156 C 11.277344 15.753906 11.730469 15.59375 12.191406 15.570312 L 12.492188 14.746094 C 12.957031 14.851562 13.4375 14.910156 13.929688 14.910156 Z M 13.929688 14.910156 " fill-opacity="1" fill-rule="nonzero"/></g><path fill="#ffffff" d="M 23.074219 24.050781 C 22.714844 24.050781 22.421875 23.757812 22.421875 23.398438 C 22.421875 20.410156 24.453125 19.113281 25.527344 18.84375 C 25.875 18.757812 26.230469 18.96875 26.320312 19.320312 C 26.40625 19.671875 26.195312 20.023438 25.84375 20.113281 C 25.761719 20.132812 23.726562 20.707031 23.726562 23.398438 C 23.726562 23.757812 23.433594 24.050781 23.074219 24.050781 Z M 23.074219 24.050781 " fill-opacity="1" fill-rule="nonzero"/></svg>