<svg xmlns="http://www.w3.org/2000/svg" xmlns:xlink="http://www.w3.org/1999/xlink" width="50" zoomAndPan="magnify" viewBox="0 0 37.5 37.499999" height="50" preserveAspectRatio="xMidYMid meet" version="1.0"><defs><clipPath id="295377bcd3"><path d="M 0 7 L 37 7 L 37 37.007812 L 0 37.007812 Z M 0 7 " clip-rule="nonzero"/></clipPath></defs><path fill="#ffffff" d="M 20.335938 15.269531 L 21.570312 14.632812 L 21.675781 14.039062 L 20.589844 13.84375 L 20.746094 12.988281 L 22.4375 13.292969 C 22.328125 13.367188 22.25 13.484375 22.222656 13.625 L 21.707031 16.503906 C 21.675781 16.660156 21.703125 16.820312 21.777344 16.953125 L 21.125 16.835938 C 21.144531 17.058594 21.136719 17.289062 21.097656 17.519531 C 21.078125 17.609375 21.054688 17.699219 21.027344 17.789062 C 21.65625 17.894531 21.722656 17.925781 21.890625 17.925781 C 22.382812 17.925781 22.824219 17.597656 22.964844 17.121094 L 23.164062 16.984375 C 23.28125 16.902344 23.433594 16.910156 23.542969 16.996094 L 23.832031 17.226562 L 24.09375 17.433594 C 24.203125 17.519531 24.359375 17.523438 24.472656 17.445312 L 25.050781 17.046875 C 25.167969 16.96875 25.320312 16.972656 25.429688 17.058594 L 25.980469 17.496094 C 26.089844 17.585938 26.242188 17.589844 26.359375 17.511719 L 26.9375 17.113281 C 27.054688 17.03125 27.207031 17.039062 27.316406 17.125 L 27.867188 17.5625 C 27.976562 17.648438 28.132812 17.652344 28.246094 17.574219 L 28.824219 17.175781 C 28.941406 17.097656 29.09375 17.101562 29.203125 17.1875 L 29.753906 17.625 C 29.863281 17.714844 30.019531 17.71875 30.132812 17.640625 L 30.710938 17.242188 C 30.828125 17.160156 30.980469 17.167969 31.089844 17.253906 L 31.640625 17.691406 C 31.75 17.777344 31.90625 17.785156 32.019531 17.703125 L 32.597656 17.304688 C 32.714844 17.226562 32.867188 17.230469 32.976562 17.316406 L 33.539062 17.738281 C 33.65625 17.828125 33.816406 17.832031 33.9375 17.746094 L 34.292969 17.503906 C 34.367188 17.453125 34.417969 17.371094 34.433594 17.28125 L 34.691406 15.863281 C 34.738281 15.585938 34.554688 15.320312 34.277344 15.273438 C 33.929688 15.210938 23.929688 13.414062 23.605469 13.351562 C 23.550781 12.871094 23.1875 12.457031 22.6875 12.367188 C 20.046875 11.902344 20.175781 11.902344 19.996094 11.902344 C 19.464844 11.902344 18.992188 12.285156 18.894531 12.828125 L 18.578125 14.570312 L 19.136719 14.671875 C 19.597656 14.757812 20.007812 14.972656 20.335938 15.269531 Z M 20.335938 15.269531 " fill-opacity="1" fill-rule="nonzero"/><path fill="#ffffff" d="M 15.8125 1.992188 C 16.773438 3.519531 16.3125 5.535156 14.785156 6.496094 C 13.257812 7.453125 11.242188 6.992188 10.28125 5.464844 C 9.320312 3.9375 9.78125 1.921875 11.308594 0.960938 C 12.835938 0.00390625 14.855469 0.464844 15.8125 1.992188 Z M 15.8125 1.992188 " fill-opacity="1" fill-rule="nonzero"/><g clip-path="url(#295377bcd3)"><path fill="#ffffff" d="M 36.996094 21.277344 L 36.996094 18.382812 L 23.09375 18.382812 C 22.757812 18.640625 22.339844 18.792969 21.890625 18.792969 C 21.601562 18.792969 21.480469 18.742188 20.605469 18.59375 C 19.597656 19.867188 18.101562 19.445312 18.070312 19.449219 C 18.414062 19.867188 18.640625 20.382812 18.707031 20.949219 L 19.042969 23.851562 L 23.285156 28.003906 L 20.472656 30.753906 L 18.289062 30.753906 C 18.582031 30.378906 18.730469 29.894531 18.671875 29.382812 L 17.710938 21.066406 C 17.617188 20.238281 16.988281 19.570312 16.171875 19.421875 L 12.058594 18.339844 C 11.25 18.191406 10.515625 17.761719 10.253906 16.898438 C 10.199219 16.722656 10.226562 16.835938 9.558594 13.066406 L 11.050781 16.558594 C 11.253906 17.03125 11.6875 17.390625 12.214844 17.488281 L 18.40625 18.625 C 19.265625 18.785156 20.085938 18.21875 20.242188 17.363281 C 20.398438 16.511719 19.835938 15.683594 18.976562 15.527344 L 13.617188 14.539062 L 12.265625 11.378906 L 14.101562 13.746094 L 17.726562 14.414062 L 18.007812 12.855469 L 16.351562 13.65625 L 15.515625 10.363281 C 15.257812 9.347656 14.476562 8.546875 13.46875 8.265625 L 9.996094 7.289062 C 8.820312 6.964844 7.605469 7.648438 7.277344 8.824219 C 7.277344 8.824219 4.464844 18.914062 0.273438 34.808594 C 0.0117188 35.816406 0.617188 36.851562 1.628906 37.113281 C 2.640625 37.375 3.671875 36.769531 3.933594 35.757812 C 3.933594 35.757812 3.933594 35.753906 3.933594 35.753906 C 3.953125 35.691406 4.222656 34.667969 7.640625 21.71875 L 14.117188 22.890625 L 14.914062 29.816406 C 14.960938 30.21875 15.128906 30.574219 15.375 30.855469 C 15.054688 31 14.820312 31.300781 14.757812 31.660156 C 14.644531 32.335938 15.167969 32.925781 15.828125 32.925781 L 18.25 32.925781 L 15.730469 35.316406 C 15.304688 35.734375 15.296875 36.421875 15.714844 36.851562 C 16.132812 37.277344 16.820312 37.285156 17.25 36.867188 L 21.355469 32.925781 L 28.320312 32.925781 L 32.425781 36.867188 C 32.855469 37.285156 33.542969 37.28125 33.960938 36.851562 C 34.382812 36.421875 34.375 35.734375 33.945312 35.316406 L 31.425781 32.925781 L 33.816406 32.925781 C 34.402344 32.925781 34.90625 32.476562 34.933594 31.890625 C 34.960938 31.269531 34.464844 30.753906 33.847656 30.753906 L 29.207031 30.753906 L 26.390625 28.003906 L 33.269531 21.277344 Z M 23.574219 30.753906 L 24.839844 29.519531 L 26.101562 30.753906 Z M 24.839844 26.484375 L 19.511719 21.277344 L 30.164062 21.277344 Z M 24.839844 26.484375 " fill-opacity="1" fill-rule="nonzero"/></g></svg>