<svg xmlns="http://www.w3.org/2000/svg" xmlns:xlink="http://www.w3.org/1999/xlink" width="50" zoomAndPan="magnify" viewBox="0 0 37.5 37.499999" height="50" preserveAspectRatio="xMidYMid meet" version="1.0"><defs><clipPath id="143ee9a807"><path d="M 0 7 L 16 7 L 16 37.007812 L 0 37.007812 Z M 0 7 " clip-rule="nonzero"/></clipPath></defs><path fill="#ffffff" d="M 10.464844 2.640625 C 10.734375 4.296875 9.609375 5.855469 7.953125 6.125 C 6.296875 6.394531 4.734375 5.269531 4.46875 3.613281 C 4.199219 1.957031 5.324219 0.394531 6.980469 0.128906 C 7.777344 0 8.589844 0.191406 9.242188 0.660156 C 9.898438 1.132812 10.335938 1.84375 10.464844 2.640625 Z M 10.464844 2.640625 " fill-opacity="1" fill-rule="nonzero"/><path fill="#ffffff" d="M 18.71875 11.1875 C 18.554688 11.386719 18.453125 11.644531 18.453125 11.925781 L 18.453125 13.640625 L 18.546875 13.589844 C 19.242188 13.175781 19.472656 12.277344 19.0625 11.578125 C 18.96875 11.425781 18.851562 11.292969 18.71875 11.1875 Z M 18.71875 11.1875 " fill-opacity="1" fill-rule="nonzero"/><g clip-path="url(#143ee9a807)"><path fill="#ffffff" d="M 14.925781 10.59375 C 14.925781 10.589844 14.925781 10.585938 14.925781 10.585938 C 14.917969 8.679688 13.335938 7.132812 11.402344 7.132812 C 9.75 7.132812 5.21875 7.132812 3.53125 7.132812 C 1.59375 7.132812 0.0117188 8.679688 0.00390625 10.585938 L 0.00390625 21.363281 C 0.00390625 22.171875 0.660156 22.832031 1.46875 22.832031 C 2.277344 22.832031 2.933594 22.171875 2.933594 21.363281 L 2.933594 10.597656 C 2.9375 10.316406 3.222656 10.066406 3.53125 10.066406 L 3.566406 10.066406 L 3.570312 35.246094 C 3.570312 36.21875 4.355469 37.007812 5.328125 37.007812 C 6.300781 37.007812 7.085938 36.21875 7.085938 35.246094 L 7.085938 21.183594 L 7.847656 21.183594 L 7.847656 35.246094 C 7.847656 36.21875 8.636719 37.007812 9.605469 37.007812 C 10.578125 37.007812 11.375 36.21875 11.375 35.246094 C 11.375 35.234375 11.375 10.074219 11.375 10.066406 C 11.679688 10.066406 11.992188 10.320312 11.996094 10.597656 L 11.996094 14.890625 C 11.996094 16.03125 13.234375 16.726562 14.207031 16.152344 L 15.847656 15.183594 L 15.847656 11.925781 C 15.847656 11.875 15.847656 11.824219 15.851562 11.773438 L 14.925781 12.320312 Z M 14.925781 10.59375 " fill-opacity="1" fill-rule="nonzero"/></g><path fill="#ffffff" d="M 36.355469 17.496094 L 28.644531 12.625 C 28.296875 12.402344 27.855469 12.402344 27.511719 12.625 L 19.800781 17.496094 C 19.304688 17.808594 19.15625 18.464844 19.46875 18.960938 C 19.671875 19.277344 20.015625 19.453125 20.367188 19.453125 L 20.367188 25.066406 L 19.628906 25.066406 C 18.582031 25.066406 17.730469 24.214844 17.730469 23.167969 C 17.730469 21.457031 17.730469 13.625 17.730469 11.925781 C 17.730469 10.878906 18.582031 10.027344 19.628906 10.027344 L 20.472656 10.027344 C 20.707031 10.628906 21.289062 11.054688 21.972656 11.054688 L 23.699219 11.054688 C 23.699219 11.296875 23.894531 11.492188 24.132812 11.492188 C 24.375 11.492188 24.566406 11.296875 24.566406 11.054688 L 24.566406 10.734375 L 25.621094 10.734375 C 25.859375 10.734375 26.054688 10.539062 26.054688 10.300781 C 26.054688 10.0625 25.859375 9.867188 25.621094 9.867188 L 24.566406 9.867188 L 24.566406 9.03125 L 25.621094 9.03125 C 25.859375 9.03125 26.054688 8.835938 26.054688 8.597656 C 26.054688 8.355469 25.859375 8.160156 25.621094 8.160156 L 24.566406 8.160156 L 24.566406 7.839844 C 24.566406 7.601562 24.375 7.40625 24.132812 7.40625 C 23.894531 7.40625 23.699219 7.601562 23.699219 7.839844 L 21.972656 7.839844 C 21.289062 7.839844 20.707031 8.269531 20.472656 8.871094 L 19.628906 8.871094 C 17.941406 8.871094 16.570312 10.242188 16.570312 11.925781 L 16.570312 23.167969 C 16.570312 24.855469 17.941406 26.226562 19.628906 26.226562 L 20.367188 26.226562 L 20.367188 29.578125 L 26.019531 29.578125 L 26.019531 24.316406 C 26.019531 24.011719 26.265625 23.765625 26.574219 23.765625 L 29.582031 23.765625 C 29.886719 23.765625 30.136719 24.011719 30.136719 24.316406 L 30.136719 29.578125 L 35.789062 29.578125 L 35.789062 19.453125 C 36.140625 19.453125 36.484375 19.277344 36.6875 18.960938 C 37 18.464844 36.851562 17.808594 36.355469 17.496094 Z M 36.355469 17.496094 " fill-opacity="1" fill-rule="nonzero"/></svg>