<svg xmlns="http://www.w3.org/2000/svg" xmlns:xlink="http://www.w3.org/1999/xlink" width="50" zoomAndPan="magnify" viewBox="0 0 37.5 37.499999" height="50" preserveAspectRatio="xMidYMid meet" version="1.0"><path fill="#00e220" d="M 13.996094 6.804688 L 13.96875 6.734375 C 13.828125 6.785156 13.683594 6.839844 13.542969 6.898438 L 13.570312 6.96875 C 13.707031 6.910156 13.847656 6.855469 13.996094 6.804688 Z M 13.996094 6.804688 " fill-opacity="1" fill-rule="nonzero"/><path fill="#00e220" d="M 14.863281 6.519531 L 14.84375 6.449219 C 14.695312 6.488281 14.546875 6.535156 14.398438 6.582031 L 14.421875 6.65625 C 14.570312 6.609375 14.71875 6.5625 14.863281 6.519531 Z M 14.863281 6.519531 " fill-opacity="1" fill-rule="nonzero"/><path fill="#00e220" d="M 12.324219 7.550781 L 12.289062 7.484375 C 12.15625 7.558594 12.019531 7.632812 11.890625 7.710938 L 11.925781 7.777344 C 12.058594 7.699219 12.191406 7.621094 12.324219 7.550781 Z M 12.324219 7.550781 " fill-opacity="1" fill-rule="nonzero"/><path fill="#00e220" d="M 13.144531 7.148438 L 13.113281 7.078125 C 12.976562 7.140625 12.835938 7.207031 12.699219 7.273438 L 12.730469 7.339844 C 12.867188 7.273438 13.007812 7.210938 13.144531 7.148438 Z M 13.144531 7.148438 " fill-opacity="1" fill-rule="nonzero"/><path fill="#00e220" d="M 18.46875 5.957031 L 18.46875 5.882812 C 18.316406 5.890625 18.160156 5.898438 18.007812 5.90625 L 18.015625 5.980469 C 18.164062 5.972656 18.316406 5.964844 18.46875 5.957031 Z M 18.46875 5.957031 " fill-opacity="1" fill-rule="nonzero"/><path fill="#00e220" d="M 17.558594 6.019531 L 17.546875 5.945312 C 17.398438 5.957031 17.242188 5.976562 17.09375 5.996094 L 17.101562 6.066406 C 17.25 6.050781 17.40625 6.035156 17.558594 6.019531 Z M 17.558594 6.019531 " fill-opacity="1" fill-rule="nonzero"/><path fill="#00e220" d="M 15.75 6.296875 L 15.734375 6.222656 C 15.585938 6.257812 15.433594 6.292969 15.285156 6.328125 L 15.304688 6.402344 C 15.449219 6.367188 15.601562 6.332031 15.75 6.296875 Z M 15.75 6.296875 " fill-opacity="1" fill-rule="nonzero"/><path fill="#00e220" d="M 16.648438 6.132812 L 16.636719 6.058594 C 16.488281 6.082031 16.332031 6.105469 16.183594 6.132812 L 16.195312 6.207031 C 16.347656 6.179688 16.5 6.15625 16.648438 6.132812 Z M 16.648438 6.132812 " fill-opacity="1" fill-rule="nonzero"/><path fill="#00e220" d="M 9.425781 9.757812 L 9.371094 9.707031 C 9.265625 9.816406 9.160156 9.925781 9.058594 10.042969 L 9.113281 10.09375 C 9.214844 9.980469 9.320312 9.867188 9.425781 9.757812 Z M 9.425781 9.757812 " fill-opacity="1" fill-rule="nonzero"/><path fill="#00e220" d="M 7.777344 11.941406 L 7.710938 11.902344 C 7.640625 12.035156 7.558594 12.171875 7.492188 12.304688 L 7.558594 12.339844 C 7.625 12.207031 7.699219 12.070312 7.777344 11.941406 Z M 7.777344 11.941406 " fill-opacity="1" fill-rule="nonzero"/><path fill="#00e220" d="M 7.082031 13.132812 L 7.148438 13.160156 C 7.210938 13.023438 7.277344 12.882812 7.34375 12.746094 L 7.277344 12.714844 C 7.210938 12.851562 7.144531 12.992188 7.082031 13.132812 Z M 7.082031 13.132812 " fill-opacity="1" fill-rule="nonzero"/><path fill="#00e220" d="M 6.738281 13.984375 L 6.808594 14.011719 C 6.859375 13.867188 6.914062 13.722656 6.972656 13.582031 L 6.902344 13.554688 C 6.84375 13.695312 6.789062 13.839844 6.738281 13.984375 Z M 6.738281 13.984375 " fill-opacity="1" fill-rule="nonzero"/><path fill="#00e220" d="M 8.269531 11.171875 L 8.207031 11.128906 C 8.121094 11.253906 8.035156 11.382812 7.953125 11.511719 L 8.015625 11.550781 C 8.097656 11.425781 8.183594 11.296875 8.269531 11.171875 Z M 8.269531 11.171875 " fill-opacity="1" fill-rule="nonzero"/><path fill="#00e220" d="M 8.820312 10.441406 L 8.761719 10.394531 C 8.664062 10.511719 8.570312 10.636719 8.476562 10.757812 L 8.535156 10.800781 C 8.628906 10.679688 8.722656 10.558594 8.820312 10.441406 Z M 8.820312 10.441406 " fill-opacity="1" fill-rule="nonzero"/><path fill="#00e220" d="M 11.539062 8.015625 L 11.5 7.953125 C 11.371094 8.039062 11.242188 8.125 11.117188 8.210938 L 11.15625 8.273438 C 11.28125 8.183594 11.414062 8.097656 11.539062 8.015625 Z M 11.539062 8.015625 " fill-opacity="1" fill-rule="nonzero"/><path fill="#00e220" d="M 10.789062 8.539062 L 10.742188 8.480469 C 10.621094 8.574219 10.5 8.667969 10.382812 8.765625 L 10.429688 8.824219 C 10.546875 8.726562 10.667969 8.632812 10.789062 8.539062 Z M 10.789062 8.539062 " fill-opacity="1" fill-rule="nonzero"/><path fill="#00e220" d="M 10.082031 9.125 L 10.035156 9.070312 C 9.921875 9.171875 9.808594 9.277344 9.695312 9.382812 L 9.75 9.4375 C 9.855469 9.328125 9.96875 9.222656 10.082031 9.125 Z M 10.082031 9.125 " fill-opacity="1" fill-rule="nonzero"/><path fill="#00e220" d="M 29.675781 12.714844 C 29.609375 12.582031 29.535156 12.445312 29.457031 12.3125 L 29.390625 12.347656 C 29.464844 12.480469 29.539062 12.617188 29.609375 12.75 Z M 29.675781 12.714844 " fill-opacity="1" fill-rule="nonzero"/><path fill="#00e220" d="M 28.71875 11.148438 C 28.628906 11.023438 28.535156 10.902344 28.441406 10.78125 L 28.386719 10.824219 C 28.476562 10.945312 28.570312 11.066406 28.65625 11.195312 Z M 28.71875 11.148438 " fill-opacity="1" fill-rule="nonzero"/><path fill="#00e220" d="M 26.878906 9.097656 C 26.765625 8.996094 26.648438 8.890625 26.53125 8.796875 L 26.484375 8.851562 C 26.601562 8.949219 26.714844 9.050781 26.828125 9.148438 Z M 26.878906 9.097656 " fill-opacity="1" fill-rule="nonzero"/><path fill="#00e220" d="M 27.488281 9.789062 L 27.542969 9.738281 C 27.433594 9.628906 27.324219 9.515625 27.214844 9.414062 L 27.164062 9.464844 C 27.273438 9.566406 27.382812 9.679688 27.488281 9.789062 Z M 27.488281 9.789062 " fill-opacity="1" fill-rule="nonzero"/><path fill="#00e220" d="M 29.226562 11.914062 C 29.148438 11.785156 29.0625 11.65625 28.980469 11.527344 L 28.917969 11.566406 C 29.003906 11.695312 29.085938 11.824219 29.164062 11.953125 Z M 29.226562 11.914062 " fill-opacity="1" fill-rule="nonzero"/><path fill="#00e220" d="M 28.097656 10.46875 L 28.152344 10.421875 C 28.054688 10.304688 27.953125 10.1875 27.851562 10.074219 L 27.796875 10.121094 C 27.902344 10.230469 28 10.351562 28.097656 10.46875 Z M 28.097656 10.46875 " fill-opacity="1" fill-rule="nonzero"/><path fill="#00e220" d="M 30.398438 14.40625 C 30.347656 14.257812 30.296875 14.117188 30.238281 13.972656 L 30.171875 14 C 30.226562 14.140625 30.277344 14.289062 30.328125 14.429688 Z M 30.398438 14.40625 " fill-opacity="1" fill-rule="nonzero"/><path fill="#00e220" d="M 6.476562 14.792969 L 6.550781 14.792969 C 6.585938 14.675781 6.621094 14.558594 6.65625 14.445312 L 6.585938 14.421875 C 6.550781 14.542969 6.511719 14.667969 6.476562 14.792969 Z M 6.476562 14.792969 " fill-opacity="1" fill-rule="nonzero"/><path fill="#00e220" d="M 30.070312 13.546875 C 30.007812 13.40625 29.945312 13.265625 29.878906 13.128906 L 29.8125 13.160156 C 29.878906 13.296875 29.941406 13.4375 30 13.578125 Z M 30.070312 13.546875 " fill-opacity="1" fill-rule="nonzero"/><path fill="#00e220" d="M 25.421875 7.96875 C 25.296875 7.886719 25.164062 7.800781 25.035156 7.722656 L 24.996094 7.785156 C 25.125 7.863281 25.253906 7.949219 25.382812 8.03125 Z M 25.421875 7.96875 " fill-opacity="1" fill-rule="nonzero"/><path fill="#00e220" d="M 22.96875 6.707031 C 22.820312 6.652344 22.679688 6.601562 22.535156 6.550781 L 22.511719 6.625 C 22.65625 6.671875 22.800781 6.722656 22.941406 6.777344 Z M 22.96875 6.707031 " fill-opacity="1" fill-rule="nonzero"/><path fill="#00e220" d="M 21.207031 6.179688 C 21.058594 6.144531 20.90625 6.113281 20.753906 6.085938 L 20.742188 6.160156 C 20.890625 6.1875 21.042969 6.21875 21.191406 6.25 Z M 21.207031 6.179688 " fill-opacity="1" fill-rule="nonzero"/><path fill="#00e220" d="M 22.097656 6.410156 C 21.949219 6.367188 21.800781 6.324219 21.652344 6.285156 L 21.636719 6.359375 C 21.78125 6.398438 21.929688 6.4375 22.078125 6.484375 Z M 22.097656 6.410156 " fill-opacity="1" fill-rule="nonzero"/><path fill="#00e220" d="M 20.300781 6.011719 C 20.148438 5.992188 19.996094 5.972656 19.84375 5.957031 L 19.835938 6.03125 C 19.988281 6.046875 20.140625 6.066406 20.292969 6.085938 Z M 20.300781 6.011719 " fill-opacity="1" fill-rule="nonzero"/><path fill="#00e220" d="M 23.816406 7.066406 C 23.675781 7.003906 23.535156 6.9375 23.394531 6.878906 L 23.363281 6.949219 C 23.503906 7.007812 23.644531 7.070312 23.78125 7.132812 Z M 23.816406 7.066406 " fill-opacity="1" fill-rule="nonzero"/><path fill="#00e220" d="M 19.386719 5.914062 C 19.234375 5.902344 19.078125 5.894531 18.925781 5.890625 L 18.925781 5.964844 C 19.078125 5.96875 19.230469 5.976562 19.382812 5.988281 Z M 19.386719 5.914062 " fill-opacity="1" fill-rule="nonzero"/><path fill="#00e220" d="M 24.636719 7.488281 C 24.503906 7.414062 24.367188 7.339844 24.230469 7.269531 L 24.195312 7.332031 C 24.332031 7.40625 24.46875 7.476562 24.601562 7.554688 Z M 24.636719 7.488281 " fill-opacity="1" fill-rule="nonzero"/><path fill="#00e220" d="M 26.171875 8.507812 C 26.050781 8.414062 25.925781 8.320312 25.800781 8.230469 L 25.757812 8.292969 C 25.882812 8.378906 26.007812 8.472656 26.128906 8.566406 Z M 26.171875 8.507812 " fill-opacity="1" fill-rule="nonzero"/><path fill="#00e220" d="M 18.488281 31.042969 L 18.488281 31.117188 C 18.640625 31.117188 18.792969 31.117188 18.945312 31.105469 L 18.945312 31.03125 C 18.792969 31.039062 18.640625 31.042969 18.488281 31.042969 Z M 18.488281 31.042969 " fill-opacity="1" fill-rule="nonzero"/><path fill="#00e220" d="M 23.796875 29.859375 L 23.828125 29.925781 C 23.96875 29.859375 24.105469 29.792969 24.242188 29.722656 L 24.207031 29.65625 C 24.074219 29.726562 23.933594 29.792969 23.796875 29.859375 Z M 23.796875 29.859375 " fill-opacity="1" fill-rule="nonzero"/><path fill="#00e220" d="M 24.609375 29.441406 L 24.644531 29.503906 C 24.777344 29.429688 24.910156 29.351562 25.039062 29.273438 L 25 29.207031 C 24.871094 29.289062 24.742188 29.367188 24.609375 29.441406 Z M 24.609375 29.441406 " fill-opacity="1" fill-rule="nonzero"/><path fill="#00e220" d="M 25.386719 28.964844 L 25.429688 29.023438 C 25.554688 28.941406 25.683594 28.851562 25.804688 28.765625 L 25.761719 28.703125 C 25.640625 28.792969 25.511719 28.878906 25.386719 28.964844 Z M 25.386719 28.964844 " fill-opacity="1" fill-rule="nonzero"/><path fill="#00e220" d="M 19.402344 31.007812 L 19.40625 31.082031 C 19.558594 31.070312 19.710938 31.058594 19.863281 31.039062 L 19.855469 30.964844 C 19.707031 30.984375 19.550781 30.996094 19.402344 31.007812 Z M 19.402344 31.007812 " fill-opacity="1" fill-rule="nonzero"/><path fill="#00e220" d="M 21.207031 30.742188 L 21.226562 30.816406 C 21.371094 30.785156 21.523438 30.746094 21.671875 30.707031 L 21.652344 30.636719 C 21.507812 30.675781 21.355469 30.710938 21.207031 30.742188 Z M 21.207031 30.742188 " fill-opacity="1" fill-rule="nonzero"/><path fill="#00e220" d="M 20.308594 30.910156 L 20.320312 30.984375 C 20.46875 30.960938 20.625 30.9375 20.773438 30.910156 L 20.761719 30.835938 C 20.609375 30.863281 20.460938 30.886719 20.308594 30.910156 Z M 20.308594 30.910156 " fill-opacity="1" fill-rule="nonzero"/><path fill="#00e220" d="M 22.09375 30.511719 L 22.113281 30.585938 C 22.261719 30.542969 22.410156 30.496094 22.550781 30.445312 L 22.527344 30.375 C 22.386719 30.421875 22.238281 30.46875 22.09375 30.511719 Z M 22.09375 30.511719 " fill-opacity="1" fill-rule="nonzero"/><path fill="#00e220" d="M 26.128906 28.429688 L 26.175781 28.488281 C 26.296875 28.394531 26.417969 28.296875 26.535156 28.203125 L 26.484375 28.144531 C 26.371094 28.242188 26.25 28.335938 26.128906 28.429688 Z M 26.128906 28.429688 " fill-opacity="1" fill-rule="nonzero"/><path fill="#00e220" d="M 22.957031 30.214844 L 22.984375 30.285156 C 23.128906 30.230469 23.269531 30.171875 23.410156 30.113281 L 23.382812 30.046875 C 23.242188 30.105469 23.097656 30.164062 22.957031 30.214844 Z M 22.957031 30.214844 " fill-opacity="1" fill-rule="nonzero"/><path fill="#00e220" d="M 6.59375 22.585938 C 6.640625 22.730469 6.691406 22.878906 6.742188 23.019531 L 6.808594 22.996094 C 6.757812 22.851562 6.707031 22.707031 6.664062 22.5625 Z M 6.59375 22.585938 " fill-opacity="1" fill-rule="nonzero"/><path fill="#00e220" d="M 30.007812 23.40625 L 30.074219 23.4375 C 30.132812 23.296875 30.191406 23.152344 30.246094 23.007812 L 30.179688 22.980469 C 30.125 23.125 30.066406 23.269531 30.007812 23.40625 Z M 30.007812 23.40625 " fill-opacity="1" fill-rule="nonzero"/><path fill="#00e220" d="M 26.832031 27.84375 L 26.882812 27.898438 C 26.996094 27.796875 27.109375 27.691406 27.21875 27.585938 L 27.167969 27.53125 C 27.058594 27.636719 26.945312 27.742188 26.832031 27.84375 Z M 26.832031 27.84375 " fill-opacity="1" fill-rule="nonzero"/><path fill="#00e220" d="M 29.167969 25.039062 L 29.230469 25.078125 C 29.3125 24.945312 29.390625 24.8125 29.464844 24.679688 L 29.398438 24.640625 C 29.324219 24.773438 29.246094 24.90625 29.167969 25.039062 Z M 29.167969 25.039062 " fill-opacity="1" fill-rule="nonzero"/><path fill="#00e220" d="M 28.660156 25.800781 L 28.722656 25.84375 C 28.8125 25.722656 28.898438 25.59375 28.984375 25.464844 L 28.921875 25.425781 C 28.835938 25.550781 28.75 25.679688 28.660156 25.800781 Z M 28.660156 25.800781 " fill-opacity="1" fill-rule="nonzero"/><path fill="#00e220" d="M 27.492188 27.210938 L 27.542969 27.261719 C 27.648438 27.152344 27.753906 27.039062 27.855469 26.925781 L 27.800781 26.875 C 27.703125 26.988281 27.597656 27.101562 27.492188 27.210938 Z M 27.492188 27.210938 " fill-opacity="1" fill-rule="nonzero"/><path fill="#00e220" d="M 28.101562 26.527344 L 28.15625 26.574219 C 28.253906 26.457031 28.351562 26.335938 28.445312 26.214844 L 28.386719 26.167969 C 28.296875 26.289062 28.199219 26.410156 28.101562 26.527344 Z M 28.101562 26.527344 " fill-opacity="1" fill-rule="nonzero"/><path fill="#00e220" d="M 29.617188 24.238281 L 29.683594 24.273438 C 29.753906 24.136719 29.820312 23.996094 29.886719 23.859375 L 29.820312 23.828125 C 29.753906 23.960938 29.6875 24.101562 29.617188 24.238281 Z M 29.617188 24.238281 " fill-opacity="1" fill-rule="nonzero"/><path fill="#00e220" d="M 9.4375 27.253906 L 9.386719 27.304688 C 9.492188 27.417969 9.601562 27.527344 9.710938 27.632812 L 9.761719 27.578125 C 9.652344 27.472656 9.542969 27.367188 9.4375 27.253906 Z M 9.4375 27.253906 " fill-opacity="1" fill-rule="nonzero"/><path fill="#00e220" d="M 8.773438 26.621094 C 8.871094 26.738281 8.972656 26.855469 9.070312 26.96875 L 9.125 26.921875 C 9.023438 26.808594 8.925781 26.691406 8.828125 26.574219 Z M 8.773438 26.621094 " fill-opacity="1" fill-rule="nonzero"/><path fill="#00e220" d="M 8.21875 25.882812 C 8.304688 26.007812 8.394531 26.132812 8.488281 26.253906 L 8.546875 26.210938 C 8.457031 26.089844 8.367188 25.964844 8.277344 25.839844 Z M 8.21875 25.882812 " fill-opacity="1" fill-rule="nonzero"/><path fill="#00e220" d="M 17.570312 31.054688 C 17.71875 31.070312 17.875 31.082031 18.027344 31.089844 L 18.03125 31.015625 C 17.878906 31.007812 17.726562 30.996094 17.574219 30.980469 Z M 17.570312 31.054688 " fill-opacity="1" fill-rule="nonzero"/><path fill="#00e220" d="M 6.910156 23.449219 C 6.96875 23.59375 7.027344 23.734375 7.089844 23.875 L 7.15625 23.84375 C 7.09375 23.707031 7.035156 23.566406 6.976562 23.421875 Z M 6.910156 23.449219 " fill-opacity="1" fill-rule="nonzero"/><path fill="#00e220" d="M 10.757812 28.53125 C 10.878906 28.621094 11.007812 28.710938 11.132812 28.800781 L 11.171875 28.738281 C 11.046875 28.652344 10.925781 28.5625 10.804688 28.46875 Z M 10.757812 28.53125 " fill-opacity="1" fill-rule="nonzero"/><path fill="#00e220" d="M 7.722656 25.105469 C 7.800781 25.238281 7.878906 25.367188 7.964844 25.496094 L 8.023438 25.457031 C 7.945312 25.328125 7.863281 25.199219 7.785156 25.066406 Z M 7.722656 25.105469 " fill-opacity="1" fill-rule="nonzero"/><path fill="#00e220" d="M 7.277344 24.292969 C 7.347656 24.429688 7.417969 24.566406 7.488281 24.703125 L 7.554688 24.667969 C 7.480469 24.535156 7.414062 24.398438 7.347656 24.261719 Z M 7.277344 24.292969 " fill-opacity="1" fill-rule="nonzero"/><path fill="#00e220" d="M 10.046875 27.949219 C 10.164062 28.050781 10.277344 28.152344 10.398438 28.246094 L 10.445312 28.191406 C 10.328125 28.09375 10.210938 27.996094 10.097656 27.894531 Z M 10.046875 27.949219 " fill-opacity="1" fill-rule="nonzero"/><path fill="#00e220" d="M 11.511719 29.054688 C 11.640625 29.140625 11.773438 29.21875 11.90625 29.296875 L 11.945312 29.234375 C 11.8125 29.160156 11.679688 29.074219 11.554688 28.992188 Z M 11.511719 29.054688 " fill-opacity="1" fill-rule="nonzero"/><path fill="#00e220" d="M 16.652344 30.941406 C 16.800781 30.964844 16.957031 30.988281 17.109375 31.003906 L 17.117188 30.933594 C 16.96875 30.914062 16.8125 30.894531 16.664062 30.871094 Z M 16.652344 30.941406 " fill-opacity="1" fill-rule="nonzero"/><path fill="#00e220" d="M 14.859375 30.554688 C 15.007812 30.59375 15.15625 30.632812 15.304688 30.671875 L 15.320312 30.597656 C 15.175781 30.5625 15.027344 30.523438 14.878906 30.480469 Z M 14.859375 30.554688 " fill-opacity="1" fill-rule="nonzero"/><path fill="#00e220" d="M 15.753906 30.777344 C 15.898438 30.808594 16.050781 30.839844 16.203125 30.867188 L 16.21875 30.792969 C 16.070312 30.765625 15.914062 30.734375 15.769531 30.703125 Z M 15.753906 30.777344 " fill-opacity="1" fill-rule="nonzero"/><path fill="#00e220" d="M 12.308594 29.523438 C 12.441406 29.59375 12.578125 29.664062 12.714844 29.730469 L 12.75 29.664062 C 12.613281 29.597656 12.472656 29.527344 12.339844 29.457031 Z M 12.308594 29.523438 " fill-opacity="1" fill-rule="nonzero"/><path fill="#00e220" d="M 13.132812 29.925781 C 13.273438 29.988281 13.414062 30.050781 13.554688 30.105469 L 13.582031 30.039062 C 13.441406 29.980469 13.300781 29.921875 13.164062 29.859375 Z M 13.132812 29.925781 " fill-opacity="1" fill-rule="nonzero"/><path fill="#00e220" d="M 13.984375 30.269531 C 14.128906 30.320312 14.277344 30.371094 14.421875 30.417969 L 14.445312 30.34375 C 14.296875 30.296875 14.152344 30.246094 14.011719 30.195312 Z M 13.984375 30.269531 " fill-opacity="1" fill-rule="nonzero"/><path fill="#00e220" d="M 31.742188 25.636719 C 32.234375 24.71875 32.628906 23.757812 32.921875 22.757812 L 32.746094 22.707031 C 32.164062 24.695312 31.207031 26.480469 29.875 28.066406 L 30.015625 28.183594 C 30.679688 27.394531 31.253906 26.546875 31.742188 25.636719 Z M 31.742188 25.636719 " fill-opacity="1" fill-rule="nonzero"/><path fill="#00e220" d="M 32.910156 14.195312 C 32.316406 12.203125 31.351562 10.410156 30.015625 8.816406 L 29.875 8.9375 C 31.199219 10.507812 32.148438 12.28125 32.734375 14.25 Z M 32.910156 14.195312 " fill-opacity="1" fill-rule="nonzero"/><path fill="#00e220" d="M 3.882812 22.757812 C 4.472656 24.769531 5.441406 26.574219 6.789062 28.179688 L 6.933594 28.0625 C 5.597656 26.480469 4.640625 24.695312 4.058594 22.707031 Z M 3.882812 22.757812 " fill-opacity="1" fill-rule="nonzero"/><path fill="#00e220" d="M 5.074219 11.339844 C 4.582031 12.25 4.1875 13.203125 3.894531 14.195312 L 4.070312 14.246094 C 4.652344 12.277344 5.605469 10.503906 6.929688 8.929688 L 6.789062 8.8125 C 6.132812 9.597656 5.558594 10.4375 5.074219 11.339844 Z M 5.074219 11.339844 " fill-opacity="1" fill-rule="nonzero"/><path fill="#00e220" d="M 36.382812 17.664062 C 36.222656 17.480469 36.210938 17.285156 36.347656 17.085938 L 36.734375 16.507812 C 36.800781 16.40625 36.824219 16.300781 36.808594 16.183594 C 36.796875 16.0625 36.742188 15.964844 36.65625 15.886719 L 36.136719 15.421875 C 35.957031 15.261719 35.921875 15.070312 36.03125 14.855469 L 36.339844 14.234375 C 36.394531 14.125 36.40625 14.015625 36.375 13.902344 C 36.347656 13.785156 36.285156 13.695312 36.1875 13.628906 L 35.613281 13.234375 C 35.414062 13.09375 35.355469 12.910156 35.4375 12.683594 L 35.667969 12.027344 C 35.707031 11.914062 35.703125 11.804688 35.660156 11.691406 C 35.617188 11.582031 35.542969 11.5 35.4375 11.445312 L 34.820312 11.125 C 34.605469 11.011719 34.523438 10.839844 34.574219 10.601562 L 34.722656 9.921875 C 34.746094 9.804688 34.730469 9.695312 34.675781 9.589844 C 34.617188 9.488281 34.535156 9.414062 34.421875 9.375 L 33.769531 9.132812 C 33.542969 9.050781 33.4375 8.886719 33.460938 8.644531 L 33.519531 7.953125 C 33.53125 7.835938 33.5 7.726562 33.433594 7.628906 C 33.363281 7.535156 33.269531 7.472656 33.152344 7.445312 L 32.476562 7.289062 C 32.242188 7.234375 32.117188 7.089844 32.105469 6.847656 L 32.082031 6.148438 C 32.078125 6.03125 32.035156 5.929688 31.953125 5.84375 C 31.875 5.753906 31.773438 5.707031 31.65625 5.695312 L 30.964844 5.621094 C 30.722656 5.59375 30.582031 5.464844 30.542969 5.222656 L 30.429688 4.539062 C 30.410156 4.421875 30.355469 4.324219 30.265625 4.25 C 30.171875 4.171875 30.070312 4.136719 29.949219 4.140625 L 29.257812 4.15625 C 29.011719 4.164062 28.859375 4.050781 28.789062 3.816406 L 28.589844 3.152344 C 28.558594 3.039062 28.492188 2.949219 28.390625 2.886719 C 28.289062 2.820312 28.179688 2.800781 28.0625 2.816406 L 27.375 2.921875 C 27.136719 2.960938 26.96875 2.867188 26.871094 2.644531 L 26.589844 2.007812 C 26.542969 1.898438 26.464844 1.820312 26.359375 1.769531 C 26.253906 1.71875 26.144531 1.710938 26.03125 1.742188 L 25.359375 1.933594 C 25.128906 1.996094 24.949219 1.925781 24.824219 1.71875 L 24.464844 1.121094 C 24.40625 1.019531 24.320312 0.953125 24.207031 0.914062 C 24.09375 0.878906 23.984375 0.882812 23.875 0.929688 L 23.238281 1.199219 C 23.011719 1.296875 22.828125 1.25 22.675781 1.058594 L 22.242188 0.507812 C 22.167969 0.417969 22.074219 0.359375 21.957031 0.335938 C 21.839844 0.3125 21.730469 0.332031 21.628906 0.394531 L 21.03125 0.742188 C 20.820312 0.863281 20.628906 0.839844 20.457031 0.667969 L 19.960938 0.179688 C 19.878906 0.0976562 19.777344 0.0507812 19.65625 0.0429688 C 19.539062 0.0351562 19.433594 0.0703125 19.339844 0.140625 L 18.789062 0.5625 C 18.597656 0.710938 18.402344 0.710938 18.210938 0.5625 L 17.660156 0.140625 C 17.566406 0.0703125 17.460938 0.0351562 17.339844 0.0429688 C 17.222656 0.0507812 17.121094 0.0976562 17.039062 0.179688 L 16.542969 0.667969 C 16.371094 0.839844 16.179688 0.863281 15.96875 0.742188 L 15.371094 0.394531 C 15.265625 0.332031 15.15625 0.3125 15.042969 0.335938 C 14.925781 0.359375 14.832031 0.417969 14.757812 0.507812 L 14.328125 1.054688 C 14.179688 1.246094 13.992188 1.296875 13.769531 1.199219 L 13.128906 0.929688 C 13.019531 0.882812 12.910156 0.878906 12.796875 0.917969 C 12.6875 0.953125 12.597656 1.023438 12.539062 1.121094 L 12.179688 1.71875 C 12.054688 1.925781 11.878906 2 11.644531 1.933594 L 10.980469 1.742188 C 10.867188 1.710938 10.753906 1.71875 10.648438 1.769531 C 10.539062 1.820312 10.464844 1.898438 10.414062 2.007812 L 10.136719 2.644531 C 10.035156 2.871094 9.867188 2.964844 9.625 2.921875 L 8.9375 2.820312 C 8.820312 2.800781 8.710938 2.824219 8.609375 2.886719 C 8.511719 2.953125 8.445312 3.039062 8.410156 3.15625 L 8.210938 3.820312 C 8.144531 4.050781 7.988281 4.164062 7.746094 4.160156 L 7.050781 4.140625 C 6.933594 4.136719 6.828125 4.175781 6.734375 4.25 C 6.644531 4.328125 6.589844 4.421875 6.570312 4.539062 L 6.457031 5.226562 C 6.417969 5.464844 6.277344 5.597656 6.035156 5.621094 L 5.34375 5.695312 C 5.226562 5.707031 5.128906 5.757812 5.046875 5.84375 C 4.964844 5.929688 4.921875 6.03125 4.917969 6.148438 L 4.890625 6.84375 C 4.878906 7.085938 4.757812 7.234375 4.519531 7.289062 L 3.84375 7.445312 C 3.730469 7.46875 3.636719 7.53125 3.566406 7.628906 C 3.496094 7.722656 3.464844 7.832031 3.476562 7.949219 L 3.535156 8.640625 C 3.558594 8.882812 3.453125 9.046875 3.226562 9.132812 L 2.574219 9.371094 C 2.464844 9.410156 2.378906 9.484375 2.324219 9.589844 C 2.265625 9.691406 2.25 9.800781 2.273438 9.917969 L 2.421875 10.597656 C 2.472656 10.835938 2.390625 11.011719 2.175781 11.121094 L 1.558594 11.441406 C 1.453125 11.496094 1.378906 11.578125 1.335938 11.691406 C 1.292969 11.800781 1.289062 11.910156 1.332031 12.023438 L 1.5625 12.679688 C 1.640625 12.90625 1.582031 13.089844 1.382812 13.230469 L 0.816406 13.628906 C 0.71875 13.695312 0.652344 13.785156 0.625 13.902344 C 0.59375 14.015625 0.605469 14.125 0.660156 14.234375 L 0.972656 14.855469 C 1.078125 15.070312 1.042969 15.261719 0.863281 15.421875 L 0.34375 15.886719 C 0.257812 15.964844 0.203125 16.0625 0.191406 16.183594 C 0.175781 16.300781 0.199219 16.40625 0.265625 16.507812 L 0.652344 17.085938 C 0.785156 17.285156 0.773438 17.480469 0.617188 17.664062 L 0.160156 18.1875 C 0.0820312 18.277344 0.0429688 18.382812 0.0429688 18.5 C 0.0429688 18.617188 0.0820312 18.722656 0.160156 18.8125 L 0.617188 19.335938 C 0.773438 19.519531 0.785156 19.710938 0.652344 19.914062 L 0.265625 20.492188 C 0.199219 20.589844 0.175781 20.699219 0.1875 20.816406 C 0.203125 20.933594 0.253906 21.03125 0.34375 21.113281 L 0.859375 21.574219 C 1.042969 21.738281 1.078125 21.925781 0.96875 22.144531 L 0.660156 22.765625 C 0.605469 22.871094 0.59375 22.984375 0.625 23.097656 C 0.652344 23.214844 0.71875 23.304688 0.816406 23.371094 L 1.386719 23.765625 C 1.585938 23.90625 1.644531 24.089844 1.566406 24.316406 L 1.332031 24.972656 C 1.292969 25.085938 1.296875 25.195312 1.339844 25.304688 C 1.382812 25.417969 1.457031 25.5 1.5625 25.554688 L 2.179688 25.875 C 2.394531 25.984375 2.476562 26.160156 2.425781 26.398438 L 2.277344 27.078125 C 2.253906 27.195312 2.269531 27.304688 2.324219 27.410156 C 2.382812 27.511719 2.46875 27.585938 2.578125 27.625 L 3.230469 27.867188 C 3.457031 27.949219 3.5625 28.113281 3.539062 28.355469 L 3.480469 29.046875 C 3.46875 29.164062 3.5 29.273438 3.570312 29.371094 C 3.640625 29.464844 3.730469 29.527344 3.847656 29.554688 L 4.523438 29.710938 C 4.757812 29.761719 4.882812 29.910156 4.894531 30.152344 L 4.917969 30.851562 C 4.921875 30.96875 4.964844 31.070312 5.042969 31.15625 C 5.125 31.242188 5.226562 31.292969 5.34375 31.304688 L 6.035156 31.375 C 6.277344 31.398438 6.414062 31.53125 6.453125 31.769531 L 6.570312 32.457031 C 6.585938 32.574219 6.644531 32.671875 6.734375 32.746094 C 6.824219 32.824219 6.929688 32.859375 7.050781 32.855469 L 7.742188 32.839844 C 7.984375 32.832031 8.140625 32.945312 8.210938 33.179688 L 8.410156 33.84375 C 8.441406 33.957031 8.507812 34.046875 8.609375 34.109375 C 8.710938 34.171875 8.816406 34.195312 8.933594 34.179688 L 9.621094 34.074219 C 9.863281 34.039062 10.03125 34.128906 10.128906 34.351562 L 10.40625 34.988281 C 10.457031 35.097656 10.53125 35.179688 10.640625 35.226562 C 10.746094 35.277344 10.859375 35.289062 10.972656 35.253906 L 11.636719 35.066406 C 11.871094 35 12.046875 35.070312 12.171875 35.277344 L 12.53125 35.875 C 12.59375 35.976562 12.679688 36.046875 12.789062 36.082031 C 12.902344 36.117188 13.011719 36.113281 13.121094 36.066406 L 13.761719 35.796875 C 13.984375 35.703125 14.171875 35.75 14.320312 35.945312 L 14.75 36.492188 C 14.824219 36.585938 14.917969 36.640625 15.035156 36.664062 C 15.152344 36.6875 15.261719 36.667969 15.363281 36.609375 L 15.960938 36.257812 C 16.171875 36.136719 16.363281 36.160156 16.535156 36.332031 L 17.03125 36.820312 C 17.113281 36.902344 17.214844 36.949219 17.332031 36.957031 C 17.453125 36.964844 17.558594 36.933594 17.652344 36.859375 L 18.203125 36.4375 C 18.394531 36.289062 18.589844 36.289062 18.78125 36.4375 L 19.332031 36.859375 C 19.425781 36.933594 19.53125 36.964844 19.652344 36.957031 C 19.769531 36.949219 19.871094 36.902344 19.953125 36.820312 L 20.449219 36.332031 C 20.621094 36.160156 20.8125 36.136719 21.023438 36.257812 L 21.621094 36.609375 C 21.726562 36.667969 21.835938 36.6875 21.949219 36.664062 C 22.066406 36.640625 22.160156 36.585938 22.234375 36.492188 L 22.664062 35.945312 C 22.8125 35.75 23 35.703125 23.222656 35.796875 L 23.863281 36.066406 C 23.972656 36.113281 24.082031 36.117188 24.195312 36.082031 C 24.304688 36.046875 24.390625 35.976562 24.453125 35.875 L 24.8125 35.277344 C 24.9375 35.070312 25.113281 35 25.347656 35.066406 L 26.03125 35.257812 C 26.144531 35.289062 26.253906 35.28125 26.359375 35.230469 C 26.46875 35.179688 26.546875 35.101562 26.59375 34.992188 L 26.875 34.355469 C 26.972656 34.132812 27.140625 34.039062 27.378906 34.074219 L 28.066406 34.179688 C 28.183594 34.199219 28.292969 34.175781 28.390625 34.109375 C 28.492188 34.046875 28.558594 33.957031 28.59375 33.84375 L 28.789062 33.179688 C 28.859375 32.949219 29.015625 32.835938 29.257812 32.839844 L 29.953125 32.859375 C 30.070312 32.859375 30.175781 32.824219 30.265625 32.75 C 30.359375 32.671875 30.414062 32.578125 30.433594 32.460938 L 30.546875 31.773438 C 30.585938 31.535156 30.726562 31.402344 30.96875 31.378906 L 31.660156 31.308594 C 31.777344 31.292969 31.875 31.246094 31.957031 31.15625 C 32.035156 31.070312 32.078125 30.96875 32.082031 30.851562 L 32.109375 30.15625 C 32.121094 29.914062 32.242188 29.765625 32.476562 29.710938 L 33.15625 29.554688 C 33.269531 29.527344 33.363281 29.46875 33.433594 29.371094 C 33.503906 29.273438 33.535156 29.167969 33.523438 29.050781 L 33.464844 28.355469 C 33.441406 28.113281 33.542969 27.953125 33.773438 27.867188 L 34.425781 27.628906 C 34.535156 27.585938 34.621094 27.515625 34.675781 27.410156 C 34.734375 27.304688 34.75 27.195312 34.726562 27.082031 L 34.578125 26.402344 C 34.527344 26.164062 34.605469 25.988281 34.824219 25.878906 L 35.4375 25.558594 C 35.542969 25.503906 35.617188 25.417969 35.664062 25.308594 C 35.707031 25.199219 35.707031 25.085938 35.667969 24.976562 L 35.4375 24.320312 C 35.359375 24.089844 35.417969 23.90625 35.617188 23.769531 L 36.1875 23.375 C 36.285156 23.308594 36.347656 23.214844 36.378906 23.101562 C 36.40625 22.984375 36.394531 22.875 36.34375 22.769531 L 36.03125 22.148438 C 35.921875 21.929688 35.960938 21.742188 36.140625 21.578125 L 36.65625 21.113281 C 36.746094 21.035156 36.796875 20.9375 36.8125 20.816406 C 36.828125 20.699219 36.800781 20.589844 36.734375 20.492188 L 36.347656 19.914062 C 36.210938 19.710938 36.222656 19.519531 36.382812 19.335938 L 36.839844 18.8125 C 36.917969 18.722656 36.957031 18.617188 36.957031 18.5 C 36.957031 18.382812 36.917969 18.277344 36.839844 18.1875 Z M 18.5 1.375 C 26.671875 1.375 33.5 7.117188 35.191406 14.792969 L 34.792969 14.792969 C 34.082031 11.652344 32.585938 8.941406 30.3125 6.664062 C 29.550781 5.90625 28.726562 5.222656 27.839844 4.621094 C 26.015625 3.386719 24.023438 2.546875 21.867188 2.101562 C 19.621094 1.644531 17.378906 1.644531 15.132812 2.101562 C 12.976562 2.546875 10.984375 3.386719 9.160156 4.621094 C 7.816406 5.53125 6.628906 6.609375 5.597656 7.863281 C 4.570312 9.117188 3.738281 10.492188 3.105469 11.984375 C 2.722656 12.894531 2.421875 13.832031 2.203125 14.796875 L 1.804688 14.796875 C 3.496094 7.117188 10.328125 1.375 18.5 1.375 Z M 30.808594 13.289062 C 30.472656 12.492188 30.0625 11.734375 29.578125 11.015625 C 28.097656 8.820312 26.140625 7.203125 23.699219 6.167969 C 22.039062 5.464844 20.304688 5.113281 18.5 5.113281 C 16.695312 5.113281 14.960938 5.464844 13.300781 6.167969 C 12.382812 6.554688 11.519531 7.042969 10.710938 7.625 C 9.898438 8.207031 9.164062 8.871094 8.503906 9.617188 C 7.84375 10.363281 7.273438 11.171875 6.792969 12.046875 C 6.3125 12.921875 5.933594 13.835938 5.660156 14.792969 L 2.351562 14.792969 C 4.03125 7.417969 10.636719 1.902344 18.5 1.902344 C 26.363281 1.902344 32.96875 7.417969 34.648438 14.792969 L 31.34375 14.792969 C 31.195312 14.28125 31.015625 13.78125 30.808594 13.289062 Z M 31.144531 14.792969 L 5.855469 14.792969 C 7.457031 9.3125 12.519531 5.300781 18.5 5.300781 C 24.480469 5.300781 29.542969 9.3125 31.144531 14.792969 Z M 18.5 35.625 C 10.328125 35.625 3.496094 29.882812 1.808594 22.203125 L 2.207031 22.203125 C 2.664062 24.242188 3.480469 26.125 4.648438 27.855469 C 5.859375 29.65625 7.363281 31.160156 9.160156 32.378906 C 10.984375 33.613281 12.976562 34.453125 15.132812 34.898438 C 17.378906 35.355469 19.621094 35.355469 21.867188 34.898438 C 24.023438 34.453125 26.015625 33.613281 27.839844 32.378906 C 29.183594 31.46875 30.371094 30.386719 31.398438 29.132812 C 32.429688 27.882812 33.261719 26.507812 33.894531 25.011719 C 34.277344 24.105469 34.578125 23.167969 34.792969 22.203125 L 35.191406 22.203125 C 33.5 29.882812 26.671875 35.625 18.5 35.625 Z M 30.402344 22.574219 C 30.445312 22.453125 30.484375 22.328125 30.523438 22.203125 L 31.144531 22.203125 C 29.542969 27.6875 24.480469 31.699219 18.5 31.699219 C 12.519531 31.699219 7.457031 27.6875 5.855469 22.203125 L 30.445312 22.203125 C 30.410156 22.320312 30.371094 22.4375 30.332031 22.550781 Z M 6.191406 23.710938 C 6.527344 24.507812 6.9375 25.265625 7.421875 25.984375 C 8.902344 28.179688 10.859375 29.796875 13.300781 30.832031 C 14.960938 31.535156 16.695312 31.886719 18.5 31.886719 C 20.304688 31.886719 22.039062 31.535156 23.699219 30.832031 C 24.496094 30.496094 25.253906 30.082031 25.96875 29.597656 C 27.40625 28.625 28.609375 27.421875 29.578125 25.980469 C 30.0625 25.265625 30.472656 24.507812 30.808594 23.707031 C 31.015625 23.21875 31.191406 22.714844 31.339844 22.203125 L 34.648438 22.203125 C 32.96875 29.578125 26.363281 35.097656 18.5 35.097656 C 10.636719 35.097656 4.03125 29.578125 2.351562 22.203125 L 5.660156 22.203125 C 5.804688 22.71875 5.984375 23.21875 6.191406 23.710938 Z M 35.6875 20.738281 C 35.6875 20.875 35.660156 21.003906 35.609375 21.128906 C 35.558594 21.253906 35.484375 21.363281 35.390625 21.460938 C 35.292969 21.554688 35.183594 21.628906 35.058594 21.679688 C 34.933594 21.730469 34.804688 21.757812 34.671875 21.757812 L 2.332031 21.757812 C 2.199219 21.757812 2.066406 21.730469 1.945312 21.679688 C 1.820312 21.628906 1.710938 21.554688 1.613281 21.460938 C 1.519531 21.363281 1.445312 21.253906 1.394531 21.128906 C 1.34375 21.003906 1.316406 20.875 1.316406 20.738281 L 1.316406 16.257812 C 1.316406 16.125 1.34375 15.996094 1.394531 15.871094 C 1.445312 15.746094 1.519531 15.636719 1.613281 15.539062 C 1.710938 15.445312 1.820312 15.371094 1.945312 15.320312 C 2.066406 15.265625 2.199219 15.242188 2.332031 15.242188 L 34.671875 15.242188 C 34.808594 15.242188 34.9375 15.265625 35.0625 15.320312 C 35.1875 15.371094 35.296875 15.445312 35.390625 15.539062 C 35.488281 15.636719 35.5625 15.746094 35.613281 15.871094 C 35.664062 15.996094 35.691406 16.125 35.691406 16.257812 Z M 35.6875 20.738281 " fill-opacity="1" fill-rule="nonzero"/><path fill="#00e220" d="M 26.621094 31.449219 L 26.960938 31.265625 L 27.308594 31.4375 L 27.234375 31.058594 L 27.507812 30.78125 L 27.125 30.734375 L 26.945312 30.390625 L 26.78125 30.738281 L 26.402344 30.800781 L 26.683594 31.066406 Z M 26.621094 31.449219 " fill-opacity="1" fill-rule="nonzero"/><path fill="#00e220" d="M 28.058594 30.167969 L 28.1875 30.425781 L 28.3125 30.167969 L 28.601562 30.125 L 28.394531 29.921875 L 28.441406 29.636719 L 28.1875 29.769531 L 27.929688 29.636719 L 27.976562 29.921875 L 27.769531 30.125 Z M 28.058594 30.167969 " fill-opacity="1" fill-rule="nonzero"/><path fill="#00e220" d="M 29.097656 29.0625 L 29.195312 29.265625 L 29.296875 29.0625 L 29.519531 29.03125 L 29.355469 28.871094 L 29.394531 28.648438 L 29.195312 28.753906 L 28.996094 28.648438 L 29.035156 28.871094 L 28.871094 29.03125 Z M 29.097656 29.0625 " fill-opacity="1" fill-rule="nonzero"/><path fill="#00e220" d="M 9.570312 31.4375 L 9.917969 31.265625 L 10.253906 31.449219 L 10.195312 31.066406 L 10.476562 30.800781 L 10.097656 30.738281 L 9.933594 30.390625 L 9.753906 30.734375 L 9.371094 30.78125 L 9.644531 31.058594 Z M 9.570312 31.4375 " fill-opacity="1" fill-rule="nonzero"/><path fill="#00e220" d="M 8.566406 30.167969 L 8.691406 30.425781 L 8.820312 30.167969 L 9.109375 30.125 L 8.902344 29.921875 L 8.949219 29.636719 L 8.691406 29.769531 L 8.4375 29.636719 L 8.484375 29.921875 L 8.277344 30.125 Z M 8.566406 30.167969 " fill-opacity="1" fill-rule="nonzero"/><path fill="#00e220" d="M 7.683594 29.265625 L 7.78125 29.0625 L 8.007812 29.03125 L 7.84375 28.871094 L 7.882812 28.648438 L 7.683594 28.753906 L 7.484375 28.648438 L 7.523438 28.871094 L 7.359375 29.03125 L 7.582031 29.0625 Z M 7.683594 29.265625 " fill-opacity="1" fill-rule="nonzero"/><path fill="#00e220" d="M 10.253906 5.59375 L 9.917969 5.78125 L 9.570312 5.609375 L 9.644531 5.988281 L 9.371094 6.261719 L 9.753906 6.3125 L 9.933594 6.65625 L 10.097656 6.304688 L 10.476562 6.242188 L 10.195312 5.976562 Z M 10.253906 5.59375 " fill-opacity="1" fill-rule="nonzero"/><path fill="#00e220" d="M 8.691406 6.617188 L 8.566406 6.878906 L 8.277344 6.921875 L 8.484375 7.125 L 8.4375 7.410156 L 8.691406 7.273438 L 8.949219 7.410156 L 8.902344 7.125 L 9.109375 6.921875 L 8.820312 6.878906 Z M 8.691406 6.617188 " fill-opacity="1" fill-rule="nonzero"/><path fill="#00e220" d="M 7.78125 7.984375 L 7.683594 7.78125 L 7.582031 7.984375 L 7.359375 8.015625 L 7.523438 8.175781 L 7.484375 8.394531 L 7.683594 8.292969 L 7.882812 8.394531 L 7.84375 8.175781 L 8.007812 8.015625 Z M 7.78125 7.984375 " fill-opacity="1" fill-rule="nonzero"/><path fill="#00e220" d="M 27.214844 5.589844 L 26.871094 5.761719 L 26.53125 5.578125 L 26.589844 5.957031 L 26.308594 6.222656 L 26.6875 6.285156 L 26.855469 6.636719 L 27.03125 6.292969 L 27.414062 6.242188 L 27.144531 5.96875 Z M 27.214844 5.589844 " fill-opacity="1" fill-rule="nonzero"/><path fill="#00e220" d="M 28.222656 6.859375 L 28.09375 6.601562 L 27.964844 6.859375 L 27.679688 6.902344 L 27.886719 7.105469 L 27.835938 7.390625 L 28.09375 7.257812 L 28.351562 7.390625 L 28.300781 7.105469 L 28.507812 6.902344 Z M 28.222656 6.859375 " fill-opacity="1" fill-rule="nonzero"/><path fill="#00e220" d="M 29.203125 7.964844 L 29.101562 7.761719 L 29.003906 7.964844 L 28.78125 7.996094 L 28.941406 8.15625 L 28.902344 8.378906 L 29.101562 8.273438 L 29.304688 8.378906 L 29.265625 8.15625 L 29.425781 7.996094 Z M 29.203125 7.964844 " fill-opacity="1" fill-rule="nonzero"/><path fill="#00e220" d="M 18.5 6.601562 C 17.296875 6.601562 16.125 6.78125 14.976562 7.136719 C 13.832031 7.492188 12.761719 8.011719 11.773438 8.691406 C 10.785156 9.371094 9.917969 10.183594 9.175781 11.125 C 8.429688 12.070312 7.84375 13.101562 7.414062 14.222656 L 29.585938 14.222656 C 29.15625 13.101562 28.566406 12.070312 27.824219 11.125 C 27.082031 10.183594 26.214844 9.371094 25.226562 8.691406 C 24.234375 8.011719 23.167969 7.492188 22.019531 7.136719 C 20.875 6.78125 19.699219 6.601562 18.5 6.601562 Z M 19.328125 11.738281 L 18.480469 11.273438 L 17.613281 11.707031 L 17.792969 10.757812 L 17.113281 10.070312 L 18.074219 9.945312 L 18.515625 9.085938 L 18.929688 9.960938 L 19.882812 10.117188 L 19.179688 10.78125 Z M 19.328125 11.738281 " fill-opacity="1" fill-rule="nonzero"/><path fill="#00e220" d="M 18.5 30.398438 C 19.703125 30.398438 20.878906 30.21875 22.027344 29.859375 C 23.179688 29.5 24.25 28.980469 25.238281 28.296875 C 26.230469 27.613281 27.097656 26.796875 27.839844 25.851562 C 28.585938 24.90625 29.171875 23.867188 29.597656 22.742188 L 7.402344 22.742188 C 7.828125 23.867188 8.414062 24.90625 9.15625 25.851562 C 9.902344 26.796875 10.769531 27.613281 11.757812 28.296875 C 12.75 28.980469 13.820312 29.5 14.96875 29.859375 C 16.121094 30.21875 17.296875 30.398438 18.5 30.398438 Z M 18.074219 26.101562 L 18.515625 25.242188 L 18.929688 26.117188 L 19.882812 26.273438 L 19.179688 26.9375 L 19.328125 27.898438 L 18.480469 27.433594 L 17.613281 27.867188 L 17.796875 26.914062 L 17.117188 26.226562 Z M 18.074219 26.101562 " fill-opacity="1" fill-rule="nonzero"/><path fill="#00e220" d="M 14.824219 32.59375 L 14.90625 32.316406 L 13.789062 31.972656 L 13.335938 33.457031 L 14.480469 33.808594 L 14.566406 33.53125 L 13.757812 33.285156 L 13.863281 32.941406 L 14.554688 33.152344 L 14.632812 32.886719 L 13.945312 32.675781 L 14.042969 32.351562 Z M 14.824219 32.59375 " fill-opacity="1" fill-rule="nonzero"/><path fill="#00e220" d="M 16.292969 32.597656 L 15.859375 33.027344 L 15.597656 32.46875 L 15.199219 32.394531 L 15.597656 33.242188 L 14.890625 33.914062 L 15.296875 33.992188 L 15.753906 33.527344 L 16.023438 34.125 L 16.433594 34.199219 L 16.007812 33.308594 L 16.675781 32.667969 Z M 16.292969 32.597656 " fill-opacity="1" fill-rule="nonzero"/><path fill="#00e220" d="M 18.027344 32.832031 C 17.914062 32.777344 17.796875 32.75 17.671875 32.746094 L 17.003906 32.703125 L 16.90625 34.253906 L 17.265625 34.273438 L 17.292969 33.847656 L 17.601562 33.867188 C 17.726562 33.878906 17.847656 33.863281 17.964844 33.824219 C 18.0625 33.789062 18.144531 33.726562 18.207031 33.644531 C 18.273438 33.554688 18.304688 33.457031 18.308594 33.347656 C 18.316406 33.242188 18.296875 33.140625 18.246094 33.042969 C 18.191406 32.953125 18.121094 32.882812 18.027344 32.832031 Z M 17.851562 33.515625 C 17.773438 33.566406 17.691406 33.585938 17.601562 33.570312 L 17.308594 33.554688 L 17.34375 33.015625 L 17.636719 33.035156 C 17.730469 33.035156 17.808594 33.0625 17.878906 33.121094 C 17.9375 33.175781 17.960938 33.246094 17.949219 33.324219 C 17.949219 33.40625 17.914062 33.46875 17.851562 33.515625 Z M 17.851562 33.515625 " fill-opacity="1" fill-rule="nonzero"/><path fill="#00e220" d="M 19.175781 34.019531 L 19.15625 33.660156 L 19.871094 33.621094 L 19.855469 33.339844 L 19.140625 33.382812 L 19.121094 33.046875 L 19.933594 33 L 19.917969 32.710938 L 18.746094 32.777344 L 18.835938 34.324219 L 20.035156 34.257812 L 20.015625 33.972656 Z M 19.175781 34.019531 " fill-opacity="1" fill-rule="nonzero"/><path fill="#00e220" d="M 21.574219 33.515625 C 21.773438 33.386719 21.847656 33.207031 21.796875 32.976562 C 21.78125 32.871094 21.734375 32.773438 21.660156 32.695312 C 21.589844 32.621094 21.5 32.570312 21.398438 32.546875 C 21.277344 32.519531 21.15625 32.519531 21.035156 32.542969 L 20.371094 32.660156 L 20.644531 34.1875 L 20.996094 34.125 L 20.921875 33.699219 L 21.230469 33.644531 L 21.246094 33.640625 L 21.617188 34.015625 L 21.996094 33.945312 L 21.566406 33.519531 Z M 21.066406 32.832031 C 21.15625 32.808594 21.242188 32.820312 21.324219 32.859375 C 21.386719 32.902344 21.425781 32.964844 21.441406 33.039062 C 21.453125 33.117188 21.4375 33.1875 21.394531 33.25 C 21.332031 33.316406 21.253906 33.355469 21.164062 33.363281 L 20.875 33.414062 L 20.78125 32.882812 Z M 21.066406 32.832031 " fill-opacity="1" fill-rule="nonzero"/><path fill="#00e220" d="M 23.222656 31.976562 L 21.929688 32.367188 L 22.011719 32.644531 L 22.488281 32.503906 L 22.851562 33.707031 L 23.195312 33.605469 L 22.832031 32.398438 L 23.304688 32.257812 Z M 23.222656 31.976562 " fill-opacity="1" fill-rule="nonzero"/><path fill="#00e220" d="M 14.953125 4.832031 L 14.867188 4.554688 L 14.0625 4.800781 L 13.957031 4.460938 L 14.644531 4.25 L 14.5625 3.980469 L 13.875 4.191406 L 13.777344 3.871094 L 14.554688 3.632812 L 14.472656 3.355469 L 13.351562 3.699219 L 13.804688 5.183594 Z M 14.953125 4.832031 " fill-opacity="1" fill-rule="nonzero"/><path fill="#00e220" d="M 16.457031 2.964844 L 16.074219 3.03125 L 15.816406 3.585938 L 15.378906 3.152344 L 14.980469 3.21875 L 15.644531 3.878906 L 15.210938 4.753906 L 15.617188 4.683594 L 15.890625 4.089844 L 16.347656 4.558594 L 16.757812 4.488281 L 16.050781 3.792969 Z M 16.457031 2.964844 " fill-opacity="1" fill-rule="nonzero"/><path fill="#00e220" d="M 18.023438 2.914062 C 17.90625 2.871094 17.785156 2.855469 17.660156 2.867188 L 16.992188 2.902344 L 17.078125 4.453125 L 17.433594 4.433594 L 17.410156 4.007812 L 17.722656 3.988281 C 17.847656 3.984375 17.964844 3.957031 18.078125 3.902344 C 18.171875 3.855469 18.246094 3.785156 18.300781 3.695312 C 18.40625 3.488281 18.394531 3.289062 18.265625 3.097656 C 18.203125 3.011719 18.121094 2.949219 18.023438 2.914062 Z M 17.929688 3.613281 C 17.859375 3.671875 17.777344 3.699219 17.6875 3.695312 L 17.390625 3.714844 L 17.363281 3.175781 L 17.65625 3.160156 C 17.75 3.148438 17.832031 3.167969 17.910156 3.21875 C 17.96875 3.269531 18 3.332031 18.003906 3.414062 C 18.007812 3.492188 17.984375 3.558594 17.929688 3.613281 Z M 17.929688 3.613281 " fill-opacity="1" fill-rule="nonzero"/><path fill="#00e220" d="M 18.851562 4.386719 L 20.046875 4.46875 L 20.066406 4.179688 L 19.226562 4.125 L 19.25 3.765625 L 19.96875 3.8125 L 19.988281 3.535156 L 19.269531 3.488281 L 19.289062 3.152344 L 20.105469 3.207031 L 20.121094 2.917969 L 18.953125 2.839844 Z M 18.851562 4.386719 " fill-opacity="1" fill-rule="nonzero"/><path fill="#00e220" d="M 20.941406 4.171875 L 21.246094 4.230469 L 21.261719 4.230469 L 21.472656 4.710938 L 21.855469 4.785156 L 21.609375 4.230469 C 21.710938 4.210938 21.800781 4.164062 21.875 4.085938 C 21.949219 4.007812 21.996094 3.917969 22.011719 3.808594 C 22.035156 3.703125 22.03125 3.601562 21.992188 3.5 C 21.949219 3.402344 21.886719 3.324219 21.796875 3.261719 C 21.695312 3.195312 21.582031 3.152344 21.460938 3.128906 L 20.800781 3.003906 L 20.503906 4.527344 L 20.859375 4.59375 Z M 21.613281 3.53125 C 21.65625 3.59375 21.671875 3.664062 21.65625 3.742188 C 21.644531 3.816406 21.605469 3.878906 21.542969 3.921875 C 21.457031 3.960938 21.371094 3.96875 21.285156 3.945312 L 20.996094 3.890625 L 21.097656 3.359375 L 21.386719 3.414062 C 21.476562 3.425781 21.554688 3.464844 21.613281 3.53125 Z M 21.613281 3.53125 " fill-opacity="1" fill-rule="nonzero"/><path fill="#00e220" d="M 22.554688 3.371094 L 22.464844 3.652344 L 22.9375 3.800781 L 22.554688 5 L 22.898438 5.109375 L 23.28125 3.910156 L 23.753906 4.058594 L 23.839844 3.78125 Z M 22.554688 3.371094 " fill-opacity="1" fill-rule="nonzero"/><path fill="#00e220" d="M 17.214844 17.675781 C 17.105469 17.582031 16.9375 17.535156 16.71875 17.535156 L 16.132812 17.535156 L 16.132812 18.609375 L 16.71875 18.609375 C 16.9375 18.609375 17.105469 18.5625 17.214844 18.46875 C 17.332031 18.363281 17.386719 18.230469 17.375 18.074219 C 17.386719 17.914062 17.332031 17.78125 17.214844 17.675781 Z M 17.214844 17.675781 " fill-opacity="1" fill-rule="nonzero"/><path fill="#00e220" d="M 24.269531 17.675781 C 24.160156 17.582031 23.992188 17.535156 23.773438 17.535156 L 23.1875 17.535156 L 23.1875 18.613281 L 23.773438 18.613281 C 23.992188 18.613281 24.160156 18.566406 24.269531 18.472656 C 24.378906 18.359375 24.433594 18.226562 24.433594 18.074219 C 24.433594 17.917969 24.378906 17.785156 24.269531 17.675781 Z M 24.269531 17.675781 " fill-opacity="1" fill-rule="nonzero"/><path fill="#00e220" d="M 34.671875 15.425781 L 2.332031 15.425781 C 2.101562 15.425781 1.90625 15.507812 1.746094 15.671875 C 1.582031 15.832031 1.5 16.03125 1.5 16.257812 L 1.5 20.738281 C 1.5 20.96875 1.582031 21.164062 1.746094 21.328125 C 1.90625 21.492188 2.101562 21.574219 2.332031 21.574219 L 34.671875 21.574219 C 34.902344 21.574219 35.097656 21.492188 35.261719 21.328125 C 35.425781 21.164062 35.503906 20.96875 35.503906 20.738281 L 35.503906 16.257812 C 35.503906 16.027344 35.425781 15.832031 35.261719 15.667969 C 35.097656 15.507812 34.902344 15.425781 34.671875 15.425781 Z M 10.921875 20.050781 L 8.523438 20.050781 L 8.523438 16.949219 L 10.867188 16.949219 L 10.867188 17.523438 L 9.234375 17.523438 L 9.234375 18.199219 L 10.675781 18.199219 L 10.675781 18.757812 L 9.234375 18.757812 L 9.234375 19.472656 L 10.921875 19.472656 Z M 13.859375 20.050781 L 13.109375 18.972656 L 12.371094 20.050781 L 11.550781 20.050781 L 12.695312 18.472656 L 11.609375 16.949219 L 12.421875 16.949219 L 13.132812 17.953125 L 13.832031 16.949219 L 14.609375 16.949219 L 13.53125 18.445312 L 14.6875 20.050781 Z M 17.9375 18.671875 C 17.824219 18.847656 17.667969 18.976562 17.472656 19.058594 C 17.246094 19.15625 17.003906 19.203125 16.757812 19.195312 L 16.132812 19.195312 L 16.132812 20.050781 L 15.414062 20.050781 L 15.414062 16.949219 L 16.757812 16.949219 C 17.003906 16.941406 17.246094 16.988281 17.472656 17.085938 C 17.667969 17.167969 17.824219 17.296875 17.9375 17.472656 C 18.175781 17.871094 18.175781 18.273438 17.9375 18.671875 Z M 21.457031 20.050781 L 19.054688 20.050781 L 19.054688 16.949219 L 21.398438 16.949219 L 21.398438 17.523438 L 19.769531 17.523438 L 19.769531 18.199219 L 21.207031 18.199219 L 21.207031 18.757812 L 19.769531 18.757812 L 19.769531 19.472656 L 21.457031 19.472656 Z M 24.441406 20.050781 L 23.847656 19.183594 L 23.1875 19.183594 L 23.1875 20.050781 L 22.46875 20.050781 L 22.46875 16.949219 L 23.816406 16.949219 C 24.0625 16.941406 24.300781 16.988281 24.53125 17.085938 C 24.726562 17.167969 24.882812 17.296875 24.996094 17.472656 C 25.113281 17.65625 25.167969 17.855469 25.160156 18.074219 C 25.167969 18.289062 25.113281 18.488281 24.996094 18.671875 C 24.882812 18.84375 24.726562 18.972656 24.53125 19.054688 L 24.527344 19.054688 L 25.21875 20.050781 Z M 28.476562 17.535156 L 27.484375 17.535156 L 27.484375 20.050781 L 26.765625 20.050781 L 26.765625 17.535156 L 25.773438 17.535156 L 25.773438 16.949219 L 28.476562 16.949219 Z M 28.476562 17.535156 " fill-opacity="1" fill-rule="nonzero"/></svg>