<svg xmlns="http://www.w3.org/2000/svg" xmlns:xlink="http://www.w3.org/1999/xlink" width="50" zoomAndPan="magnify" viewBox="0 0 37.5 37.499999" height="50" preserveAspectRatio="xMidYMid meet" version="1.0"><defs><clipPath id="08ac43441f"><path d="M 29 2.660156 L 33 2.660156 L 33 6 L 29 6 Z M 29 2.660156 " clip-rule="nonzero"/></clipPath></defs><path fill="#ffffff" d="M 36.8125 5.984375 C 36.972656 5.785156 36.941406 5.492188 36.746094 5.332031 L 36.585938 5.203125 C 36.386719 5.042969 36.09375 5.074219 35.933594 5.273438 L 27.066406 16.253906 C 26.988281 16.285156 26.90625 16.308594 26.820312 16.328125 C 26.558594 16.382812 26.285156 16.425781 25.996094 16.476562 C 25.914062 16.492188 25.832031 16.507812 25.746094 16.523438 C 25.597656 16.550781 25.449219 16.578125 25.296875 16.613281 C 25.214844 16.632812 25.132812 16.652344 25.054688 16.671875 C 24.9375 16.703125 24.820312 16.734375 24.703125 16.769531 C 24.625 16.792969 24.550781 16.816406 24.472656 16.84375 C 24.347656 16.886719 24.21875 16.933594 24.089844 16.988281 L 27.851562 20.027344 C 27.878906 19.890625 27.898438 19.753906 27.914062 19.621094 C 27.921875 19.542969 27.929688 19.460938 27.9375 19.382812 C 27.945312 19.257812 27.953125 19.136719 27.957031 19.019531 C 27.960938 18.933594 27.964844 18.851562 27.964844 18.769531 C 27.964844 18.613281 27.964844 18.460938 27.960938 18.308594 C 27.957031 18.222656 27.953125 18.136719 27.953125 18.054688 C 27.941406 17.761719 27.925781 17.484375 27.925781 17.214844 C 27.925781 17.132812 27.933594 17.046875 27.945312 16.964844 Z M 36.8125 5.984375 " fill-opacity="1" fill-rule="nonzero"/><path fill="#ffffff" d="M 16.242188 18.632812 C 16.242188 18.632812 16.734375 19.347656 17.277344 20.078125 C 17.800781 19.9375 19.824219 19.476562 19.824219 19.476562 L 17.578125 20.476562 C 17.90625 20.894531 18.222656 21.273438 18.441406 21.46875 L 22.160156 19.378906 L 18.957031 21.921875 C 19.179688 22.117188 19.421875 22.324219 19.675781 22.542969 L 21.355469 21.753906 L 20.179688 22.972656 C 20.480469 23.230469 20.796875 23.496094 21.121094 23.761719 L 23.960938 21.761719 L 21.625 24.175781 C 21.921875 24.410156 22.21875 24.640625 22.507812 24.867188 L 24.722656 23.589844 L 23.140625 25.347656 C 23.4375 25.574219 24.449219 26.164062 24.449219 26.164062 C 24.449219 26.164062 27.027344 25.082031 27.722656 20.613281 L 23.546875 17.238281 C 23.203125 17.417969 20.234375 19.011719 16.242188 18.632812 Z M 16.242188 18.632812 " fill-opacity="1" fill-rule="nonzero"/><path fill="#ffffff" d="M 29.980469 9.027344 L 31.417969 8.714844 L 29.980469 8.402344 L 29.667969 6.964844 L 29.355469 8.402344 L 27.917969 8.714844 L 29.355469 9.027344 L 29.667969 10.464844 Z M 29.980469 9.027344 " fill-opacity="1" fill-rule="nonzero"/><path fill="#ffffff" d="M 17.402344 10.03125 L 18.414062 9.808594 L 17.402344 9.589844 L 17.183594 8.578125 L 16.964844 9.589844 L 15.953125 9.808594 L 16.964844 10.03125 L 17.183594 11.042969 Z M 17.402344 10.03125 " fill-opacity="1" fill-rule="nonzero"/><path fill="#ffffff" d="M 18.191406 13.007812 L 19.152344 12.800781 L 18.191406 12.589844 L 17.984375 11.628906 L 17.773438 12.589844 L 16.8125 12.800781 L 17.773438 13.007812 L 17.984375 13.96875 Z M 18.191406 13.007812 " fill-opacity="1" fill-rule="nonzero"/><path fill="#ffffff" d="M 23.316406 13.144531 L 24.449219 12.898438 L 23.316406 12.652344 L 23.070312 11.519531 L 22.824219 12.652344 L 21.695312 12.898438 L 22.824219 13.144531 L 23.070312 14.277344 Z M 23.316406 13.144531 " fill-opacity="1" fill-rule="nonzero"/><path fill="#ffffff" d="M 20.53125 15.84375 L 21.492188 15.636719 L 20.53125 15.425781 L 20.324219 14.464844 L 20.113281 15.425781 L 19.152344 15.636719 L 20.113281 15.84375 L 20.324219 16.804688 Z M 20.53125 15.84375 " fill-opacity="1" fill-rule="nonzero"/><g clip-path="url(#08ac43441f)"><path fill="#ffffff" d="M 31.1875 4.332031 L 32.351562 4.078125 L 31.1875 3.828125 L 30.933594 2.660156 L 30.679688 3.828125 L 29.515625 4.078125 L 30.679688 4.332031 L 30.933594 5.5 Z M 31.1875 4.332031 " fill-opacity="1" fill-rule="nonzero"/></g><path fill="#ffffff" d="M 26.75 5.753906 L 27.917969 5.5 L 26.75 5.246094 L 26.5 4.078125 L 26.246094 5.246094 L 25.078125 5.5 L 26.246094 5.753906 L 26.5 6.917969 Z M 26.75 5.753906 " fill-opacity="1" fill-rule="nonzero"/><path fill="#ffffff" d="M 10.554688 22.894531 L 10.554688 19.605469 L 8.976562 19.777344 L 8.976562 22.921875 Z M 10.554688 22.894531 " fill-opacity="1" fill-rule="nonzero"/><path fill="#ffffff" d="M 13.238281 22.855469 L 13.238281 19.320312 L 11.109375 19.546875 L 11.109375 22.886719 Z M 13.238281 22.855469 " fill-opacity="1" fill-rule="nonzero"/><path fill="#ffffff" d="M 14.363281 13.859375 L 15.640625 13.582031 L 14.363281 13.304688 L 14.085938 12.027344 L 13.808594 13.304688 L 12.53125 13.582031 L 13.808594 13.859375 L 14.085938 15.136719 Z M 14.363281 13.859375 " fill-opacity="1" fill-rule="nonzero"/><path fill="#ffffff" d="M 29.300781 11.714844 C 28.785156 11.34375 28.226562 11.019531 27.628906 10.753906 C 27.011719 10.480469 26.378906 10.28125 25.746094 10.152344 C 25.5625 10.105469 25.378906 10.0625 25.195312 10.027344 C 26.578125 10.789062 27.84375 11.769531 28.910156 12.898438 L 29.667969 11.960938 C 29.546875 11.878906 29.425781 11.792969 29.300781 11.714844 Z M 29.300781 11.714844 " fill-opacity="1" fill-rule="nonzero"/><path fill="#ffffff" d="M 30.660156 21.289062 C 29.59375 23.691406 27.28125 26.019531 24.050781 26.671875 L 23.855469 26.730469 L 23.832031 26.710938 C 22.789062 26.894531 21.652344 26.90625 20.433594 26.6875 C 19.816406 26.578125 19.207031 26.292969 18.574219 26.082031 C 17.933594 25.855469 17.289062 25.628906 16.640625 25.398438 C 15.980469 25.179688 15.324219 24.960938 14.675781 24.742188 C 14.023438 24.527344 13.367188 24.359375 12.726562 24.207031 C 12.085938 24.042969 11.449219 23.960938 10.84375 23.90625 C 10.234375 23.855469 9.648438 23.867188 9.109375 23.960938 C 8.839844 24 8.582031 24.078125 8.34375 24.144531 C 8.105469 24.253906 7.878906 24.320312 7.679688 24.453125 C 7.273438 24.675781 6.96875 24.960938 6.742188 25.230469 C 6.632812 25.367188 6.535156 25.484375 6.460938 25.59375 C 6.398438 25.710938 6.34375 25.808594 6.300781 25.890625 C 6.214844 26.054688 6.167969 26.144531 6.167969 26.144531 C 6.167969 26.144531 6.234375 26.078125 6.359375 25.953125 C 6.421875 25.890625 6.496094 25.816406 6.585938 25.726562 C 6.679688 25.652344 6.792969 25.574219 6.914062 25.480469 C 7.027344 25.382812 7.183594 25.320312 7.335938 25.242188 C 7.488281 25.152344 7.671875 25.105469 7.859375 25.039062 C 8.039062 24.96875 8.257812 24.96875 8.46875 24.921875 C 8.691406 24.917969 8.914062 24.882812 9.15625 24.898438 C 9.636719 24.910156 10.164062 25.007812 10.714844 25.117188 C 11.269531 25.246094 11.847656 25.421875 12.453125 25.613281 C 13.054688 25.800781 13.671875 26.050781 14.3125 26.269531 C 14.953125 26.5 15.597656 26.738281 16.25 26.976562 C 16.90625 27.203125 17.566406 27.429688 18.226562 27.621094 C 18.886719 27.824219 19.546875 27.972656 20.195312 28.105469 C 20.515625 28.171875 20.839844 28.226562 21.152344 28.265625 C 21.472656 28.289062 21.78125 28.328125 22.089844 28.339844 C 22.441406 28.355469 28.261719 28.988281 31.707031 23.867188 C 31.648438 24.023438 31.585938 24.179688 31.515625 24.335938 C 29.679688 28.480469 24.953125 32.449219 18.375 31.277344 C 17.578125 31.136719 16.796875 30.769531 15.980469 30.496094 C 15.160156 30.207031 14.324219 29.917969 13.496094 29.621094 C 12.648438 29.339844 11.804688 29.054688 10.972656 28.777344 C 10.132812 28.5 9.289062 28.285156 8.464844 28.089844 C 7.640625 27.878906 6.824219 27.769531 6.042969 27.699219 C 5.257812 27.632812 4.507812 27.652344 3.816406 27.773438 C 3.46875 27.820312 3.136719 27.921875 2.828125 28.007812 C 2.527344 28.148438 2.234375 28.234375 1.980469 28.402344 C 1.457031 28.691406 1.066406 29.054688 0.777344 29.402344 C 0.632812 29.578125 0.507812 29.730469 0.414062 29.871094 C 0.332031 30.019531 0.261719 30.148438 0.203125 30.253906 C 0.09375 30.46875 0.0351562 30.582031 0.0351562 30.582031 C 0.0351562 30.582031 0.121094 30.496094 0.28125 30.339844 C 0.359375 30.257812 0.457031 30.160156 0.574219 30.042969 C 0.695312 29.953125 0.835938 29.847656 0.996094 29.730469 C 1.136719 29.605469 1.339844 29.527344 1.539062 29.421875 C 1.734375 29.304688 1.96875 29.246094 2.210938 29.164062 C 2.445312 29.074219 2.722656 29.070312 2.992188 29.011719 C 3.277344 29.003906 3.5625 28.960938 3.878906 28.980469 C 4.496094 29 5.171875 29.121094 5.882812 29.261719 C 6.59375 29.429688 7.335938 29.652344 8.113281 29.902344 C 8.886719 30.140625 9.683594 30.464844 10.503906 30.746094 C 11.324219 31.042969 12.160156 31.347656 12.996094 31.652344 C 13.835938 31.945312 14.6875 32.234375 15.535156 32.484375 C 16.382812 32.742188 17.234375 32.933594 18.066406 33.105469 C 18.480469 33.191406 18.894531 33.257812 19.296875 33.3125 C 19.710938 33.34375 20.105469 33.394531 20.5 33.402344 C 20.980469 33.421875 29.363281 34.34375 33.632812 26.386719 C 35.9375 22.089844 34.769531 16.984375 31.542969 13.578125 L 30.433594 14.953125 C 31.394531 16.917969 31.613281 19.140625 30.660156 21.289062 Z M 30.660156 21.289062 " fill-opacity="1" fill-rule="nonzero"/><path fill="#ffffff" d="M 16.1875 17.953125 L 22.347656 8.265625 L 27.050781 15.207031 L 27.675781 14.429688 L 22.558594 6.957031 L 15.527344 8.265625 L 15.527344 11.867188 L 15.066406 12.070312 L 15.066406 5.671875 L 12.890625 6.8125 L 12.890625 8.761719 L 12.394531 8.859375 L 5.226562 19.152344 L 15.074219 18.105469 Z M 16.1875 17.953125 " fill-opacity="1" fill-rule="nonzero"/><path fill="#ffffff" d="M 18.816406 11.9375 L 19.777344 11.730469 L 18.816406 11.519531 L 18.605469 10.558594 L 18.398438 11.519531 L 17.4375 11.730469 L 18.398438 11.9375 L 18.605469 12.898438 Z M 18.816406 11.9375 " fill-opacity="1" fill-rule="nonzero"/><path fill="#ffffff" d="M 20.914062 8.75 L 21.707031 8.578125 L 20.914062 8.40625 L 20.742188 7.613281 L 20.566406 8.40625 L 19.777344 8.578125 L 20.566406 8.75 L 20.742188 9.542969 Z M 20.914062 8.75 " fill-opacity="1" fill-rule="nonzero"/></svg>