<svg xmlns="http://www.w3.org/2000/svg" xmlns:xlink="http://www.w3.org/1999/xlink" width="50" zoomAndPan="magnify" viewBox="0 0 37.5 37.499999" height="50" preserveAspectRatio="xMidYMid meet" version="1.0"><defs><clipPath id="bfce4722db"><path d="M 0 0 L 37 0 L 37 37.007812 L 0 37.007812 Z M 0 0 " clip-rule="nonzero"/></clipPath></defs><g clip-path="url(#bfce4722db)"><path fill="#ffffff" d="M 36.492188 7.507812 C 36.261719 7.015625 35.949219 6.566406 35.5625 6.171875 C 35.550781 6.074219 35.53125 5.972656 35.507812 5.867188 C 35.253906 4.804688 34.472656 3.808594 33.363281 3.132812 C 32.28125 2.46875 31.027344 2.226562 29.996094 2.457031 C 30.03125 2.277344 30.027344 2.09375 29.984375 1.914062 C 29.902344 1.574219 29.691406 1.285156 29.390625 1.101562 L 28.214844 0.382812 C 27.597656 0 26.785156 0.195312 26.402344 0.8125 L 24.964844 3.148438 C 24.78125 3.449219 24.722656 3.800781 24.804688 4.144531 C 24.886719 4.484375 25.097656 4.777344 25.398438 4.960938 L 26.574219 5.679688 C 26.789062 5.808594 27.027344 5.871094 27.261719 5.871094 C 27.546875 5.871094 27.828125 5.777344 28.0625 5.601562 C 28.136719 5.90625 28.261719 6.207031 28.425781 6.5 C 27.960938 6.539062 27.59375 6.71875 27.394531 7.039062 L 27.039062 7.625 C 26.730469 8.121094 26.894531 8.824219 27.472656 9.53125 L 24.472656 14.40625 L 21.523438 12.15625 L 21.523438 8.699219 C 23.007812 7.855469 23.925781 6.292969 23.925781 4.582031 C 23.925781 2.550781 22.628906 0.75 20.703125 0.0976562 C 20.609375 0.0664062 20.503906 0.0820312 20.429688 0.140625 C 20.351562 0.199219 20.308594 0.296875 20.3125 0.394531 L 20.574219 4.289062 L 17.773438 4.289062 L 18.035156 0.394531 C 18.039062 0.296875 17.996094 0.199219 17.921875 0.140625 C 17.84375 0.0820312 17.742188 0.0664062 17.648438 0.0976562 C 15.71875 0.75 14.425781 2.550781 14.425781 4.582031 C 14.425781 6.292969 15.339844 7.855469 16.824219 8.699219 L 16.824219 12.15625 L 12.878906 15.167969 L 12.816406 15.027344 C 12.566406 14.460938 12.601562 13.800781 12.90625 13.261719 L 13.472656 12.261719 C 13.871094 11.5625 13.917969 10.707031 13.59375 9.972656 L 9.382812 0.363281 C 9.335938 0.257812 9.234375 0.1875 9.121094 0.1875 C 9.007812 0.183594 8.902344 0.25 8.851562 0.351562 L 8.273438 1.542969 L 7 1.15625 C 6.863281 1.113281 6.714844 1.179688 6.652344 1.308594 L 6.074219 2.503906 L 4.800781 2.113281 C 4.664062 2.074219 4.515625 2.136719 4.453125 2.265625 L 3.875 3.460938 L 2.601562 3.074219 C 2.464844 3.03125 2.316406 3.09375 2.253906 3.226562 L 1.675781 4.417969 L 0.40625 4.03125 C 0.292969 3.996094 0.175781 4.03125 0.101562 4.117188 C 0.0234375 4.199219 0.00390625 4.324219 0.0507812 4.429688 L 4.261719 14.039062 C 4.582031 14.773438 5.242188 15.324219 6.023438 15.507812 L 7.144531 15.769531 C 7.75 15.914062 8.261719 16.335938 8.507812 16.902344 L 9.03125 18.097656 L 7.339844 19.390625 C 7.269531 19.445312 7.226562 19.53125 7.226562 19.621094 L 7.226562 22.355469 C 7.226562 22.46875 7.289062 22.570312 7.386719 22.621094 C 7.429688 22.640625 7.472656 22.648438 7.519531 22.648438 C 7.582031 22.648438 7.644531 22.628906 7.695312 22.589844 L 9.625 21.117188 L 9.625 33.683594 L 6.832031 33.683594 C 6.671875 33.683594 6.539062 33.816406 6.539062 33.976562 L 6.539062 36.714844 C 6.539062 36.875 6.671875 37.007812 6.832031 37.007812 L 31.515625 37.007812 C 31.679688 37.007812 31.808594 36.875 31.808594 36.714844 L 31.808594 33.976562 C 31.808594 33.816406 31.679688 33.683594 31.515625 33.683594 L 28.722656 33.683594 L 28.722656 21.117188 L 30.652344 22.589844 C 30.742188 22.65625 30.859375 22.667969 30.960938 22.621094 C 31.058594 22.570312 31.125 22.46875 31.125 22.355469 L 31.125 19.621094 C 31.125 19.53125 31.082031 19.445312 31.007812 19.390625 L 27.128906 16.433594 L 30.308594 11.265625 C 30.550781 11.320312 30.777344 11.347656 30.984375 11.347656 C 31.550781 11.347656 31.988281 11.15625 32.210938 10.792969 L 32.570312 10.210938 C 32.722656 9.960938 32.761719 9.652344 32.679688 9.316406 C 32.660156 9.230469 32.632812 9.140625 32.59375 9.050781 C 32.648438 9.054688 32.699219 9.054688 32.75 9.054688 C 33.125 9.054688 33.476562 9.003906 33.800781 8.902344 L 36.457031 10.523438 C 36.503906 10.554688 36.558594 10.566406 36.609375 10.566406 C 36.652344 10.566406 36.695312 10.558594 36.734375 10.539062 C 36.824219 10.5 36.886719 10.414062 36.902344 10.316406 C 36.996094 9.640625 37.003906 8.601562 36.492188 7.507812 Z M 27.886719 4.9375 C 27.675781 5.28125 27.222656 5.390625 26.878906 5.179688 L 26.542969 4.972656 L 28.746094 1.394531 L 29.085938 1.597656 C 29.25 1.703125 29.367188 1.863281 29.414062 2.050781 C 29.457031 2.242188 29.425781 2.4375 29.324219 2.601562 Z M 16.382812 33.683594 L 16.382812 26.066406 L 21.964844 26.066406 L 21.964844 33.683594 Z M 28.136719 33.683594 L 22.550781 33.683594 L 22.550781 25.773438 C 22.550781 25.613281 22.421875 25.480469 22.257812 25.480469 L 16.089844 25.480469 C 15.925781 25.480469 15.796875 25.613281 15.796875 25.773438 L 15.796875 33.683594 L 10.210938 33.683594 L 10.210938 20.671875 L 19.175781 13.835938 L 28.136719 20.671875 Z M 15.011719 4.582031 C 15.011719 2.953125 15.960938 1.492188 17.417969 0.816406 L 17.167969 4.5625 C 17.164062 4.644531 17.191406 4.722656 17.246094 4.78125 C 17.300781 4.839844 17.378906 4.875 17.460938 4.875 L 20.886719 4.875 C 20.96875 4.875 21.046875 4.839844 21.101562 4.78125 C 21.15625 4.722656 21.1875 4.644531 21.179688 4.5625 L 20.929688 0.816406 C 22.386719 1.492188 23.339844 2.953125 23.339844 4.582031 C 23.339844 6.132812 22.480469 7.542969 21.097656 8.261719 C 21 8.3125 20.9375 8.414062 20.9375 8.523438 L 20.9375 11.710938 L 19.351562 10.5 C 19.246094 10.421875 19.101562 10.421875 18.996094 10.5 L 17.410156 11.710938 L 17.410156 8.523438 C 17.410156 8.414062 17.347656 8.3125 17.253906 8.261719 C 15.871094 7.542969 15.011719 6.132812 15.011719 4.582031 Z M 0.84375 4.777344 L 1.746094 5.050781 C 1.882812 5.09375 2.03125 5.027344 2.09375 4.898438 L 2.671875 3.707031 L 3.945312 4.09375 C 4.082031 4.136719 4.230469 4.070312 4.292969 3.941406 L 4.871094 2.75 L 6.144531 3.136719 C 6.28125 3.179688 6.429688 3.113281 6.492188 2.984375 L 7.070312 1.789062 L 8.34375 2.179688 C 8.480469 2.21875 8.628906 2.15625 8.691406 2.027344 L 9.101562 1.179688 L 11.609375 6.90625 L 10.578125 7.355469 L 8.773438 3.238281 C 8.707031 3.089844 8.535156 3.023438 8.386719 3.089844 C 8.238281 3.152344 8.171875 3.324219 8.238281 3.472656 L 10.039062 7.589844 L 8.691406 8.175781 L 6.886719 4.058594 C 6.824219 3.910156 6.652344 3.84375 6.503906 3.910156 C 6.355469 3.972656 6.285156 4.148438 6.351562 4.292969 L 8.15625 8.410156 L 6.808594 9 L 5.003906 4.882812 C 4.9375 4.730469 4.765625 4.664062 4.617188 4.730469 C 4.46875 4.792969 4.402344 4.96875 4.46875 5.117188 L 6.269531 9.230469 L 4.921875 9.820312 L 3.117188 5.703125 C 3.054688 5.554688 2.878906 5.484375 2.734375 5.550781 C 2.585938 5.617188 2.515625 5.789062 2.582031 5.9375 L 4.386719 10.054688 L 3.351562 10.503906 Z M 7.28125 15.199219 L 6.160156 14.9375 C 5.554688 14.792969 5.046875 14.371094 4.796875 13.804688 L 4.410156 12.917969 L 12.667969 9.324219 L 13.058594 10.207031 C 13.304688 10.773438 13.269531 11.433594 12.964844 11.972656 L 12.398438 12.972656 C 12 13.671875 11.957031 14.527344 12.277344 15.261719 L 12.398438 15.53125 L 9.511719 17.734375 L 9.046875 16.667969 C 8.722656 15.933594 8.0625 15.382812 7.28125 15.199219 Z M 30.363281 10.0625 L 26.660156 16.074219 L 24.941406 14.761719 L 28.527344 8.9375 C 28.585938 8.839844 29.054688 8.800781 29.652344 9.167969 C 30.078125 9.429688 30.320312 9.746094 30.367188 9.949219 C 30.378906 9.996094 30.378906 10.039062 30.363281 10.0625 Z M 32.070312 9.902344 L 31.710938 10.484375 C 31.566406 10.722656 31.164062 10.8125 30.640625 10.734375 L 30.863281 10.367188 C 30.960938 10.210938 30.984375 10.019531 30.9375 9.8125 C 30.839844 9.410156 30.476562 8.984375 29.957031 8.667969 C 29.148438 8.171875 28.320312 8.15625 28.027344 8.628906 L 27.800781 8.996094 C 27.496094 8.566406 27.390625 8.167969 27.535156 7.929688 L 27.894531 7.347656 C 28.164062 6.914062 29.316406 6.957031 30.546875 7.710938 C 31.363281 8.207031 31.976562 8.894531 32.109375 9.453125 C 32.15625 9.636719 32.140625 9.789062 32.070312 9.902344 Z M 36.363281 9.78125 L 34.449219 8.613281 C 34.773438 8.414062 35.042969 8.152344 35.238281 7.832031 C 35.386719 7.59375 35.488281 7.332031 35.542969 7.054688 C 35.703125 7.273438 35.84375 7.507812 35.960938 7.757812 C 36.308594 8.5 36.386719 9.21875 36.363281 9.78125 Z M 36.363281 9.78125 " fill-opacity="1" fill-rule="nonzero"/></g><path fill="#ffffff" d="M 36.425781 25.160156 C 36.082031 25.023438 35.585938 24.75 35.175781 24.226562 C 34.730469 23.660156 34.589844 23.066406 34.550781 22.667969 C 34.535156 22.519531 34.410156 22.40625 34.257812 22.40625 C 34.109375 22.40625 33.980469 22.519531 33.964844 22.667969 C 33.929688 23.066406 33.789062 23.660156 33.34375 24.226562 C 32.929688 24.75 32.4375 25.023438 32.09375 25.160156 C 31.980469 25.207031 31.910156 25.3125 31.910156 25.433594 C 31.910156 25.554688 31.980469 25.660156 32.09375 25.707031 C 32.4375 25.84375 32.929688 26.117188 33.34375 26.640625 C 33.789062 27.207031 33.929688 27.800781 33.964844 28.195312 C 33.980469 28.347656 34.109375 28.460938 34.257812 28.460938 C 34.410156 28.460938 34.535156 28.347656 34.550781 28.195312 C 34.589844 27.800781 34.730469 27.207031 35.175781 26.640625 C 35.585938 26.117188 36.082031 25.84375 36.425781 25.707031 C 36.535156 25.660156 36.609375 25.554688 36.609375 25.433594 C 36.609375 25.3125 36.535156 25.207031 36.425781 25.160156 Z M 34.714844 26.277344 C 34.515625 26.53125 34.367188 26.785156 34.257812 27.03125 C 34.148438 26.785156 34 26.53125 33.804688 26.277344 C 33.503906 25.894531 33.164062 25.625 32.851562 25.433594 C 33.164062 25.242188 33.503906 24.972656 33.804688 24.589844 C 34 24.335938 34.148438 24.082031 34.257812 23.832031 C 34.367188 24.082031 34.515625 24.335938 34.714844 24.589844 C 35.015625 24.972656 35.351562 25.242188 35.664062 25.433594 C 35.351562 25.625 35.015625 25.894531 34.714844 26.277344 Z M 34.714844 26.277344 " fill-opacity="1" fill-rule="nonzero"/><path fill="#ffffff" d="M 33.230469 17.277344 C 33.070312 17.277344 32.9375 17.40625 32.9375 17.570312 L 32.9375 18.644531 L 31.859375 18.644531 C 31.695312 18.644531 31.566406 18.773438 31.566406 18.9375 C 31.566406 19.097656 31.695312 19.230469 31.859375 19.230469 L 32.9375 19.230469 L 32.9375 20.304688 C 32.9375 20.464844 33.070312 20.597656 33.230469 20.597656 C 33.390625 20.597656 33.523438 20.464844 33.523438 20.304688 L 33.523438 19.230469 L 34.601562 19.230469 C 34.761719 19.230469 34.894531 19.097656 34.894531 18.9375 C 34.894531 18.773438 34.761719 18.644531 34.601562 18.644531 L 33.523438 18.644531 L 33.523438 17.570312 C 33.523438 17.40625 33.390625 17.277344 33.230469 17.277344 Z M 33.230469 17.277344 " fill-opacity="1" fill-rule="nonzero"/><path fill="#ffffff" d="M 32.542969 29.925781 L 31.464844 29.925781 L 31.464844 28.851562 C 31.464844 28.6875 31.335938 28.558594 31.171875 28.558594 C 31.011719 28.558594 30.878906 28.6875 30.878906 28.851562 L 30.878906 29.925781 L 29.800781 29.925781 C 29.640625 29.925781 29.507812 30.054688 29.507812 30.21875 C 29.507812 30.378906 29.640625 30.511719 29.800781 30.511719 L 30.878906 30.511719 L 30.878906 31.585938 C 30.878906 31.746094 31.011719 31.878906 31.171875 31.878906 C 31.335938 31.878906 31.464844 31.746094 31.464844 31.585938 L 31.464844 30.511719 L 32.542969 30.511719 C 32.707031 30.511719 32.835938 30.378906 32.835938 30.21875 C 32.835938 30.054688 32.707031 29.925781 32.542969 29.925781 Z M 32.542969 29.925781 " fill-opacity="1" fill-rule="nonzero"/><path fill="#ffffff" d="M 16.480469 19.285156 L 16.480469 22.355469 C 16.480469 22.519531 16.613281 22.648438 16.773438 22.648438 L 21.574219 22.648438 C 21.734375 22.648438 21.867188 22.519531 21.867188 22.355469 L 21.867188 19.285156 C 21.867188 17.800781 20.660156 16.59375 19.171875 16.59375 C 17.6875 16.59375 16.480469 17.800781 16.480469 19.285156 Z M 18.882812 19.328125 L 17.066406 19.328125 L 17.066406 19.285156 C 17.066406 18.222656 17.855469 17.34375 18.882812 17.203125 Z M 19.46875 19.914062 L 21.28125 19.914062 L 21.28125 22.0625 L 19.46875 22.0625 Z M 19.46875 19.914062 " fill-opacity="1" fill-rule="nonzero"/><path fill="#ffffff" d="M 7.8125 24.75 C 7.8125 24.585938 7.679688 24.457031 7.519531 24.457031 L 6.441406 24.457031 L 6.441406 23.382812 C 6.441406 23.21875 6.308594 23.089844 6.148438 23.089844 C 5.984375 23.089844 5.855469 23.21875 5.855469 23.382812 L 5.855469 24.457031 L 4.777344 24.457031 C 4.613281 24.457031 4.480469 24.585938 4.480469 24.75 C 4.480469 24.910156 4.613281 25.042969 4.777344 25.042969 L 5.855469 25.042969 L 5.855469 26.117188 C 5.855469 26.277344 5.984375 26.410156 6.148438 26.410156 C 6.308594 26.410156 6.441406 26.277344 6.441406 26.117188 L 6.441406 25.042969 L 7.519531 25.042969 C 7.679688 25.042969 7.8125 24.910156 7.8125 24.75 Z M 7.8125 24.75 " fill-opacity="1" fill-rule="nonzero"/><path fill="#ffffff" d="M 5.410156 20.988281 C 5.410156 20.871094 5.339844 20.761719 5.226562 20.71875 C 4.882812 20.578125 4.386719 20.304688 3.976562 19.78125 C 3.53125 19.214844 3.390625 18.625 3.351562 18.226562 C 3.339844 18.074219 3.210938 17.960938 3.0625 17.960938 C 2.910156 17.960938 2.785156 18.074219 2.769531 18.226562 C 2.730469 18.625 2.589844 19.214844 2.144531 19.78125 C 1.734375 20.304688 1.238281 20.578125 0.894531 20.71875 C 0.785156 20.761719 0.710938 20.871094 0.710938 20.988281 C 0.710938 21.109375 0.785156 21.21875 0.894531 21.261719 C 1.238281 21.398438 1.734375 21.671875 2.144531 22.195312 C 2.589844 22.761719 2.730469 23.355469 2.769531 23.753906 C 2.785156 23.902344 2.910156 24.015625 3.0625 24.015625 C 3.210938 24.015625 3.339844 23.902344 3.351562 23.753906 C 3.390625 23.355469 3.53125 22.761719 3.976562 22.195312 C 4.386719 21.671875 4.882812 21.398438 5.226562 21.261719 C 5.339844 21.21875 5.410156 21.109375 5.410156 20.988281 Z M 3.515625 21.832031 C 3.316406 22.085938 3.171875 22.34375 3.0625 22.589844 C 2.953125 22.34375 2.804688 22.085938 2.605469 21.832031 C 2.304688 21.449219 1.964844 21.179688 1.65625 20.988281 C 1.96875 20.796875 2.304688 20.527344 2.605469 20.144531 C 2.804688 19.890625 2.953125 19.636719 3.0625 19.390625 C 3.171875 19.636719 3.316406 19.890625 3.515625 20.144531 C 3.816406 20.527344 4.15625 20.796875 4.46875 20.988281 C 4.15625 21.179688 3.816406 21.449219 3.515625 21.832031 Z M 3.515625 21.832031 " fill-opacity="1" fill-rule="nonzero"/></svg>