<svg xmlns="http://www.w3.org/2000/svg" xmlns:xlink="http://www.w3.org/1999/xlink" width="50" zoomAndPan="magnify" viewBox="0 0 37.5 37.499999" height="50" preserveAspectRatio="xMidYMid meet" version="1.0"><defs><clipPath id="a24230564e"><path d="M 2 4.394531 L 9 4.394531 L 9 11 L 2 11 Z M 2 4.394531 " clip-rule="nonzero"/></clipPath><clipPath id="9a6ec5dc48"><path d="M 17 13 L 37 13 L 37 32.519531 L 17 32.519531 Z M 17 13 " clip-rule="nonzero"/></clipPath><clipPath id="03568eab3d"><path d="M 21 24 L 26 24 L 26 32.519531 L 21 32.519531 Z M 21 24 " clip-rule="nonzero"/></clipPath><clipPath id="ffe991fb43"><path d="M 8 29 L 18 29 L 18 32.519531 L 8 32.519531 Z M 8 29 " clip-rule="nonzero"/></clipPath></defs><path fill="#ffffff" d="M 0.578125 12.046875 L 0.578125 17.261719 C 0.578125 17.261719 2.777344 17.261719 5.503906 17.261719 L 5.503906 18.066406 L 9.828125 18.066406 L 9.828125 17.261719 C 10.203125 17.261719 10.574219 17.261719 10.933594 17.261719 C 15.113281 17.261719 16.503906 12.699219 16.667969 12.097656 L 16.839844 12.097656 C 17.101562 12.097656 17.3125 11.886719 17.3125 11.628906 C 17.3125 11.367188 17.101562 11.15625 16.839844 11.15625 L 0.785156 11.15625 C 0.527344 11.15625 0.316406 11.367188 0.316406 11.628906 C 0.316406 11.8125 0.425781 11.972656 0.578125 12.046875 Z M 0.578125 12.046875 " fill-opacity="1" fill-rule="nonzero"/><path fill="#ffffff" d="M 8.246094 22.390625 L 8.246094 22.050781 L 8.082031 22.050781 C 8.082031 22.039062 8.082031 22.023438 8.082031 22.011719 L 8.082031 18.640625 L 7.027344 18.640625 L 7.027344 22.011719 C 7.027344 22.023438 7.027344 22.039062 7.027344 22.050781 L 6.8125 22.050781 L 6.8125 22.390625 L 6.988281 22.390625 C 6.8125 23.199219 6.089844 23.808594 5.230469 23.808594 C 4.371094 23.808594 3.648438 23.199219 3.476562 22.390625 L 3.632812 22.390625 L 3.632812 22.050781 L 3.4375 22.050781 C 3.4375 22.039062 3.433594 22.023438 3.433594 22.011719 L 3.433594 19.738281 L 0 19.738281 L 0 20.796875 L 2.378906 20.796875 L 2.378906 22.011719 C 2.378906 22.023438 2.378906 22.039062 2.378906 22.050781 L 2.199219 22.050781 L 2.199219 22.390625 L 2.40625 22.390625 C 2.59375 23.785156 3.789062 24.863281 5.230469 24.863281 C 6.675781 24.863281 7.867188 23.785156 8.054688 22.390625 Z M 8.246094 22.390625 " fill-opacity="1" fill-rule="nonzero"/><g clip-path="url(#a24230564e)"><path fill="#ffffff" d="M 8.773438 8.183594 L 8.773438 7.621094 C 8.773438 5.863281 7.34375 4.433594 5.585938 4.433594 C 3.832031 4.433594 2.402344 5.863281 2.402344 7.621094 L 2.402344 10.703125 L 3.609375 10.703125 L 3.609375 7.621094 C 3.609375 6.527344 4.496094 5.640625 5.585938 5.640625 C 6.679688 5.640625 7.566406 6.527344 7.566406 7.621094 L 7.566406 8.183594 Z M 8.773438 8.183594 " fill-opacity="1" fill-rule="nonzero"/></g><g clip-path="url(#9a6ec5dc48)"><path fill="#ffffff" d="M 22.714844 20.363281 C 23.082031 20.117188 23.515625 19.984375 23.960938 19.984375 C 24.179688 19.984375 24.394531 20.015625 24.605469 20.078125 L 27.402344 20.921875 L 29.617188 15.886719 C 29.867188 15.320312 30.425781 14.957031 31.042969 14.957031 C 31.257812 14.957031 31.46875 15 31.667969 15.089844 C 32.449219 15.433594 32.808594 16.351562 32.464844 17.136719 L 30.285156 22.085938 C 30.292969 22.113281 30.300781 22.136719 30.304688 22.160156 L 30.257812 22.148438 L 29.898438 22.964844 C 29.714844 23.382812 29.363281 23.695312 28.929688 23.828125 L 25.859375 24.757812 L 28.328125 25.503906 L 30.324219 24.296875 L 30.617188 23.804688 C 30.644531 24.03125 30.671875 24.257812 30.6875 24.484375 L 24.769531 28.054688 C 24.070312 28.476562 23.722656 29.308594 23.914062 30.105469 C 24.101562 30.90625 24.789062 31.488281 25.609375 31.546875 L 34.921875 32.226562 C 34.96875 32.230469 35.011719 32.230469 35.058594 32.230469 C 36.039062 32.230469 36.863281 31.476562 36.9375 30.484375 C 37.011719 29.445312 36.234375 28.542969 35.195312 28.464844 L 31.792969 28.21875 L 34.261719 26.730469 C 35.164062 26.351562 35.917969 25.589844 35.996094 23.929688 C 35.914062 21.101562 35.546875 19.289062 34.574219 17.089844 C 34.386719 16.667969 34.179688 16.230469 33.945312 15.765625 C 32.875 13.691406 30.929688 13.265625 29.699219 13.769531 C 29.59375 13.8125 29.5 13.867188 29.40625 13.929688 C 29.230469 14.019531 29.074219 14.15625 28.957031 14.332031 L 25.335938 19.746094 L 19.082031 20.449219 L 18.828125 18.285156 L 19.179688 18.242188 L 19.273438 19.066406 C 19.3125 19.386719 19.605469 19.621094 19.929688 19.582031 C 20.253906 19.542969 20.488281 19.25 20.449219 18.925781 L 20.351562 18.097656 C 20.773438 18 21.066406 17.597656 21.011719 17.152344 C 20.960938 16.710938 20.582031 16.386719 20.148438 16.390625 L 20.070312 15.71875 L 20.476562 15.671875 L 20.394531 14.996094 C 20.328125 14.429688 20.035156 13.996094 19.175781 14.097656 C 18.320312 14.199219 17.222656 14.796875 17.292969 15.363281 L 17.371094 16.039062 L 18.898438 15.859375 L 18.976562 16.523438 L 18.40625 16.589844 L 17.449219 16.703125 L 17.925781 20.738281 C 17.589844 20.988281 17.390625 21.402344 17.4375 21.847656 C 17.488281 22.296875 17.785156 22.664062 18.175781 22.824219 L 18.359375 24.402344 C 18.398438 24.726562 18.691406 24.960938 19.015625 24.921875 C 19.339844 24.882812 19.570312 24.589844 19.535156 24.265625 L 19.367188 22.847656 L 21.6875 22.585938 L 21.738281 22.011719 C 21.800781 21.339844 22.15625 20.742188 22.714844 20.363281 Z M 20.421875 17.183594 C 20.453125 17.441406 20.265625 17.679688 20.007812 17.707031 C 19.75 17.738281 19.511719 17.554688 19.480469 17.292969 C 19.453125 17.035156 19.636719 16.800781 19.894531 16.769531 C 20.15625 16.738281 20.390625 16.925781 20.421875 17.183594 Z M 20.421875 17.183594 " fill-opacity="1" fill-rule="nonzero"/></g><g clip-path="url(#03568eab3d)"><path fill="#ffffff" d="M 23.574219 30.1875 C 23.347656 29.238281 23.757812 28.261719 24.59375 27.757812 L 25.386719 27.277344 L 25.613281 24.832031 L 22.292969 25.839844 C 22.144531 25.882812 21.996094 25.90625 21.84375 25.90625 C 21.804688 25.90625 21.765625 25.902344 21.726562 25.902344 L 21.304688 30.472656 C 21.210938 31.511719 21.972656 32.429688 23.007812 32.523438 C 23.066406 32.53125 23.125 32.53125 23.183594 32.53125 C 23.835938 32.53125 24.425781 32.195312 24.761719 31.671875 C 24.179688 31.386719 23.734375 30.851562 23.574219 30.1875 Z M 23.574219 30.1875 " fill-opacity="1" fill-rule="nonzero"/></g><path fill="#ffffff" d="M 27.003906 21.164062 L 24.503906 20.410156 C 23.964844 20.246094 23.378906 20.335938 22.90625 20.652344 C 22.4375 20.96875 22.136719 21.480469 22.082031 22.042969 L 22.027344 22.671875 Z M 27.003906 21.164062 " fill-opacity="1" fill-rule="nonzero"/><path fill="#ffffff" d="M 24.515625 11.851562 C 25.964844 11.101562 26.972656 10.125 26.933594 9.554688 C 27.238281 10.054688 26.363281 11.277344 24.945312 12.316406 C 24.675781 12.515625 24.40625 12.695312 24.140625 12.851562 C 25.105469 14.21875 26.953125 14.695312 28.476562 13.902344 C 30.140625 13.039062 30.785156 10.992188 29.921875 9.328125 C 29.058594 7.664062 27.007812 7.019531 25.347656 7.882812 C 24.519531 8.3125 23.945312 9.035156 23.683594 9.855469 C 23.628906 9.882812 23.574219 9.90625 23.519531 9.933594 C 21.929688 10.761719 20.867188 11.859375 21.140625 12.390625 C 21.230469 12.554688 21.4375 12.648438 21.730469 12.667969 C 22.371094 12.710938 23.425781 12.421875 24.515625 11.851562 Z M 24.515625 11.851562 " fill-opacity="1" fill-rule="nonzero"/><path fill="#ffffff" d="M 21.839844 25.558594 C 21.957031 25.558594 22.074219 25.542969 22.191406 25.507812 L 28.828125 23.496094 C 29.164062 23.394531 29.441406 23.148438 29.582031 22.828125 L 32.144531 16.996094 C 32.414062 16.386719 32.136719 15.671875 31.527344 15.40625 C 30.917969 15.136719 30.203125 15.414062 29.9375 16.023438 L 27.597656 21.347656 L 21.492188 23.199219 C 20.855469 23.390625 20.496094 24.0625 20.6875 24.703125 C 20.84375 25.222656 21.324219 25.558594 21.839844 25.558594 Z M 21.839844 25.558594 " fill-opacity="1" fill-rule="nonzero"/><g clip-path="url(#ffe991fb43)"><path fill="#ffffff" d="M 8.046875 29.933594 L 17.496094 29.933594 L 17.496094 32.574219 L 8.046875 32.574219 Z M 8.046875 29.933594 " fill-opacity="1" fill-rule="nonzero"/></g><path fill="#ffffff" d="M 17.496094 29.601562 L 17.496094 27.847656 L 14.996094 27.847656 L 14.996094 26.691406 L 15.429688 26.691406 L 15.429688 26.238281 L 10.113281 26.238281 L 10.113281 26.691406 L 10.546875 26.691406 L 10.546875 27.847656 L 8.046875 27.847656 L 8.046875 29.601562 Z M 11 26.917969 L 14.542969 26.917969 L 14.542969 27.847656 L 11 27.847656 Z M 11 26.917969 " fill-opacity="1" fill-rule="nonzero"/></svg>