<svg xmlns="http://www.w3.org/2000/svg" xmlns:xlink="http://www.w3.org/1999/xlink" width="50" zoomAndPan="magnify" viewBox="0 0 37.5 37.499999" height="50" preserveAspectRatio="xMidYMid meet" version="1.0"><defs><clipPath id="5ac2a0eb7f"><path d="M 3 4.117188 L 19 4.117188 L 19 17 L 3 17 Z M 3 4.117188 " clip-rule="nonzero"/></clipPath><clipPath id="7f909b98ec"><path d="M 21 17 L 37.007812 17 L 37.007812 32.980469 L 21 32.980469 Z M 21 17 " clip-rule="nonzero"/></clipPath></defs><g clip-path="url(#5ac2a0eb7f)"><path fill="#ffffff" d="M 17.96875 10.480469 L 18.566406 10.480469 C 18.777344 10.480469 18.949219 10.308594 18.949219 10.09375 L 18.949219 8.941406 C 18.949219 8.726562 18.777344 8.554688 18.566406 8.554688 L 6.636719 8.554688 L 6.636719 5.882812 L 8.371094 5.882812 C 8.371094 5.882812 8.375 5.882812 8.394531 5.882812 C 8.46875 5.886719 8.667969 5.917969 8.824219 6.019531 C 8.980469 6.128906 9.113281 6.273438 9.121094 6.632812 L 9.542969 6.632812 C 9.550781 6.078125 9.238281 5.738281 8.945312 5.601562 C 8.652344 5.457031 8.386719 5.460938 8.371094 5.457031 L 6.636719 5.457031 L 6.636719 5.09375 L 6.832031 5.09375 L 6.832031 4.132812 L 5.097656 4.132812 L 5.097656 5.09375 L 5.292969 5.09375 L 5.292969 8.554688 L 4.1875 8.554688 C 3.972656 8.554688 3.800781 8.726562 3.800781 8.941406 L 3.800781 10.09375 C 3.800781 10.308594 3.972656 10.480469 4.1875 10.480469 L 4.714844 10.480469 L 4.714844 15.671875 L 8.851562 15.671875 L 8.851562 15.867188 C 8.851562 16.078125 9.023438 16.25 9.234375 16.25 L 12.503906 16.25 C 12.71875 16.25 12.890625 16.078125 12.890625 15.867188 L 12.890625 15.671875 L 13.179688 15.671875 C 13.320312 15.671875 13.785156 15.671875 15.101562 15.671875 C 17.320312 15.671875 17.875 11.433594 17.96875 10.480469 Z M 6.0625 5.882812 Z M 6.0625 5.882812 " fill-opacity="1" fill-rule="nonzero"/></g><path fill="#ffffff" d="M 10.164062 16.828125 L 10.164062 21.269531 C 10.160156 22.570312 9.109375 23.621094 7.808594 23.625 C 6.507812 23.621094 5.453125 22.570312 5.453125 21.269531 L 5.453125 18.265625 L 0.917969 18.265625 L 0.917969 19.675781 L 4.039062 19.675781 L 4.039062 21.269531 C 4.039062 23.347656 5.726562 25.035156 7.808594 25.035156 C 9.890625 25.035156 11.578125 23.347656 11.578125 21.269531 L 11.578125 16.828125 Z M 10.164062 16.828125 " fill-opacity="1" fill-rule="nonzero"/><path fill="#ffffff" d="M 0 17.414062 L 0.917969 17.414062 L 0.917969 20.5 L 0 20.5 Z M 0 17.414062 " fill-opacity="1" fill-rule="nonzero"/><path fill="#ffffff" d="M 24.273438 11.832031 C 24.570312 12.128906 24.804688 12.472656 24.964844 12.859375 C 25.128906 13.25 25.210938 13.652344 25.214844 14.074219 C 25.214844 14.496094 25.136719 14.902344 24.976562 15.292969 C 24.816406 15.683594 24.589844 16.027344 24.292969 16.324219 C 23.996094 16.625 23.652344 16.855469 23.265625 17.019531 C 22.875 17.183594 22.472656 17.265625 22.050781 17.265625 C 21.628906 17.269531 21.222656 17.191406 20.832031 17.03125 C 20.445312 16.871094 20.097656 16.644531 19.800781 16.347656 C 19.5 16.050781 19.269531 15.707031 19.105469 15.320312 C 18.941406 14.929688 18.859375 14.523438 18.859375 14.105469 C 18.855469 13.683594 18.9375 13.277344 19.09375 12.886719 C 19.253906 12.496094 19.484375 12.152344 19.78125 11.851562 C 20.074219 11.554688 20.417969 11.324219 20.808594 11.160156 C 21.195312 10.996094 21.601562 10.914062 22.023438 10.910156 C 22.445312 10.910156 22.847656 10.988281 23.238281 11.148438 C 23.628906 11.308594 23.972656 11.535156 24.273438 11.832031 Z M 24.273438 11.832031 " fill-opacity="1" fill-rule="nonzero"/><g clip-path="url(#7f909b98ec)"><path fill="#ffffff" d="M 35.242188 29.34375 L 31.113281 29.34375 L 32.574219 27.777344 C 33.515625 27.144531 34.167969 26.339844 33.417969 24.394531 C 32.054688 21.542969 30.894531 20.082031 28.5625 18.179688 C 26.863281 16.808594 25.03125 17.183594 24.171875 18.082031 C 23.726562 18.542969 23.632812 19.222656 23.796875 19.90625 C 24.433594 19.394531 24.804688 18.941406 24.808594 18.9375 C 25.082031 18.59375 25.484375 18.398438 25.921875 18.398438 C 26.242188 18.398438 26.542969 18.503906 26.792969 18.699219 C 27.089844 18.933594 27.277344 19.269531 27.324219 19.644531 C 27.367188 20.019531 27.261719 20.386719 27.027344 20.683594 C 26.867188 20.886719 26.320312 21.527344 25.414062 22.226562 C 25.976562 22.765625 26.632812 23.347656 27.277344 23.976562 L 23.296875 23.835938 C 22.820312 23.820312 22.355469 24 22.011719 24.332031 C 21.664062 24.664062 21.472656 25.121094 21.472656 25.601562 L 21.472656 31.109375 C 21.472656 32.085938 22.261719 32.875 23.238281 32.875 C 24.210938 32.875 25.003906 32.085938 25.003906 31.109375 L 25 27.429688 L 27.972656 27.535156 L 25.757812 29.90625 C 25.28125 30.417969 25.152344 31.167969 25.429688 31.8125 C 25.710938 32.457031 26.347656 32.875 27.050781 32.875 L 35.242188 32.875 C 36.21875 32.875 37.007812 32.085938 37.007812 31.109375 C 37.007812 30.132812 36.21875 29.34375 35.242188 29.34375 Z M 35.242188 29.34375 " fill-opacity="1" fill-rule="nonzero"/></g><path fill="#ffffff" d="M 17.496094 24.996094 C 17.671875 25.382812 18.128906 25.550781 18.515625 25.371094 C 18.902344 25.195312 19.070312 24.738281 18.890625 24.351562 L 18.8125 24.179688 C 18.179688 24.101562 17.542969 23.953125 16.914062 23.734375 Z M 17.496094 24.996094 " fill-opacity="1" fill-rule="nonzero"/><path fill="#ffffff" d="M 16.878906 20.796875 C 17.019531 20.796875 17.152344 20.820312 17.285156 20.859375 L 16.960938 20.15625 C 17.445312 19.605469 17.589844 18.804688 17.265625 18.097656 C 16.9375 17.386719 16.234375 16.976562 15.5 16.988281 L 15.996094 18.066406 C 16.175781 18.449219 16.007812 18.910156 15.621094 19.085938 C 15.234375 19.261719 14.777344 19.09375 14.601562 18.707031 L 14.105469 17.632812 C 13.621094 18.179688 13.472656 18.984375 13.800781 19.691406 C 14.125 20.398438 14.832031 20.808594 15.5625 20.800781 L 15.796875 21.304688 C 16.058594 20.988281 16.453125 20.796875 16.878906 20.796875 Z M 16.878906 20.796875 " fill-opacity="1" fill-rule="nonzero"/><path fill="#ffffff" d="M 26.621094 18.921875 C 26.128906 18.535156 25.421875 18.621094 25.035156 19.109375 C 25.007812 19.140625 24.449219 19.820312 23.519531 20.460938 C 22.585938 21.105469 21.316406 21.699219 19.8125 21.699219 C 19.058594 21.699219 18.234375 21.554688 17.320312 21.167969 C 16.742188 20.925781 16.082031 21.199219 15.839844 21.773438 C 15.597656 22.347656 15.867188 23.011719 16.441406 23.253906 C 17.617188 23.75 18.757812 23.960938 19.808594 23.960938 C 19.808594 23.960938 19.8125 23.960938 19.8125 23.960938 C 21.992188 23.957031 23.738281 23.082031 24.917969 22.242188 C 26.105469 21.394531 26.761719 20.566406 26.808594 20.507812 C 27.195312 20.019531 27.109375 19.308594 26.621094 18.921875 Z M 26.621094 18.921875 " fill-opacity="1" fill-rule="nonzero"/></svg>