<svg xmlns="http://www.w3.org/2000/svg" xmlns:xlink="http://www.w3.org/1999/xlink" width="50" zoomAndPan="magnify" viewBox="0 0 37.5 37.499999" height="50" preserveAspectRatio="xMidYMid meet" version="1.0"><defs><clipPath id="eb38e994e0"><path d="M 0 19 L 31 19 L 31 37.007812 L 0 37.007812 Z M 0 19 " clip-rule="nonzero"/></clipPath></defs><path fill="#00e220" d="M 17.710938 34.992188 C 17.941406 35 18.125 35.195312 18.117188 35.429688 C 18.109375 35.664062 17.914062 35.84375 17.679688 35.835938 C 15.519531 35.738281 13.410156 35.242188 11.46875 34.375 C 9.523438 33.511719 7.75 32.28125 6.226562 30.738281 C 6.0625 30.574219 6.070312 30.304688 6.234375 30.144531 C 6.402344 29.980469 6.671875 29.980469 6.828125 30.152344 C 8.277344 31.621094 9.96875 32.789062 11.8125 33.609375 C 13.652344 34.421875 15.652344 34.902344 17.710938 34.992188 " fill-opacity="1" fill-rule="nonzero"/><path fill="#00e220" d="M 2.75 23 C 2.808594 23.226562 2.675781 23.460938 2.449219 23.519531 C 2.222656 23.578125 1.988281 23.445312 1.929688 23.21875 C 1.175781 20.417969 1.167969 17.527344 1.832031 14.792969 C 2.492188 12.0625 3.832031 9.492188 5.785156 7.347656 C 7.734375 5.203125 10.15625 3.628906 12.816406 2.703125 C 15.464844 1.785156 18.347656 1.519531 21.210938 1.996094 C 21.441406 2.03125 21.59375 2.25 21.554688 2.484375 C 21.519531 2.71875 21.300781 2.867188 21.066406 2.832031 C 18.347656 2.378906 15.609375 2.628906 13.085938 3.5 C 10.5625 4.375 8.253906 5.871094 6.402344 7.914062 C 4.550781 9.953125 3.277344 12.390625 2.644531 14.988281 C 2.027344 17.585938 2.035156 20.34375 2.75 23 " fill-opacity="1" fill-rule="nonzero"/><path fill="#00e220" d="M 23.355469 3.394531 C 23.128906 3.328125 23.007812 3.085938 23.085938 2.859375 C 23.152344 2.636719 23.394531 2.515625 23.617188 2.589844 C 27.804688 3.929688 31.132812 6.761719 33.171875 10.320312 C 35.222656 13.882812 35.980469 18.175781 35.039062 22.464844 C 34.988281 22.691406 34.761719 22.84375 34.535156 22.789062 C 34.308594 22.738281 34.160156 22.511719 34.210938 22.285156 C 35.109375 18.203125 34.386719 14.125 32.433594 10.734375 C 30.492188 7.355469 27.332031 4.667969 23.355469 3.394531 " fill-opacity="1" fill-rule="nonzero"/><path fill="#00e220" d="M 13.742188 1.4375 C 13.628906 1.46875 13.515625 1.398438 13.484375 1.296875 C 13.457031 1.183594 13.523438 1.070312 13.628906 1.039062 C 17.503906 0 21.496094 0.277344 25.050781 1.65625 C 28.617188 3.050781 31.742188 5.535156 33.902344 8.914062 C 36.0625 12.292969 36.996094 16.1875 36.75 19.996094 C 36.5 23.804688 35.070312 27.539062 32.496094 30.621094 C 32.421875 30.710938 32.292969 30.71875 32.203125 30.640625 C 32.113281 30.566406 32.105469 30.4375 32.179688 30.347656 C 34.703125 27.34375 36.09375 23.691406 36.335938 19.964844 C 36.574219 16.238281 35.65625 12.445312 33.550781 9.132812 C 31.441406 5.828125 28.378906 3.394531 24.898438 2.039062 C 21.429688 0.699219 17.527344 0.429688 13.742188 1.4375 " fill-opacity="1" fill-rule="nonzero"/><g clip-path="url(#eb38e994e0)"><path fill="#00e220" d="M 30.589844 32.019531 C 30.671875 31.945312 30.800781 31.945312 30.882812 32.035156 C 30.96875 32.125 30.953125 32.246094 30.871094 32.328125 C 28.242188 34.746094 25.035156 36.296875 21.660156 36.90625 C 18.289062 37.515625 14.734375 37.175781 11.429688 35.820312 C 8.125 34.464844 5.363281 32.222656 3.375 29.421875 C 1.394531 26.621094 0.199219 23.269531 0.015625 19.703125 C 0.0078125 19.589844 0.0976562 19.492188 0.210938 19.484375 C 0.324219 19.476562 0.421875 19.566406 0.429688 19.679688 C 0.605469 23.164062 1.777344 26.449219 3.714844 29.179688 C 5.648438 31.921875 8.351562 34.113281 11.582031 35.4375 C 14.808594 36.761719 18.28125 37.085938 21.578125 36.492188 C 24.890625 35.902344 28.023438 34.382812 30.589844 32.019531 " fill-opacity="1" fill-rule="nonzero"/></g><path fill="#00e220" d="M 0.484375 17.128906 C 0.476562 17.242188 0.371094 17.324219 0.257812 17.316406 C 0.144531 17.308594 0.0625 17.203125 0.0703125 17.089844 C 0.394531 13.648438 1.664062 10.433594 3.667969 7.769531 C 5.664062 5.105469 8.386719 2.980469 11.609375 1.710938 C 11.714844 1.664062 11.835938 1.714844 11.882812 1.820312 C 11.925781 1.925781 11.875 2.046875 11.769531 2.09375 C 8.613281 3.335938 5.949219 5.414062 4 8.019531 C 2.042969 10.621094 0.800781 13.761719 0.484375 17.128906 " fill-opacity="1" fill-rule="nonzero"/><path fill="#00e220" d="M 7.160156 27.773438 C 7.238281 27.796875 7.289062 27.855469 7.296875 27.929688 C 7.3125 28.007812 7.273438 28.082031 7.214844 28.128906 C 6.988281 28.285156 6.746094 28.398438 6.492188 28.464844 C 6.039062 28.585938 5.671875 28.519531 5.59375 28.300781 C 5.511719 28.074219 5.761719 27.847656 6.160156 27.734375 C 6.476562 27.652344 6.808594 27.660156 7.160156 27.773438 M 9.933594 24.835938 C 10.1875 23.738281 10.171875 22.789062 9.902344 22.007812 C 9.488281 20.839844 8.472656 20.273438 7.109375 20.644531 C 3.601562 21.585938 2.96875 27.742188 5.257812 27.125 L 5.292969 27.117188 C 5.363281 27.097656 5.40625 27.050781 5.429688 26.984375 C 5.453125 26.914062 5.4375 26.847656 5.382812 26.792969 C 4.121094 25.363281 5.429688 21.621094 7.132812 21.164062 C 7.855469 20.96875 8.375 21.3125 8.683594 22.179688 C 8.9375 22.894531 9 23.78125 8.863281 24.828125 C 8.734375 25.800781 8.449219 26.628906 8.011719 27.292969 C 7.960938 27.367188 7.867188 27.398438 7.785156 27.375 C 7.117188 27.15625 6.519531 27.117188 5.980469 27.261719 C 5.113281 27.496094 4.730469 28.066406 4.910156 28.578125 C 5.074219 29.054688 5.632812 29.242188 6.476562 29.015625 C 6.972656 28.878906 7.449219 28.640625 7.898438 28.285156 C 7.96875 28.234375 8.058594 28.226562 8.132812 28.277344 C 8.269531 28.367188 8.433594 28.488281 8.636719 28.640625 C 8.902344 28.835938 9.117188 28.992188 9.292969 29.105469 C 9.472656 29.234375 9.683594 29.355469 9.910156 29.46875 C 10.316406 29.6875 10.714844 29.761719 11.105469 29.699219 C 11.210938 29.6875 11.28125 29.59375 11.273438 29.488281 C 11.257812 29.292969 11.273438 29.0625 11.324219 28.804688 C 11.339844 28.722656 11.355469 28.648438 11.371094 28.578125 C 11.386719 28.511719 11.371094 28.441406 11.316406 28.390625 C 11.265625 28.339844 11.195312 28.324219 11.128906 28.339844 C 10.859375 28.398438 10.535156 28.382812 10.324219 28.351562 C 10.210938 28.339844 10.066406 28.308594 9.855469 28.234375 C 9.652344 28.15625 9.519531 28.113281 9.441406 28.074219 C 9.375 28.042969 9.210938 27.984375 8.960938 27.871094 L 8.75 27.773438 C 8.691406 27.742188 8.652344 27.699219 8.636719 27.636719 C 8.621094 27.578125 8.636719 27.515625 8.675781 27.464844 C 9.285156 26.726562 9.699219 25.847656 9.933594 24.835938 Z M 9.933594 24.835938 " fill-opacity="1" fill-rule="evenodd"/><path fill="#00e220" d="M 11.226562 23.78125 L 11.03125 25.664062 C 10.976562 26.164062 10.972656 26.5 11.023438 26.695312 C 11.136719 27.125 11.46875 27.390625 11.996094 27.246094 C 12.363281 27.148438 12.6875 26.871094 12.972656 26.425781 C 13.011719 26.359375 13.078125 26.328125 13.152344 26.335938 C 13.230469 26.34375 13.289062 26.386719 13.320312 26.457031 C 13.523438 26.914062 13.90625 27.171875 14.375 27.148438 C 14.449219 27.140625 14.515625 27.101562 14.546875 27.027344 C 14.578125 26.960938 14.570312 26.878906 14.515625 26.824219 C 14.410156 26.6875 14.328125 26.523438 14.277344 26.3125 C 14.1875 25.980469 14.191406 25.355469 14.289062 24.453125 L 14.554688 22.097656 C 14.5625 22.019531 14.53125 21.960938 14.480469 21.914062 C 14.417969 21.871094 14.351562 21.863281 14.285156 21.886719 L 13.628906 22.140625 C 13.554688 22.171875 13.507812 22.230469 13.5 22.308594 L 13.265625 24.582031 C 13.019531 25.664062 12.710938 26.261719 12.332031 26.359375 C 12.167969 26.402344 12.070312 26.34375 12.023438 26.183594 C 11.996094 26.070312 11.996094 25.945312 12.011719 25.785156 L 12.347656 22.757812 C 12.355469 22.683594 12.324219 22.617188 12.265625 22.570312 C 12.207031 22.527344 12.128906 22.527344 12.0625 22.554688 C 11.964844 22.601562 11.851562 22.652344 11.722656 22.722656 C 11.542969 22.804688 11.378906 22.878906 11.242188 22.933594 C 11.183594 22.953125 11.144531 23 11.128906 23.054688 C 11.105469 23.113281 11.113281 23.164062 11.152344 23.21875 C 11.175781 23.257812 11.195312 23.308594 11.210938 23.363281 C 11.234375 23.488281 11.242188 23.625 11.226562 23.78125 " fill-opacity="1" fill-rule="evenodd"/><path fill="#00e220" d="M 27.496094 24.609375 C 27.753906 24.332031 28.0625 24.089844 28.421875 23.894531 C 28.496094 23.859375 28.582031 23.867188 28.640625 23.910156 C 28.707031 23.964844 28.730469 24.039062 28.707031 24.121094 C 28.609375 24.46875 28.488281 24.792969 28.347656 25.085938 C 28.136719 25.5 27.878906 25.75 27.542969 25.839844 C 27.300781 25.90625 27.148438 25.824219 27.097656 25.621094 C 27.015625 25.328125 27.148438 24.988281 27.496094 24.609375 M 15.140625 23.933594 C 15.027344 24.558594 15.027344 25.085938 15.148438 25.523438 C 15.324219 26.167969 15.714844 26.410156 16.316406 26.253906 C 16.707031 26.148438 17.007812 25.859375 17.226562 25.386719 C 17.257812 25.320312 17.324219 25.273438 17.398438 25.273438 C 17.476562 25.273438 17.542969 25.3125 17.582031 25.378906 C 17.746094 25.6875 18.019531 25.792969 18.410156 25.6875 C 18.808594 25.582031 19.148438 25.304688 19.425781 24.867188 C 19.464844 24.808594 19.523438 24.777344 19.589844 24.777344 C 19.660156 24.777344 19.71875 24.808594 19.757812 24.859375 C 19.921875 25.09375 20.199219 25.207031 20.585938 25.109375 C 21.027344 24.988281 21.390625 24.695312 21.683594 24.21875 C 21.722656 24.160156 21.78125 24.121094 21.851562 24.121094 C 21.917969 24.121094 21.984375 24.152344 22.023438 24.210938 C 22.1875 24.46875 22.476562 24.597656 22.875 24.492188 C 23.308594 24.371094 23.6875 24.0625 23.980469 23.550781 L 24.039062 23.445312 C 24.078125 23.382812 24.136719 23.347656 24.207031 23.339844 C 24.273438 23.332031 24.339844 23.367188 24.378906 23.429688 C 24.613281 23.78125 25.019531 23.910156 25.507812 23.78125 C 25.984375 23.65625 26.375 23.347656 26.699219 22.847656 C 26.734375 22.789062 26.796875 22.757812 26.871094 22.757812 C 26.9375 22.757812 27 22.796875 27.035156 22.855469 C 27.203125 23.121094 27.488281 23.257812 27.894531 23.152344 C 28.152344 23.082031 28.378906 22.933594 28.582031 22.707031 C 28.640625 22.640625 28.730469 22.617188 28.8125 22.652344 C 28.898438 22.691406 28.941406 22.765625 28.933594 22.855469 L 28.925781 22.910156 C 28.925781 22.933594 28.917969 23.007812 28.902344 23.082031 C 28.898438 23.160156 28.84375 23.21875 28.777344 23.242188 C 28.023438 23.519531 27.414062 23.894531 26.9375 24.347656 C 26.441406 24.820312 26.261719 25.289062 26.382812 25.742188 C 26.511719 26.214844 26.933594 26.484375 27.675781 26.28125 C 28.378906 26.09375 28.941406 25.613281 29.265625 25.023438 C 29.558594 24.492188 29.695312 24.203125 29.785156 23.730469 C 29.800781 23.640625 29.875 23.578125 29.964844 23.566406 C 31.636719 23.355469 33.097656 24.210938 32.675781 25.890625 C 32.546875 26.410156 32.367188 26.984375 32.050781 27.523438 C 30.628906 29.980469 27.753906 32.304688 25.214844 33.488281 C 23.65625 34.210938 21.984375 34.691406 20.238281 34.894531 C 20.003906 34.925781 19.839844 35.136719 19.871094 35.363281 C 19.898438 35.59375 20.109375 35.761719 20.335938 35.730469 C 22.171875 35.519531 23.933594 35.015625 25.570312 34.253906 C 28.265625 33 31.269531 30.550781 32.78125 27.945312 C 33.203125 27.214844 33.503906 26.457031 33.550781 25.71875 C 33.699219 23.347656 32.292969 22.539062 30.175781 22.878906 C 30.109375 22.886719 30.054688 22.871094 30.011719 22.828125 C 29.964844 22.78125 29.941406 22.722656 29.949219 22.660156 L 30.460938 18.046875 C 30.46875 17.972656 30.441406 17.910156 30.386719 17.867188 C 30.328125 17.820312 30.257812 17.8125 30.191406 17.84375 L 30.035156 17.902344 C 29.851562 17.972656 29.695312 18.023438 29.566406 18.054688 C 29.484375 18.078125 29.429688 18.144531 29.417969 18.226562 L 29.183594 20.476562 C 28.933594 21.5625 28.625 22.164062 28.257812 22.261719 C 28.089844 22.308594 27.992188 22.246094 27.949219 22.089844 C 27.917969 21.976562 27.917969 21.847656 27.933594 21.691406 L 28.273438 18.640625 C 28.277344 18.566406 28.25 18.496094 28.1875 18.453125 C 28.128906 18.40625 28.054688 18.398438 27.984375 18.4375 C 27.789062 18.527344 27.503906 18.65625 27.136719 18.8125 C 27.074219 18.835938 27.035156 18.882812 27.023438 18.941406 C 27.007812 19.003906 27.015625 19.054688 27.042969 19.109375 C 27.074219 19.152344 27.097656 19.207031 27.113281 19.265625 C 27.140625 19.386719 27.148438 19.53125 27.128906 19.679688 L 26.96875 21.179688 L 26.960938 21.207031 C 26.691406 22.203125 26.246094 22.789062 25.621094 22.953125 C 25.386719 23.015625 25.253906 22.941406 25.191406 22.714844 C 25.164062 22.617188 25.164062 22.519531 25.183594 22.414062 L 25.5 19.65625 C 25.507812 19.574219 25.570312 19.507812 25.644531 19.484375 L 26.222656 19.324219 C 26.308594 19.304688 26.367188 19.234375 26.375 19.152344 L 26.375 19.121094 C 26.382812 19.054688 26.359375 18.996094 26.308594 18.949219 C 26.253906 18.90625 26.195312 18.890625 26.125 18.910156 L 25.855469 18.988281 C 25.789062 19.003906 25.726562 18.988281 25.675781 18.941406 C 25.621094 18.898438 25.597656 18.835938 25.605469 18.769531 L 25.824219 16.835938 C 25.832031 16.757812 25.800781 16.691406 25.742188 16.644531 C 25.683594 16.601562 25.605469 16.59375 25.539062 16.632812 C 25.34375 16.722656 25.058594 16.847656 24.6875 17.007812 C 24.628906 17.03125 24.589844 17.074219 24.574219 17.136719 C 24.558594 17.195312 24.566406 17.25 24.597656 17.300781 C 24.628906 17.347656 24.652344 17.398438 24.664062 17.460938 C 24.695312 17.578125 24.703125 17.722656 24.679688 17.875 L 24.539062 19.199219 C 24.53125 19.28125 24.46875 19.347656 24.386719 19.371094 L 24.039062 19.460938 C 23.957031 19.484375 23.898438 19.550781 23.890625 19.636719 L 23.890625 19.664062 C 23.882812 19.734375 23.90625 19.792969 23.957031 19.839844 C 24.011719 19.882812 24.070312 19.898438 24.136719 19.875 L 24.183594 19.859375 C 24.25 19.84375 24.3125 19.859375 24.363281 19.90625 C 24.417969 19.949219 24.441406 20.011719 24.433594 20.078125 L 24.222656 21.9375 L 24.214844 21.96875 C 24.125 22.277344 24.011719 22.578125 23.859375 22.878906 C 23.664062 23.285156 23.445312 23.519531 23.203125 23.578125 C 23.039062 23.625 22.941406 23.566406 22.894531 23.40625 C 22.867188 23.292969 22.867188 23.164062 22.882812 23.007812 L 23.21875 19.980469 C 23.226562 19.90625 23.199219 19.839844 23.136719 19.792969 C 23.078125 19.746094 23 19.746094 22.933594 19.777344 C 22.835938 19.824219 22.722656 19.875 22.59375 19.945312 C 22.40625 20.027344 22.25 20.101562 22.113281 20.152344 C 22.054688 20.175781 22.015625 20.214844 22 20.273438 C 21.976562 20.335938 21.984375 20.386719 22.015625 20.441406 C 22.039062 20.476562 22.0625 20.53125 22.074219 20.582031 C 22.105469 20.703125 22.113281 20.847656 22.089844 20.996094 L 21.933594 22.480469 L 21.925781 22.511719 C 21.828125 22.855469 21.714844 23.1875 21.5625 23.503906 C 21.382812 23.886719 21.164062 24.113281 20.910156 24.183594 C 20.742188 24.226562 20.644531 24.167969 20.601562 24.007812 C 20.570312 23.894531 20.570312 23.769531 20.585938 23.609375 L 21.300781 17.308594 C 21.308594 17.234375 21.277344 17.164062 21.21875 17.121094 C 21.15625 17.074219 21.082031 17.074219 21.015625 17.105469 C 20.917969 17.15625 20.804688 17.210938 20.667969 17.277344 C 20.488281 17.359375 20.328125 17.429688 20.195312 17.480469 C 20.132812 17.503906 20.09375 17.550781 20.082031 17.609375 C 20.058594 17.667969 20.074219 17.730469 20.101562 17.78125 C 20.125 17.820312 20.148438 17.867188 20.164062 17.910156 C 20.195312 18.03125 20.199219 18.175781 20.179688 18.324219 L 19.613281 23.414062 L 19.605469 23.453125 C 19.53125 23.675781 19.457031 23.886719 19.359375 24.097656 C 19.175781 24.492188 18.964844 24.710938 18.742188 24.769531 C 18.574219 24.816406 18.476562 24.753906 18.433594 24.597656 C 18.402344 24.484375 18.402344 24.355469 18.417969 24.195312 L 18.753906 21.15625 C 18.761719 21.082031 18.734375 21.019531 18.679688 20.976562 C 18.621094 20.929688 18.550781 20.921875 18.484375 20.953125 C 18.347656 21.011719 18.167969 21.074219 17.957031 21.132812 C 17.867188 21.15625 17.808594 21.238281 17.8125 21.328125 C 17.8125 21.402344 17.8125 21.5 17.820312 21.621094 L 17.835938 22.035156 L 17.777344 22.074219 C 17.777344 22.035156 17.761719 21.984375 17.746094 21.910156 C 17.597656 21.351562 17.296875 21.140625 16.84375 21.261719 C 16.453125 21.367188 16.097656 21.675781 15.78125 22.195312 C 15.480469 22.746094 15.269531 23.308594 15.140625 23.933594 Z M 17.550781 22.894531 L 17.386719 23.714844 C 17.355469 23.894531 17.289062 24.136719 17.203125 24.429688 C 17.046875 25.023438 16.84375 25.320312 16.59375 25.386719 C 16.421875 25.433594 16.300781 25.328125 16.234375 25.078125 C 16.15625 24.808594 16.152344 24.421875 16.21875 23.925781 C 16.285156 23.429688 16.40625 22.960938 16.585938 22.539062 C 16.769531 22.105469 16.949219 21.871094 17.144531 21.816406 C 17.308594 21.773438 17.421875 21.886719 17.492188 22.132812 C 17.519531 22.292969 17.542969 22.554688 17.550781 22.894531 Z M 17.550781 22.894531 " fill-opacity="1" fill-rule="evenodd"/><path fill="#00e220" d="M 22.113281 18.601562 C 22.203125 18.957031 22.558594 19.167969 22.902344 19.070312 C 23.257812 18.980469 23.4375 18.617188 23.347656 18.273438 C 23.25 17.910156 22.910156 17.699219 22.566406 17.789062 C 22.21875 17.878906 22.023438 18.242188 22.113281 18.601562 " fill-opacity="1" fill-rule="evenodd"/><path fill="#00e220" d="M 13.628906 19.550781 C 14.382812 19.347656 14.9375 18.925781 15.300781 18.292969 C 15.667969 17.667969 15.765625 17.023438 15.59375 16.375 C 15.414062 15.691406 14.910156 15.140625 14.285156 14.855469 C 14.222656 14.824219 14.179688 14.769531 14.171875 14.703125 C 14.164062 14.636719 14.1875 14.566406 14.238281 14.523438 C 14.9375 13.90625 15.351562 13.101562 15.113281 12.1875 C 14.921875 11.496094 14.480469 11.042969 13.773438 10.828125 C 13.0625 10.609375 12.242188 10.621094 11.285156 10.878906 C 9.089844 11.421875 7.214844 13.207031 7.6875 14.800781 C 7.914062 15.628906 8.589844 15.929688 9.300781 15.742188 C 9.691406 15.636719 9.96875 15.433594 10.113281 15.148438 C 10.253906 14.871094 10.300781 14.597656 10.234375 14.335938 C 10.210938 14.246094 10.144531 14.183594 10.050781 14.183594 C 9.960938 14.175781 9.886719 14.230469 9.847656 14.3125 C 9.773438 14.515625 9.609375 14.660156 9.40625 14.710938 C 9.089844 14.792969 8.855469 14.589844 8.765625 14.25 C 8.628906 13.738281 8.832031 13.191406 9.390625 12.59375 C 9.945312 11.992188 10.65625 11.578125 11.519531 11.347656 L 11.664062 11.308594 C 11.746094 11.285156 11.828125 11.324219 11.875 11.390625 C 11.917969 11.464844 11.917969 11.550781 11.867188 11.625 C 11.722656 11.8125 11.589844 12.054688 11.46875 12.347656 C 11.226562 12.902344 11.039062 13.515625 10.878906 14.191406 C 10.730469 14.855469 10.570312 15.53125 10.382812 16.203125 C 10.210938 16.871094 9.976562 17.464844 9.652344 17.992188 C 9.421875 18.378906 8.902344 19.03125 8.457031 19.417969 C 8.394531 19.46875 8.375 19.542969 8.394531 19.621094 C 8.417969 19.695312 8.472656 19.746094 8.546875 19.761719 C 9 19.851562 9.570312 20.070312 9.925781 20.554688 C 9.96875 20.605469 10.03125 20.636719 10.097656 20.636719 C 10.164062 20.628906 10.226562 20.597656 10.253906 20.53125 C 10.503906 20.078125 10.746094 19.46875 10.941406 18.898438 C 10.964844 18.828125 11.023438 18.777344 11.097656 18.761719 C 11.175781 18.746094 11.242188 18.777344 11.285156 18.835938 C 11.804688 19.46875 12.613281 19.824219 13.628906 19.550781 M 13.125 18.460938 C 12.425781 18.648438 11.753906 18.4375 11.339844 18.089844 C 11.28125 18.039062 11.257812 17.964844 11.273438 17.886719 C 11.414062 17.332031 11.535156 16.730469 11.625 16.105469 L 12.023438 13.289062 C 12.152344 12.347656 12.363281 11.691406 12.648438 11.316406 C 12.695312 11.253906 12.769531 11.226562 12.84375 11.242188 C 13.476562 11.347656 13.882812 11.714844 14.050781 12.339844 C 14.148438 12.707031 14.140625 13.121094 14.035156 13.566406 C 13.9375 13.980469 13.71875 14.320312 13.394531 14.582031 C 13.359375 14.613281 13.3125 14.628906 13.265625 14.628906 C 13.109375 14.628906 12.949219 14.652344 12.785156 14.695312 C 12.394531 14.800781 12.199219 15.003906 12.25 15.191406 C 12.304688 15.386719 12.484375 15.449219 12.800781 15.367188 C 12.964844 15.320312 13.175781 15.238281 13.410156 15.109375 C 13.460938 15.078125 13.515625 15.078125 13.574219 15.09375 C 13.996094 15.246094 14.289062 15.605469 14.441406 16.171875 C 14.59375 16.730469 14.53125 17.21875 14.269531 17.640625 C 14.011719 18.046875 13.628906 18.324219 13.125 18.460938 Z M 13.125 18.460938 " fill-opacity="1" fill-rule="evenodd"/><path fill="#00e220" d="M 6.808594 19.851562 C 6.816406 19.964844 6.730469 20.070312 6.621094 20.085938 C 6.507812 20.09375 6.402344 20.011719 6.386719 19.898438 C 6.316406 19.121094 6.316406 18.347656 6.402344 17.570312 C 6.484375 16.804688 6.632812 16.035156 6.859375 15.289062 C 6.890625 15.179688 7.011719 15.117188 7.125 15.148438 C 7.238281 15.179688 7.296875 15.296875 7.265625 15.410156 C 7.046875 16.125 6.898438 16.863281 6.824219 17.609375 C 6.746094 18.355469 6.738281 19.109375 6.808594 19.851562 " fill-opacity="1" fill-rule="nonzero"/><path fill="#00e220" d="M 10.234375 10.515625 C 10.148438 10.601562 10.015625 10.601562 9.933594 10.515625 C 9.847656 10.433594 9.847656 10.300781 9.933594 10.214844 C 11.574219 8.597656 13.597656 7.519531 15.757812 7.039062 C 17.917969 6.558594 20.214844 6.671875 22.382812 7.429688 C 22.496094 7.46875 22.550781 7.589844 22.511719 7.703125 C 22.476562 7.816406 22.355469 7.867188 22.242188 7.828125 C 20.148438 7.09375 17.933594 6.980469 15.847656 7.445312 C 13.773438 7.921875 11.8125 8.960938 10.234375 10.515625 " fill-opacity="1" fill-rule="nonzero"/><path fill="#00e220" d="M 12.816406 29.617188 C 12.710938 29.566406 12.671875 29.4375 12.726562 29.332031 C 12.777344 29.226562 12.90625 29.1875 13.011719 29.242188 C 15.253906 30.414062 17.746094 30.800781 20.125 30.445312 C 22.511719 30.09375 24.785156 28.992188 26.585938 27.214844 C 26.667969 27.132812 26.804688 27.132812 26.886719 27.214844 C 26.96875 27.300781 26.96875 27.433594 26.886719 27.515625 C 25.019531 29.363281 22.671875 30.5 20.199219 30.867188 C 17.722656 31.238281 15.132812 30.835938 12.816406 29.617188 " fill-opacity="1" fill-rule="nonzero"/><path fill="#00e220" d="M 26.570312 10.53125 C 26.488281 10.449219 26.488281 10.3125 26.570312 10.230469 C 26.652344 10.148438 26.789062 10.148438 26.871094 10.230469 C 27.722656 11.074219 28.4375 12.03125 28.996094 13.070312 C 29.558594 14.109375 29.964844 15.230469 30.207031 16.40625 C 30.230469 16.519531 30.152344 16.628906 30.039062 16.652344 C 29.929688 16.675781 29.816406 16.601562 29.792969 16.488281 C 29.558594 15.359375 29.167969 14.273438 28.625 13.265625 C 28.074219 12.273438 27.390625 11.347656 26.570312 10.53125 " fill-opacity="1" fill-rule="nonzero"/><path fill="#00e220" d="M 29.558594 28.269531 L 29.785156 28.488281 L 28.890625 29.421875 L 27.683594 28.261719 L 28.558594 27.351562 L 28.785156 27.570312 L 28.175781 28.203125 L 28.4375 28.449219 L 28.972656 27.894531 L 29.191406 28.105469 L 28.65625 28.660156 L 28.933594 28.933594 Z M 28.082031 29.761719 L 28.277344 30 L 27.261719 30.808594 L 26.222656 29.488281 L 27.21875 28.707031 L 27.414062 28.949219 L 26.722656 29.488281 L 26.945312 29.777344 L 27.554688 29.292969 L 27.746094 29.527344 L 27.136719 30.007812 L 27.375 30.308594 Z M 25.175781 30.550781 L 24.71875 30.824219 L 24.558594 30.550781 L 25.816406 29.8125 L 25.976562 30.085938 L 25.515625 30.355469 L 26.203125 31.53125 L 25.871094 31.726562 Z M 24.125 30.777344 L 24.742188 32.335938 L 24.445312 32.457031 L 23.296875 31.824219 L 23.671875 32.765625 L 23.316406 32.90625 L 22.699219 31.347656 L 23 31.230469 L 24.152344 31.867188 L 23.777344 30.929688 Z M 21.835938 32.644531 L 21.4375 32.078125 L 21.324219 32.765625 Z M 22.015625 32.90625 L 21.253906 33.082031 L 21.1875 33.464844 L 20.804688 33.554688 L 21.15625 31.757812 L 21.535156 31.671875 L 22.640625 33.132812 L 22.242188 33.222656 Z M 19.71875 32.589844 C 19.710938 32.5 19.675781 32.425781 19.613281 32.378906 C 19.554688 32.335938 19.464844 32.320312 19.34375 32.328125 L 19.027344 32.351562 L 19.070312 32.929688 L 19.386719 32.90625 C 19.5 32.898438 19.589844 32.871094 19.644531 32.808594 C 19.703125 32.757812 19.726562 32.683594 19.71875 32.589844 Z M 19.808594 33.652344 L 19.457031 33.214844 L 19.433594 33.214844 L 19.09375 33.238281 L 19.132812 33.707031 L 18.746094 33.734375 L 18.621094 32.066406 L 19.34375 32.011719 C 19.492188 31.996094 19.621094 32.011719 19.734375 32.058594 C 19.847656 32.09375 19.9375 32.164062 20.003906 32.246094 C 20.074219 32.328125 20.109375 32.433594 20.117188 32.5625 C 20.125 32.691406 20.101562 32.796875 20.050781 32.886719 C 19.996094 32.984375 19.914062 33.058594 19.808594 33.109375 L 20.222656 33.617188 Z M 17.40625 33.027344 L 17.191406 32.367188 L 16.875 32.984375 Z M 17.503906 33.328125 L 16.730469 33.269531 L 16.558594 33.617188 L 16.15625 33.585938 L 17.03125 31.972656 L 17.414062 32.003906 L 18.03125 33.726562 L 17.625 33.699219 Z M 14.765625 33.300781 C 14.53125 33.246094 14.367188 33.140625 14.269531 32.976562 C 14.171875 32.816406 14.148438 32.613281 14.199219 32.378906 L 14.410156 31.46875 L 14.789062 31.558594 L 14.578125 32.457031 C 14.507812 32.75 14.601562 32.921875 14.839844 32.976562 C 14.960938 33.003906 15.058594 32.992188 15.132812 32.929688 C 15.210938 32.878906 15.269531 32.773438 15.308594 32.621094 L 15.519531 31.726562 L 15.886719 31.816406 L 15.675781 32.726562 C 15.625 32.96875 15.511719 33.132812 15.351562 33.230469 C 15.195312 33.328125 15 33.351562 14.765625 33.300781 Z M 13.230469 31.875 L 13.554688 32.019531 L 13.273438 32.636719 C 13.160156 32.660156 13.046875 32.667969 12.921875 32.652344 C 12.800781 32.636719 12.679688 32.605469 12.566406 32.554688 C 12.410156 32.484375 12.28125 32.386719 12.183594 32.261719 C 12.085938 32.140625 12.03125 31.996094 12.011719 31.847656 C 11.996094 31.695312 12.015625 31.546875 12.085938 31.386719 C 12.152344 31.238281 12.25 31.117188 12.378906 31.027344 C 12.507812 30.933594 12.648438 30.890625 12.808594 30.875 C 12.964844 30.867188 13.125 30.898438 13.28125 30.964844 C 13.417969 31.027344 13.53125 31.101562 13.613281 31.199219 C 13.703125 31.289062 13.765625 31.402344 13.800781 31.515625 L 13.476562 31.621094 C 13.417969 31.453125 13.3125 31.34375 13.160156 31.273438 C 13.0625 31.230469 12.964844 31.214844 12.875 31.222656 C 12.785156 31.230469 12.695312 31.257812 12.621094 31.3125 C 12.542969 31.363281 12.484375 31.441406 12.4375 31.539062 C 12.394531 31.636719 12.378906 31.726562 12.386719 31.816406 C 12.394531 31.90625 12.429688 31.996094 12.484375 32.066406 C 12.535156 32.140625 12.621094 32.199219 12.710938 32.246094 C 12.816406 32.289062 12.914062 32.3125 13.011719 32.304688 Z M 13.230469 31.875 " fill-opacity="1" fill-rule="nonzero"/><path fill="#00e220" d="M 30.140625 9.433594 L 28.875 10.53125 L 28.664062 10.292969 L 28.882812 8.996094 L 28.113281 9.660156 L 27.863281 9.375 L 29.128906 8.273438 L 29.339844 8.515625 L 29.113281 9.808594 L 29.882812 9.148438 Z M 27.074219 8.296875 C 27.148438 8.355469 27.242188 8.394531 27.332031 8.410156 C 27.421875 8.425781 27.511719 8.410156 27.59375 8.371094 C 27.675781 8.335938 27.753906 8.273438 27.820312 8.199219 C 27.878906 8.117188 27.925781 8.03125 27.941406 7.933594 C 27.957031 7.84375 27.949219 7.753906 27.910156 7.671875 C 27.871094 7.589844 27.820312 7.511719 27.746094 7.453125 C 27.667969 7.394531 27.578125 7.355469 27.488281 7.339844 C 27.398438 7.324219 27.308594 7.339844 27.226562 7.371094 C 27.140625 7.410156 27.066406 7.46875 27 7.542969 C 26.9375 7.625 26.894531 7.710938 26.878906 7.808594 C 26.863281 7.898438 26.871094 7.988281 26.910156 8.070312 C 26.9375 8.160156 27 8.238281 27.074219 8.296875 Z M 26.871094 8.550781 C 26.734375 8.445312 26.628906 8.320312 26.570312 8.175781 C 26.511719 8.03125 26.488281 7.882812 26.503906 7.730469 C 26.515625 7.582031 26.578125 7.4375 26.683594 7.308594 C 26.78125 7.183594 26.910156 7.09375 27.050781 7.03125 C 27.195312 6.980469 27.347656 6.964844 27.503906 6.988281 C 27.660156 7.015625 27.804688 7.085938 27.941406 7.191406 C 28.074219 7.296875 28.175781 7.421875 28.242188 7.566406 C 28.300781 7.710938 28.324219 7.859375 28.308594 8.011719 C 28.292969 8.160156 28.234375 8.304688 28.128906 8.433594 C 28.03125 8.558594 27.902344 8.652344 27.761719 8.710938 C 27.617188 8.761719 27.464844 8.777344 27.308594 8.753906 C 27.15625 8.726562 27.007812 8.65625 26.871094 8.550781 Z M 26.425781 6.144531 L 26.75 6.355469 L 25.855469 7.769531 L 25.53125 7.558594 Z M 25.101562 5.75 L 24.628906 5.511719 L 24.769531 5.234375 L 26.074219 5.894531 L 25.929688 6.171875 L 25.457031 5.933594 L 24.839844 7.144531 L 24.484375 6.964844 Z M 23.226562 6.4375 C 23.070312 6.375 22.933594 6.285156 22.835938 6.164062 C 22.730469 6.046875 22.671875 5.910156 22.640625 5.757812 C 22.609375 5.609375 22.632812 5.457031 22.691406 5.300781 C 22.753906 5.140625 22.84375 5.023438 22.964844 4.921875 C 23.085938 4.824219 23.21875 4.773438 23.378906 4.75 C 23.535156 4.726562 23.695312 4.75 23.851562 4.8125 C 23.988281 4.863281 24.101562 4.929688 24.191406 5.023438 C 24.28125 5.113281 24.347656 5.21875 24.386719 5.332031 L 24.070312 5.457031 C 24.011719 5.292969 23.90625 5.1875 23.746094 5.128906 C 23.648438 5.089844 23.558594 5.074219 23.460938 5.089844 C 23.371094 5.105469 23.289062 5.140625 23.210938 5.195312 C 23.136719 5.253906 23.085938 5.332031 23.046875 5.429688 C 23.007812 5.527344 22.996094 5.617188 23.007812 5.714844 C 23.023438 5.804688 23.0625 5.886719 23.113281 5.960938 C 23.175781 6.039062 23.25 6.089844 23.347656 6.128906 C 23.507812 6.1875 23.65625 6.171875 23.816406 6.089844 L 23.964844 6.390625 C 23.851562 6.453125 23.738281 6.488281 23.613281 6.488281 C 23.5 6.511719 23.363281 6.488281 23.226562 6.4375 Z M 21.757812 5.261719 L 21.640625 4.578125 L 21.238281 5.140625 Z M 21.8125 5.578125 L 21.050781 5.414062 L 20.824219 5.730469 L 20.441406 5.648438 L 21.535156 4.179688 L 21.910156 4.261719 L 22.277344 6.0625 L 21.878906 5.96875 Z M 19.605469 4.199219 L 19.574219 4.644531 L 20.351562 4.699219 L 20.328125 5.007812 L 19.554688 4.953125 L 19.507812 5.5625 L 19.125 5.542969 L 19.238281 3.871094 L 20.503906 3.953125 L 20.480469 4.261719 Z M 18.078125 5.546875 C 17.941406 5.554688 17.8125 5.542969 17.695312 5.503906 C 17.566406 5.472656 17.46875 5.429688 17.394531 5.375 L 17.511719 5.082031 C 17.589844 5.132812 17.671875 5.171875 17.769531 5.203125 C 17.867188 5.234375 17.964844 5.246094 18.070312 5.238281 C 18.183594 5.238281 18.257812 5.21875 18.3125 5.1875 C 18.363281 5.15625 18.386719 5.113281 18.386719 5.050781 C 18.386719 5.015625 18.371094 4.976562 18.332031 4.953125 C 18.304688 4.929688 18.257812 4.910156 18.214844 4.894531 C 18.160156 4.878906 18.101562 4.863281 18.019531 4.847656 C 17.890625 4.816406 17.785156 4.796875 17.703125 4.765625 C 17.617188 4.734375 17.550781 4.691406 17.492188 4.621094 C 17.429688 4.554688 17.398438 4.472656 17.394531 4.359375 C 17.394531 4.261719 17.414062 4.171875 17.460938 4.09375 C 17.511719 4.011719 17.589844 3.953125 17.695312 3.898438 C 17.800781 3.847656 17.925781 3.824219 18.078125 3.816406 C 18.183594 3.816406 18.289062 3.824219 18.394531 3.847656 C 18.5 3.871094 18.589844 3.898438 18.664062 3.953125 L 18.550781 4.253906 C 18.394531 4.171875 18.234375 4.132812 18.085938 4.132812 C 17.980469 4.132812 17.898438 4.15625 17.84375 4.195312 C 17.792969 4.230469 17.769531 4.277344 17.769531 4.335938 C 17.769531 4.398438 17.800781 4.433594 17.859375 4.464844 C 17.917969 4.488281 18.011719 4.515625 18.136719 4.539062 C 18.265625 4.570312 18.371094 4.59375 18.453125 4.621094 C 18.539062 4.652344 18.605469 4.699219 18.664062 4.757812 C 18.726562 4.816406 18.753906 4.910156 18.761719 5.023438 C 18.761719 5.121094 18.742188 5.203125 18.6875 5.285156 C 18.636719 5.367188 18.558594 5.429688 18.453125 5.480469 C 18.355469 5.519531 18.226562 5.542969 18.078125 5.546875 Z M 16.453125 3.976562 L 16.835938 3.921875 L 17.054688 5.578125 L 16.671875 5.632812 Z M 15.171875 4.515625 L 14.652344 4.636719 L 14.578125 4.328125 L 16 3.996094 L 16.074219 4.304688 L 15.554688 4.425781 L 15.863281 5.75 L 15.488281 5.84375 Z M 14.117188 5.535156 L 13.660156 5.015625 L 13.613281 5.707031 Z M 14.328125 5.773438 L 13.589844 6.023438 L 13.566406 6.40625 L 13.191406 6.535156 L 13.359375 4.714844 L 13.71875 4.59375 L 14.96875 5.933594 L 14.585938 6.066406 Z M 12.460938 6.949219 C 12.339844 7.007812 12.21875 7.054688 12.09375 7.078125 C 11.964844 7.097656 11.859375 7.105469 11.761719 7.09375 L 11.746094 6.777344 C 11.835938 6.789062 11.925781 6.789062 12.03125 6.769531 C 12.136719 6.753906 12.226562 6.722656 12.320312 6.679688 C 12.417969 6.625 12.484375 6.574219 12.515625 6.519531 C 12.542969 6.46875 12.550781 6.414062 12.523438 6.371094 C 12.507812 6.332031 12.476562 6.308594 12.429688 6.300781 C 12.394531 6.292969 12.347656 6.292969 12.296875 6.300781 C 12.242188 6.308594 12.175781 6.324219 12.101562 6.347656 C 11.972656 6.375 11.867188 6.398438 11.785156 6.40625 C 11.699219 6.414062 11.609375 6.40625 11.527344 6.375 C 11.445312 6.347656 11.378906 6.277344 11.324219 6.179688 C 11.28125 6.097656 11.265625 6 11.273438 5.910156 C 11.28125 5.8125 11.324219 5.722656 11.398438 5.632812 C 11.476562 5.542969 11.582031 5.457031 11.714844 5.390625 C 11.8125 5.335938 11.910156 5.308594 12.011719 5.277344 C 12.113281 5.253906 12.207031 5.246094 12.296875 5.253906 L 12.324219 5.570312 C 12.144531 5.5625 11.996094 5.59375 11.851562 5.667969 C 11.753906 5.722656 11.695312 5.773438 11.664062 5.828125 C 11.632812 5.878906 11.632812 5.933594 11.65625 5.984375 C 11.679688 6.039062 11.730469 6.0625 11.792969 6.0625 C 11.859375 6.0625 11.949219 6.039062 12.070312 6.007812 C 12.199219 5.976562 12.304688 5.957031 12.386719 5.949219 C 12.46875 5.941406 12.558594 5.949219 12.632812 5.976562 C 12.71875 6.007812 12.785156 6.074219 12.832031 6.171875 C 12.875 6.257812 12.890625 6.347656 12.882812 6.445312 C 12.875 6.542969 12.832031 6.632812 12.753906 6.722656 C 12.703125 6.796875 12.597656 6.882812 12.460938 6.949219 Z M 10.625 7.785156 C 10.667969 7.753906 10.683594 7.710938 10.683594 7.648438 C 10.675781 7.597656 10.65625 7.535156 10.601562 7.46875 C 10.550781 7.402344 10.496094 7.355469 10.445312 7.339844 C 10.390625 7.324219 10.347656 7.332031 10.300781 7.363281 C 10.261719 7.394531 10.242188 7.4375 10.242188 7.492188 C 10.242188 7.542969 10.269531 7.605469 10.324219 7.679688 C 10.375 7.746094 10.429688 7.792969 10.480469 7.808594 C 10.535156 7.824219 10.585938 7.816406 10.625 7.785156 Z M 10.753906 7.933594 C 10.691406 7.988281 10.625 8.011719 10.550781 8.027344 C 10.472656 8.03125 10.40625 8.027344 10.332031 7.988281 C 10.261719 7.957031 10.195312 7.90625 10.136719 7.828125 C 10.074219 7.753906 10.042969 7.679688 10.023438 7.605469 C 10.007812 7.527344 10.015625 7.453125 10.039062 7.386719 C 10.058594 7.316406 10.105469 7.257812 10.171875 7.210938 C 10.269531 7.136719 10.375 7.105469 10.488281 7.121094 C 10.601562 7.136719 10.699219 7.203125 10.789062 7.316406 C 10.878906 7.429688 10.917969 7.535156 10.910156 7.65625 C 10.894531 7.761719 10.84375 7.859375 10.753906 7.933594 Z M 9.246094 7.867188 C 9.292969 7.835938 9.308594 7.792969 9.308594 7.730469 C 9.308594 7.679688 9.277344 7.617188 9.222656 7.542969 C 9.171875 7.476562 9.117188 7.429688 9.066406 7.414062 C 9.011719 7.402344 8.96875 7.410156 8.921875 7.445312 C 8.886719 7.476562 8.863281 7.519531 8.863281 7.582031 C 8.863281 7.632812 8.894531 7.703125 8.945312 7.769531 C 9 7.835938 9.050781 7.882812 9.105469 7.898438 C 9.15625 7.90625 9.210938 7.898438 9.246094 7.867188 Z M 9.59375 6.691406 L 9.820312 6.519531 L 9.953125 8.546875 L 9.730469 8.71875 Z M 9.367188 8.019531 C 9.269531 8.09375 9.164062 8.125 9.050781 8.109375 C 8.9375 8.09375 8.839844 8.027344 8.75 7.921875 C 8.660156 7.808594 8.621094 7.703125 8.628906 7.582031 C 8.636719 7.46875 8.691406 7.371094 8.789062 7.296875 C 8.886719 7.21875 8.992188 7.191406 9.097656 7.210938 C 9.210938 7.226562 9.308594 7.296875 9.398438 7.410156 C 9.488281 7.519531 9.523438 7.625 9.519531 7.738281 C 9.519531 7.851562 9.464844 7.941406 9.367188 8.019531 Z M 8.628906 9.351562 C 8.695312 9.273438 8.71875 9.183594 8.695312 9.085938 C 8.675781 8.980469 8.589844 8.867188 8.464844 8.742188 C 8.335938 8.613281 8.214844 8.546875 8.109375 8.523438 C 8.003906 8.507812 7.921875 8.53125 7.847656 8.605469 C 7.777344 8.679688 7.757812 8.761719 7.777344 8.867188 C 7.800781 8.972656 7.882812 9.085938 8.011719 9.214844 C 8.140625 9.34375 8.261719 9.410156 8.367188 9.433594 C 8.472656 9.457031 8.554688 9.425781 8.628906 9.351562 Z M 8.863281 9.578125 C 8.765625 9.675781 8.660156 9.742188 8.53125 9.773438 C 8.402344 9.800781 8.277344 9.792969 8.140625 9.75 C 8.003906 9.703125 7.867188 9.621094 7.742188 9.492188 C 7.613281 9.375 7.523438 9.238281 7.46875 9.109375 C 7.417969 8.972656 7.402344 8.847656 7.433594 8.71875 C 7.453125 8.589844 7.515625 8.476562 7.613281 8.378906 C 7.710938 8.28125 7.816406 8.214844 7.945312 8.183594 C 8.074219 8.152344 8.199219 8.160156 8.335938 8.207031 C 8.472656 8.25 8.605469 8.335938 8.734375 8.460938 C 8.863281 8.582031 8.953125 8.71875 9.003906 8.847656 C 9.058594 8.980469 9.074219 9.109375 9.042969 9.238281 C 9.019531 9.367188 8.960938 9.480469 8.863281 9.578125 Z M 7.5 10.660156 C 7.558594 10.578125 7.574219 10.488281 7.546875 10.390625 C 7.515625 10.292969 7.425781 10.1875 7.28125 10.074219 C 7.140625 9.960938 7.011719 9.898438 6.90625 9.894531 C 6.800781 9.886719 6.71875 9.921875 6.65625 10 C 6.597656 10.074219 6.582031 10.164062 6.613281 10.269531 C 6.640625 10.367188 6.730469 10.472656 6.875 10.585938 C 7.019531 10.699219 7.144531 10.757812 7.25 10.765625 C 7.355469 10.78125 7.441406 10.742188 7.5 10.660156 Z M 7.757812 10.863281 C 7.671875 10.976562 7.566406 11.050781 7.449219 11.089844 C 7.328125 11.136719 7.199219 11.140625 7.054688 11.105469 C 6.914062 11.074219 6.777344 11 6.632812 10.894531 C 6.492188 10.78125 6.386719 10.660156 6.324219 10.53125 C 6.257812 10.40625 6.234375 10.277344 6.25 10.148438 C 6.265625 10.019531 6.3125 9.898438 6.402344 9.792969 C 6.484375 9.683594 6.589844 9.605469 6.710938 9.570312 C 6.828125 9.523438 6.957031 9.523438 7.101562 9.554688 C 7.246094 9.585938 7.378906 9.660156 7.523438 9.765625 C 7.664062 9.878906 7.769531 10 7.832031 10.125 C 7.898438 10.253906 7.921875 10.382812 7.90625 10.511719 C 7.890625 10.636719 7.847656 10.757812 7.757812 10.863281 Z M 5.707031 10.839844 L 7.125 11.738281 L 6.914062 12.0625 L 5.761719 11.332031 L 5.582031 11.617188 L 5.316406 11.449219 Z M 5.707031 10.839844 " fill-opacity="1" fill-rule="nonzero"/><path fill="#00e220" d="M 18.003906 14.296875 C 17.859375 14.574219 17.640625 14.792969 17.347656 14.953125 C 17.28125 14.988281 17.203125 14.980469 17.136719 14.9375 C 17.078125 14.890625 17.046875 14.824219 17.054688 14.75 C 17.097656 14.402344 17.195312 14.0625 17.316406 13.746094 C 17.484375 13.316406 17.664062 13.085938 17.851562 13.03125 C 18.003906 12.996094 18.109375 13.078125 18.167969 13.289062 C 18.257812 13.574219 18.199219 13.90625 18.003906 14.296875 M 20.328125 14.003906 C 20.34375 13.929688 20.398438 13.875 20.464844 13.851562 C 20.53125 13.832031 20.609375 13.851562 20.660156 13.898438 C 20.789062 14.027344 20.863281 14.109375 20.917969 14.175781 C 21.007812 14.289062 21.195312 14.558594 21.261719 14.808594 C 21.398438 15.320312 21.15625 15.691406 20.796875 15.789062 C 20.480469 15.871094 20.148438 15.726562 20.027344 15.296875 L 20.011719 15.253906 C 20.003906 15.214844 20.003906 15.179688 20.019531 15.140625 C 20.101562 14.914062 20.171875 14.671875 20.222656 14.425781 Z M 25.789062 9.425781 C 25.914062 9.269531 25.976562 9.058594 25.953125 8.855469 C 25.816406 8.914062 25.660156 8.964844 25.480469 9.019531 C 25.273438 9.070312 25.050781 9.117188 24.808594 9.148438 C 24.75 9.15625 24.6875 9.132812 24.644531 9.09375 C 24.597656 9.050781 24.574219 8.988281 24.582031 8.929688 L 24.695312 7.957031 C 24.703125 7.882812 24.671875 7.816406 24.613281 7.769531 C 24.550781 7.722656 24.476562 7.71875 24.410156 7.753906 C 24.214844 7.84375 23.925781 7.972656 23.566406 8.132812 C 23.507812 8.152344 23.46875 8.199219 23.453125 8.257812 C 23.4375 8.320312 23.445312 8.371094 23.476562 8.425781 C 23.605469 8.621094 23.605469 8.644531 23.558594 9.019531 C 23.542969 9.125 23.453125 9.199219 23.347656 9.199219 C 21.820312 9.125 19.832031 8.644531 19.085938 10.011719 C 19.050781 10.082031 19.058594 10.171875 19.101562 10.230469 C 19.15625 10.300781 19.230469 10.320312 19.3125 10.300781 C 19.597656 10.222656 19.953125 10.164062 20.34375 10.117188 C 20.75 10.066406 21.058594 10.035156 21.277344 10.019531 C 21.496094 10 21.886719 9.984375 22.460938 9.960938 L 23.21875 9.929688 C 23.28125 9.929688 23.332031 9.953125 23.378906 9.992188 C 23.414062 10.035156 23.4375 10.089844 23.429688 10.148438 L 23.03125 13.730469 L 23.023438 13.769531 C 22.941406 14.039062 22.84375 14.289062 22.730469 14.523438 C 22.691406 14.597656 22.617188 14.636719 22.535156 14.636719 C 22.453125 14.636719 22.382812 14.574219 22.363281 14.5 C 22.269531 14.214844 22.039062 13.875 21.660156 13.5 C 21.261719 13.101562 21.042969 12.820312 21.007812 12.679688 C 20.945312 12.445312 21.050781 12.21875 21.253906 12.167969 C 21.351562 12.144531 21.441406 12.152344 21.542969 12.203125 C 21.601562 12.234375 21.660156 12.234375 21.722656 12.203125 C 21.78125 12.175781 21.820312 12.121094 21.828125 12.054688 L 21.871094 11.78125 C 21.878906 11.722656 21.863281 11.660156 21.828125 11.617188 C 21.789062 11.570312 21.730469 11.550781 21.667969 11.550781 C 21.449219 11.554688 21.253906 11.578125 21.089844 11.632812 C 20.34375 11.828125 19.976562 12.414062 20.019531 12.925781 C 19.96875 13.535156 19.914062 13.980469 19.863281 14.257812 L 19.863281 14.265625 L 19.839844 14.371094 L 19.839844 14.402344 C 19.75 14.769531 19.554688 15.179688 19.265625 15.621094 C 18.945312 16.117188 18.53125 16.425781 18.046875 16.554688 C 17.558594 16.691406 17.234375 16.496094 17.089844 15.96875 C 17.070312 15.894531 17.054688 15.796875 17.039062 15.691406 C 17.03125 15.636719 17.046875 15.585938 17.085938 15.539062 C 17.121094 15.492188 17.167969 15.472656 17.21875 15.464844 C 17.300781 15.457031 17.398438 15.441406 17.492188 15.410156 C 17.980469 15.277344 18.386719 14.980469 18.695312 14.53125 C 19.011719 14.054688 19.109375 13.589844 18.980469 13.113281 C 18.832031 12.558594 18.460938 12.363281 17.859375 12.527344 C 17.167969 12.714844 16.648438 13.226562 16.285156 14.0625 C 15.933594 14.890625 15.84375 15.644531 16.023438 16.328125 C 16.257812 17.195312 16.957031 17.625 17.875 17.382812 C 18.453125 17.226562 18.945312 16.871094 19.367188 16.328125 C 19.425781 16.246094 19.484375 16.164062 19.546875 16.082031 C 19.582031 16.019531 19.644531 15.992188 19.710938 15.992188 C 19.78125 15.992188 19.839844 16.019531 19.878906 16.074219 C 20.148438 16.449219 20.636719 16.609375 21.308594 16.425781 C 22.054688 16.222656 22.617188 15.75 23.007812 14.988281 L 23.015625 15.019531 C 23.160156 15.554688 23.542969 15.816406 24.070312 15.675781 C 24.484375 15.5625 24.855469 15.253906 25.171875 14.75 C 25.492188 14.238281 25.71875 13.648438 25.863281 12.964844 L 25.683594 12.910156 C 25.628906 12.898438 25.578125 12.902344 25.53125 12.925781 C 25.484375 12.949219 25.449219 12.996094 25.433594 13.046875 C 25.335938 13.417969 25.199219 13.769531 25.019531 14.109375 C 24.808594 14.507812 24.574219 14.734375 24.3125 14.800781 C 24.125 14.855469 24.019531 14.785156 23.972656 14.621094 C 23.949219 14.53125 23.949219 14.402344 23.964844 14.238281 L 24.445312 9.992188 C 24.453125 9.898438 24.53125 9.824219 24.621094 9.816406 C 24.839844 9.789062 25.050781 9.757812 25.238281 9.71875 C 25.3125 9.703125 25.394531 9.683594 25.464844 9.667969 C 25.605469 9.597656 25.710938 9.523438 25.789062 9.425781 Z M 25.789062 9.425781 " fill-opacity="1" fill-rule="evenodd"/><path fill="#00e220" d="M 19.984375 26.34375 L 20.515625 27.171875 C 20.53125 27.195312 20.5625 27.199219 20.585938 27.199219 L 21.542969 26.945312 C 21.570312 26.9375 21.59375 26.945312 21.609375 26.976562 C 21.625 26.996094 21.625 27.027344 21.601562 27.050781 L 20.976562 27.820312 C 20.960938 27.839844 20.960938 27.871094 20.976562 27.894531 L 21.519531 28.722656 C 21.535156 28.746094 21.535156 28.773438 21.519531 28.796875 C 21.503906 28.820312 21.472656 28.828125 21.449219 28.8125 L 20.523438 28.457031 C 20.503906 28.449219 20.472656 28.457031 20.457031 28.480469 L 19.832031 29.25 C 19.816406 29.273438 19.785156 29.277344 19.765625 29.273438 C 19.742188 29.265625 19.726562 29.234375 19.726562 29.210938 L 19.78125 28.226562 C 19.78125 28.195312 19.765625 28.171875 19.742188 28.164062 L 18.816406 27.8125 C 18.792969 27.804688 18.769531 27.773438 18.777344 27.75 C 18.777344 27.71875 18.800781 27.699219 18.824219 27.691406 L 19.78125 27.433594 C 19.808594 27.425781 19.824219 27.40625 19.824219 27.375 L 19.878906 26.386719 C 19.878906 26.359375 19.898438 26.335938 19.921875 26.328125 C 19.9375 26.3125 19.96875 26.320312 19.984375 26.34375 " fill-opacity="1" fill-rule="evenodd"/><path fill="#00e220" d="M 23.0625 25.890625 L 23.453125 26.5 C 23.460938 26.515625 23.484375 26.523438 23.507812 26.523438 L 24.207031 26.335938 C 24.230469 26.328125 24.242188 26.335938 24.257812 26.359375 C 24.265625 26.371094 24.265625 26.394531 24.257812 26.410156 L 23.800781 26.976562 C 23.785156 26.992188 23.785156 27.011719 23.800781 27.027344 L 24.199219 27.636719 C 24.207031 27.652344 24.207031 27.675781 24.199219 27.691406 C 24.183594 27.707031 24.167969 27.714844 24.144531 27.707031 L 23.46875 27.441406 C 23.445312 27.433594 23.429688 27.441406 23.414062 27.457031 L 22.957031 28.023438 C 22.941406 28.035156 22.925781 28.042969 22.902344 28.035156 C 22.882812 28.027344 22.875 28.015625 22.875 27.992188 L 22.910156 27.269531 C 22.910156 27.246094 22.902344 27.230469 22.882812 27.222656 L 22.203125 26.96875 C 22.1875 26.960938 22.171875 26.945312 22.171875 26.921875 C 22.171875 26.898438 22.1875 26.886719 22.210938 26.878906 L 22.910156 26.6875 C 22.933594 26.683594 22.941406 26.667969 22.949219 26.644531 L 22.988281 25.921875 C 22.988281 25.898438 23 25.882812 23.023438 25.875 C 23.03125 25.867188 23.054688 25.875 23.0625 25.890625 " fill-opacity="1" fill-rule="evenodd"/><path fill="#00e220" d="M 17.136719 27.480469 L 17.527344 28.089844 C 17.535156 28.105469 17.558594 28.113281 17.582031 28.113281 L 18.28125 27.925781 C 18.304688 27.917969 18.320312 27.925781 18.332031 27.945312 C 18.339844 27.960938 18.339844 27.984375 18.332031 28 L 17.875 28.5625 C 17.859375 28.578125 17.859375 28.601562 17.875 28.617188 L 18.273438 29.226562 C 18.28125 29.242188 18.28125 29.265625 18.273438 29.277344 C 18.257812 29.292969 18.242188 29.300781 18.222656 29.292969 L 17.542969 29.03125 C 17.519531 29.023438 17.503906 29.03125 17.492188 29.046875 L 17.039062 29.609375 C 17.023438 29.625 17.007812 29.632812 16.984375 29.625 C 16.964844 29.617188 16.957031 29.601562 16.957031 29.582031 L 16.992188 28.859375 C 16.992188 28.835938 16.984375 28.820312 16.964844 28.8125 L 16.285156 28.554688 C 16.261719 28.546875 16.257812 28.535156 16.257812 28.511719 C 16.257812 28.488281 16.269531 28.472656 16.292969 28.464844 L 16.992188 28.277344 C 17.015625 28.269531 17.023438 28.253906 17.03125 28.234375 L 17.070312 27.511719 C 17.070312 27.488281 17.085938 27.472656 17.105469 27.464844 C 17.105469 27.457031 17.121094 27.464844 17.136719 27.480469 " fill-opacity="1" fill-rule="evenodd"/></svg>